<svg xmlns="http://www.w3.org/2000/svg" xmlns:xlink="http://www.w3.org/1999/xlink" width="500" zoomAndPan="magnify" viewBox="0 0 375 374.999991" height="500" preserveAspectRatio="xMidYMid meet" version="1.0"><defs><g/><clipPath id="74f374fa7a"><path d="M 260 255 L 314 255 L 314 295.363281 L 260 295.363281 Z M 260 255 " clip-rule="nonzero"/></clipPath><clipPath id="d491fc3fbf"><path d="M 94 242.863281 L 274 242.863281 L 274 284 L 94 284 Z M 94 242.863281 " clip-rule="nonzero"/></clipPath><clipPath id="ec04a3da1f"><path d="M 55 255 L 109 255 L 109 295.363281 L 55 295.363281 Z M 55 255 " clip-rule="nonzero"/></clipPath><clipPath id="af5846c700"><path d="M 102.980469 131.058594 L 266.175781 131.058594 L 266.175781 233.058594 L 102.980469 233.058594 Z M 102.980469 131.058594 " clip-rule="nonzero"/></clipPath></defs><rect x="-37.5" width="450" fill="#ffffff" y="-37.499999" height="449.999989" fill-opacity="1"/><rect x="-37.5" width="450" fill="#000000" y="-37.499999" height="449.999989" fill-opacity="1"/><g clip-path="url(#74f374fa7a)"><path fill="#ff0000" d="M 277.429688 255.027344 L 277.429688 286.59375 L 260.515625 295.542969 L 313.585938 295.542969 L 302.546875 275.289062 L 313.585938 255.027344 L 277.429688 255.027344 " fill-opacity="1" fill-rule="nonzero"/></g><path fill="#ff0000" d="M 255.558594 286.9375 L 255.558594 294.226562 L 269.339844 286.9375 Z M 255.558594 286.9375 " fill-opacity="1" fill-rule="nonzero"/><g clip-path="url(#d491fc3fbf)"><path fill="#ff0000" d="M 273.941406 242.878906 L 94.742188 242.878906 L 94.742188 283.457031 L 273.941406 283.457031 L 273.941406 242.878906 " fill-opacity="1" fill-rule="nonzero"/></g><g clip-path="url(#ec04a3da1f)"><path fill="#ff0000" d="M 91.257812 286.9375 L 91.257812 255.027344 L 55.628906 255.039062 L 66.667969 275.289062 L 55.640625 295.550781 L 108.683594 295.535156 L 91.257812 286.9375 " fill-opacity="1" fill-rule="nonzero"/></g><path fill="#ff0000" d="M 113.699219 294.222656 L 113.753906 286.9375 L 99.703125 286.9375 Z M 113.699219 294.222656 " fill-opacity="1" fill-rule="nonzero"/><g fill="#ffffff" fill-opacity="1"><g transform="translate(86.2838, 226.789819)"><g><path d="M -3.65625 -15.78125 C -3.363281 -15.125 -3.0625 -14.304688 -2.75 -13.328125 C -2.445312 -12.359375 -2.207031 -11.445312 -2.03125 -10.59375 C -1.476562 -8.039062 -1.382812 -6.085938 -1.75 -4.734375 C -2.113281 -3.378906 -2.972656 -2.347656 -4.328125 -1.640625 C -5.691406 -0.929688 -7.84375 -0.257812 -10.78125 0.375 C -13.664062 1 -15.878906 1.265625 -17.421875 1.171875 C -18.972656 1.085938 -20.195312 0.507812 -21.09375 -0.5625 C -21.988281 -1.644531 -22.710938 -3.460938 -23.265625 -6.015625 C -23.453125 -6.890625 -23.597656 -7.816406 -23.703125 -8.796875 C -23.804688 -9.785156 -23.847656 -10.617188 -23.828125 -11.296875 L -20.359375 -12.046875 C -20.191406 -10.265625 -20.003906 -8.890625 -19.796875 -7.921875 C -19.398438 -6.085938 -18.988281 -4.847656 -18.5625 -4.203125 C -18.144531 -3.554688 -17.46875 -3.226562 -16.53125 -3.21875 C -15.601562 -3.207031 -13.992188 -3.453125 -11.703125 -3.953125 C -9.410156 -4.441406 -7.84375 -4.878906 -7 -5.265625 C -6.164062 -5.660156 -5.6875 -6.238281 -5.5625 -7 C -5.445312 -7.757812 -5.585938 -9.054688 -5.984375 -10.890625 C -6.304688 -12.421875 -6.703125 -13.796875 -7.171875 -15.015625 Z M -3.65625 -15.78125 "/></g></g></g><g fill="#ffffff" fill-opacity="1"><g transform="translate(82.065597, 207.163271)"><g><path d="M -0.03125 -15.296875 L -8.734375 -15.28125 L -8.71875 -6.890625 L -0.015625 -6.90625 L 0 -2.53125 L -21.21875 -2.484375 L -21.234375 -6.859375 L -12.65625 -6.875 L -12.671875 -15.265625 L -21.25 -15.25 L -21.25 -19.65625 L -0.03125 -19.703125 Z M -0.03125 -15.296875 "/></g></g></g><g fill="#ffffff" fill-opacity="1"><g transform="translate(82.31637, 182.728808)"><g><path d="M -16.421875 -23.34375 L -5 -20.734375 C -2.25 -20.097656 -0.28125 -19.457031 0.90625 -18.8125 C 2.09375 -18.175781 2.820312 -17.238281 3.09375 -16 C 3.363281 -14.757812 3.210938 -12.894531 2.640625 -10.40625 C 2.078125 -7.914062 1.398438 -6.164062 0.609375 -5.15625 C -0.171875 -4.15625 -1.238281 -3.617188 -2.59375 -3.546875 C -3.945312 -3.484375 -6 -3.769531 -8.75 -4.40625 L -20.171875 -7.015625 L -19.1875 -11.28125 L -6.671875 -8.421875 C -5.128906 -8.066406 -4.039062 -7.890625 -3.40625 -7.890625 C -2.769531 -7.890625 -2.28125 -8.128906 -1.9375 -8.609375 C -1.601562 -9.085938 -1.289062 -9.96875 -1 -11.25 C -0.695312 -12.539062 -0.597656 -13.46875 -0.703125 -14.03125 C -0.804688 -14.59375 -1.144531 -15.007812 -1.71875 -15.28125 C -2.289062 -15.550781 -3.347656 -15.863281 -4.890625 -16.21875 L -17.40625 -19.078125 Z M -16.421875 -23.34375 "/></g></g></g><g fill="#ffffff" fill-opacity="1"><g transform="translate(87.886965, 159.644379)"><g><path d="M 6.40625 -13.375 L -1.875 -13.890625 L -3.9375 -9.5625 L 3 -6.25 L 1.109375 -2.3125 L -18.03125 -11.46875 L -13.71875 -20.46875 C -12.925781 -22.125 -12.078125 -23.265625 -11.171875 -23.890625 C -10.265625 -24.523438 -9.3125 -24.78125 -8.3125 -24.65625 C -7.320312 -24.53125 -6.148438 -24.144531 -4.796875 -23.5 C -1.773438 -22.050781 -0.34375 -20.242188 -0.5 -18.078125 L 8.421875 -17.59375 Z M -5.6875 -14.6875 C -5.164062 -15.757812 -4.863281 -16.578125 -4.78125 -17.140625 C -4.695312 -17.710938 -4.800781 -18.15625 -5.09375 -18.46875 C -5.382812 -18.78125 -5.921875 -19.125 -6.703125 -19.5 C -7.503906 -19.875 -8.113281 -20.078125 -8.53125 -20.109375 C -8.957031 -20.140625 -9.351562 -19.945312 -9.71875 -19.53125 C -10.082031 -19.125 -10.523438 -18.375 -11.046875 -17.28125 L -12.71875 -13.765625 L -7.34375 -11.203125 Z M -5.6875 -14.6875 "/></g></g></g><g fill="#ffffff" fill-opacity="1"><g transform="translate(98.1492, 138.788673)"><g><path d="M 9.15625 -11.65625 L 1.1875 -13.96875 L -1.765625 -10.203125 L 4.28125 -5.453125 L 1.578125 -2.015625 L -15.109375 -15.125 L -8.9375 -22.984375 C -7.8125 -24.421875 -6.738281 -25.347656 -5.71875 -25.765625 C -4.695312 -26.179688 -3.710938 -26.21875 -2.765625 -25.875 C -1.816406 -25.539062 -0.75 -24.910156 0.4375 -23.984375 C 3.070312 -21.910156 4.070312 -19.835938 3.4375 -17.765625 L 12.046875 -15.34375 Z M -2.34375 -15.578125 C -1.613281 -16.503906 -1.144531 -17.234375 -0.9375 -17.765625 C -0.738281 -18.304688 -0.75 -18.757812 -0.96875 -19.125 C -1.1875 -19.5 -1.632812 -19.953125 -2.3125 -20.484375 C -3.007812 -21.023438 -3.554688 -21.359375 -3.953125 -21.484375 C -4.359375 -21.609375 -4.78125 -21.503906 -5.21875 -21.171875 C -5.664062 -20.847656 -6.265625 -20.210938 -7.015625 -19.265625 L -9.421875 -16.203125 L -4.734375 -12.53125 Z M -2.34375 -15.578125 "/></g></g></g><g fill="#ffffff" fill-opacity="1"><g transform="translate(112.685918, 120.664124)"><g><path d="M 12.53125 -10.234375 L 8.453125 -12.796875 L 2.0625 -7.578125 L 3.78125 -3.078125 L 0.359375 -0.296875 L -7.5 -21.28125 L -2.9375 -25.015625 L 16.0625 -13.125 Z M -2.625 -19.921875 L -2.734375 -19.828125 L 0.546875 -11.28125 L 5.125 -15.03125 Z M -2.625 -19.921875 "/></g></g></g><g fill="#ffffff" fill-opacity="1"><g transform="translate(131.135669, 106.046704)"><g><path d="M 9.046875 -4.34375 C 6.347656 -2.96875 3.960938 -1.9375 1.890625 -1.25 L 0.21875 -4.53125 C 2.59375 -5.445312 4.578125 -6.3125 6.171875 -7.125 C 7.097656 -7.601562 7.800781 -8.015625 8.28125 -8.359375 C 8.757812 -8.710938 9.070312 -9.054688 9.21875 -9.390625 C 9.375 -9.691406 9.414062 -9.988281 9.34375 -10.28125 C 9.269531 -10.582031 9.113281 -10.96875 8.875 -11.4375 C 8.601562 -11.96875 8.367188 -12.335938 8.171875 -12.546875 C 7.972656 -12.753906 7.734375 -12.859375 7.453125 -12.859375 C 7.171875 -12.867188 6.765625 -12.769531 6.234375 -12.5625 L 1.9375 -10.984375 C 0.644531 -10.523438 -0.445312 -10.359375 -1.34375 -10.484375 C -2.238281 -10.617188 -3 -10.992188 -3.625 -11.609375 C -4.25 -12.222656 -4.84375 -13.078125 -5.40625 -14.171875 C -6.226562 -15.785156 -6.554688 -17.15625 -6.390625 -18.28125 C -6.234375 -19.414062 -5.726562 -20.363281 -4.875 -21.125 C -4.019531 -21.882812 -2.8125 -22.664062 -1.25 -23.46875 C 1.15625 -24.6875 3.300781 -25.550781 5.1875 -26.0625 L 6.8125 -22.875 C 4.90625 -22.207031 3.054688 -21.410156 1.265625 -20.484375 C -0.378906 -19.648438 -1.398438 -18.957031 -1.796875 -18.40625 C -2.003906 -18.113281 -2.082031 -17.828125 -2.03125 -17.546875 C -1.988281 -17.273438 -1.84375 -16.898438 -1.59375 -16.421875 C -1.3125 -15.878906 -1.070312 -15.503906 -0.875 -15.296875 C -0.6875 -15.097656 -0.441406 -15.015625 -0.140625 -15.046875 C 0.148438 -15.078125 0.601562 -15.203125 1.21875 -15.421875 L 5.84375 -17.109375 C 6.726562 -17.460938 7.503906 -17.648438 8.171875 -17.671875 C 8.847656 -17.703125 9.488281 -17.515625 10.09375 -17.109375 C 10.9375 -16.546875 11.78125 -15.4375 12.625 -13.78125 C 13.507812 -12.050781 13.898438 -10.601562 13.796875 -9.4375 C 13.703125 -8.28125 13.257812 -7.332031 12.46875 -6.59375 C 11.675781 -5.851562 10.535156 -5.101562 9.046875 -4.34375 Z M 9.046875 -4.34375 "/></g></g></g><g fill="#ffffff" fill-opacity="1"><g transform="translate(150.576237, 96.471536)"><g><path d="M 15.515625 -4.625 C 14.878906 -4.300781 14.082031 -3.957031 13.125 -3.59375 C 12.175781 -3.226562 11.285156 -2.929688 10.453125 -2.703125 C 7.929688 -1.992188 5.984375 -1.773438 4.609375 -2.046875 C 3.242188 -2.328125 2.160156 -3.117188 1.359375 -4.421875 C 0.566406 -5.734375 -0.234375 -7.832031 -1.046875 -10.71875 C -1.859375 -13.570312 -2.269531 -15.773438 -2.28125 -17.328125 C -2.289062 -18.878906 -1.78125 -20.132812 -0.75 -21.09375 C 0.269531 -22.050781 2.039062 -22.882812 4.5625 -23.59375 C 5.414062 -23.832031 6.328125 -24.035156 7.296875 -24.203125 C 8.273438 -24.367188 9.101562 -24.460938 9.78125 -24.484375 L 10.734375 -21.0625 C 8.972656 -20.78125 7.613281 -20.503906 6.65625 -20.234375 C 4.851562 -19.722656 3.640625 -19.238281 3.015625 -18.78125 C 2.398438 -18.320312 2.117188 -17.628906 2.171875 -16.703125 C 2.222656 -15.773438 2.570312 -14.179688 3.21875 -11.921875 C 3.851562 -9.671875 4.390625 -8.132812 4.828125 -7.3125 C 5.265625 -6.5 5.863281 -6.054688 6.625 -5.984375 C 7.394531 -5.910156 8.679688 -6.128906 10.484375 -6.640625 C 11.992188 -7.066406 13.34375 -7.554688 14.53125 -8.109375 Z M 15.515625 -4.625 "/></g></g></g><g fill="#ffffff" fill-opacity="1"><g transform="translate(169.914634, 91.048055)"><g><path d="M 10.90625 -0.46875 C 8.007812 -0.28125 5.925781 -0.453125 4.65625 -0.984375 C 3.394531 -1.523438 2.554688 -2.476562 2.140625 -3.84375 C 1.734375 -5.21875 1.421875 -7.507812 1.203125 -10.71875 C 0.992188 -13.914062 1.003906 -16.21875 1.234375 -17.625 C 1.460938 -19.039062 2.164062 -20.097656 3.34375 -20.796875 C 4.53125 -21.503906 6.570312 -21.953125 9.46875 -22.140625 C 12.363281 -22.328125 14.453125 -22.148438 15.734375 -21.609375 C 17.015625 -21.078125 17.859375 -20.125 18.265625 -18.75 C 18.679688 -17.382812 18.992188 -15.101562 19.203125 -11.90625 C 19.421875 -8.695312 19.414062 -6.382812 19.1875 -4.96875 C 18.957031 -3.5625 18.242188 -2.503906 17.046875 -1.796875 C 15.847656 -1.097656 13.800781 -0.65625 10.90625 -0.46875 Z M 10.65625 -4.265625 C 12.28125 -4.367188 13.363281 -4.550781 13.90625 -4.8125 C 14.457031 -5.070312 14.78125 -5.644531 14.875 -6.53125 C 14.976562 -7.414062 14.945312 -9.113281 14.78125 -11.625 C 14.613281 -14.125 14.421875 -15.804688 14.203125 -16.671875 C 13.992188 -17.535156 13.597656 -18.054688 13.015625 -18.234375 C 12.441406 -18.421875 11.34375 -18.460938 9.71875 -18.359375 C 8.101562 -18.253906 7.023438 -18.070312 6.484375 -17.8125 C 5.941406 -17.550781 5.617188 -16.972656 5.515625 -16.078125 C 5.410156 -15.179688 5.441406 -13.492188 5.609375 -11.015625 C 5.773438 -8.523438 5.96875 -6.84375 6.1875 -5.96875 C 6.40625 -5.09375 6.800781 -4.5625 7.375 -4.375 C 7.945312 -4.195312 9.039062 -4.160156 10.65625 -4.265625 Z M 10.65625 -4.265625 "/></g></g></g><g fill="#ffffff" fill-opacity="1"><g transform="translate(194.515909, 90.239811)"><g/></g></g><g fill="#ffffff" fill-opacity="1"><g transform="translate(204.896301, 90.870637)"><g><path d="M 24.296875 -6.234375 L 23.390625 -2.90625 L 20.171875 -3.78125 L 17.890625 4.46875 C 16.828125 4.382812 15.617188 4.21875 14.265625 3.96875 C 12.921875 3.726562 11.726562 3.46875 10.6875 3.1875 C 8.15625 2.488281 6.296875 1.71875 5.109375 0.875 C 3.921875 0.03125 3.21875 -0.859375 3 -1.796875 C 2.78125 -2.734375 2.835938 -3.804688 3.171875 -5.015625 C 3.597656 -6.578125 4.203125 -7.628906 4.984375 -8.171875 C 5.765625 -8.710938 6.835938 -8.957031 8.203125 -8.90625 L 8.234375 -9.03125 C 7.109375 -9.65625 6.363281 -10.414062 6 -11.3125 C 5.632812 -12.207031 5.648438 -13.378906 6.046875 -14.828125 C 6.503906 -16.484375 7.5 -17.617188 9.03125 -18.234375 C 10.570312 -18.847656 13.039062 -18.6875 16.4375 -17.75 C 17.4375 -17.476562 18.570312 -17.101562 19.84375 -16.625 C 21.113281 -16.144531 22.222656 -15.660156 23.171875 -15.171875 L 22.3125 -12.0625 C 21.414062 -12.4375 20.40625 -12.820312 19.28125 -13.21875 C 18.15625 -13.625 17.164062 -13.941406 16.3125 -14.171875 C 14.625 -14.640625 13.363281 -14.898438 12.53125 -14.953125 C 11.695312 -15.003906 11.101562 -14.878906 10.75 -14.578125 C 10.394531 -14.285156 10.113281 -13.75 9.90625 -12.96875 C 9.726562 -12.34375 9.65625 -11.828125 9.6875 -11.421875 C 9.726562 -11.015625 9.957031 -10.65625 10.375 -10.34375 C 10.789062 -10.039062 11.472656 -9.753906 12.421875 -9.484375 L 14.5625 -8.90625 L 13.65625 -5.578125 L 11.515625 -6.15625 C 10.523438 -6.4375 9.765625 -6.5625 9.234375 -6.53125 C 8.703125 -6.5 8.300781 -6.3125 8.03125 -5.96875 C 7.757812 -5.625 7.523438 -5.078125 7.328125 -4.328125 C 7.109375 -3.535156 7.101562 -2.894531 7.3125 -2.40625 C 7.519531 -1.925781 7.953125 -1.519531 8.609375 -1.1875 C 9.273438 -0.851562 10.273438 -0.503906 11.609375 -0.140625 C 12.773438 0.179688 13.804688 0.425781 14.703125 0.59375 L 17.125 -8.203125 Z M 24.296875 -6.234375 "/></g></g></g><g fill="#ffffff" fill-opacity="1"><g transform="translate(229.126499, 98.425775)"><g/></g></g><g fill="#ffffff" fill-opacity="1"><g transform="translate(238.764516, 102.759458)"><g><path d="M 13.640625 8.71875 C 12.972656 8.445312 12.191406 8.070312 11.296875 7.59375 C 10.398438 7.113281 9.585938 6.632812 8.859375 6.15625 C 6.679688 4.71875 5.25 3.390625 4.5625 2.171875 C 3.882812 0.953125 3.78125 -0.382812 4.25 -1.84375 C 4.726562 -3.3125 5.789062 -5.296875 7.4375 -7.796875 C 9.070312 -10.265625 10.472656 -12.007812 11.640625 -13.03125 C 12.804688 -14.050781 14.085938 -14.484375 15.484375 -14.328125 C 16.878906 -14.179688 18.664062 -13.390625 20.84375 -11.953125 C 21.582031 -11.460938 22.332031 -10.898438 23.09375 -10.265625 C 23.863281 -9.640625 24.476562 -9.078125 24.9375 -8.578125 L 22.984375 -5.625 C 21.609375 -6.769531 20.507812 -7.617188 19.6875 -8.171875 C 18.113281 -9.203125 16.945312 -9.800781 16.1875 -9.96875 C 15.4375 -10.132812 14.726562 -9.894531 14.0625 -9.25 C 13.40625 -8.613281 12.425781 -7.316406 11.125 -5.359375 C 9.832031 -3.410156 9.019531 -2 8.6875 -1.125 C 8.351562 -0.257812 8.410156 0.484375 8.859375 1.109375 C 9.304688 1.742188 10.316406 2.578125 11.890625 3.609375 C 13.191406 4.472656 14.4375 5.171875 15.625 5.703125 Z M 13.640625 8.71875 "/></g></g></g><g fill="#ffffff" fill-opacity="1"><g transform="translate(255.496709, 114.045942)"><g><path d="M 1.828125 1.796875 L 16.75 -13.28125 L 27.109375 -3.015625 L 24.4375 -0.3125 L 17.1875 -7.5 L 13.8125 -4.09375 L 20.03125 2.078125 L 17.359375 4.765625 L 11.140625 -1.40625 L 7.609375 2.171875 L 14.859375 9.359375 L 12.1875 12.0625 Z M 1.828125 1.796875 "/></g></g></g><g fill="#ffffff" fill-opacity="1"><g transform="translate(270.510232, 129.107408)"><g><path d="M 8.125 12.40625 L 12.84375 5.578125 L 10.21875 1.578125 L 3.796875 5.796875 L 1.40625 2.140625 L 19.15625 -9.5 L 24.625 -1.140625 C 25.632812 0.390625 26.171875 1.707031 26.234375 2.8125 C 26.304688 3.914062 26.03125 4.859375 25.40625 5.640625 C 24.78125 6.429688 23.835938 7.238281 22.578125 8.0625 C 19.773438 9.90625 17.492188 10.191406 15.734375 8.921875 L 10.6875 16.3125 Z M 15.515625 2.75 C 16.160156 3.738281 16.703125 4.414062 17.140625 4.78125 C 17.585938 5.144531 18.019531 5.28125 18.4375 5.1875 C 18.851562 5.101562 19.421875 4.820312 20.140625 4.34375 C 20.878906 3.863281 21.367188 3.453125 21.609375 3.109375 C 21.859375 2.765625 21.898438 2.332031 21.734375 1.8125 C 21.578125 1.289062 21.164062 0.523438 20.5 -0.484375 L 18.359375 -3.75 L 13.390625 -0.484375 Z M 15.515625 2.75 "/></g></g></g><g fill="#ffffff" fill-opacity="1"><g transform="translate(283.03209, 148.707874)"><g><path d="M 2.59375 6.8125 L 20.015625 -7.046875 L 21.609375 -2.84375 L 8.21875 7.75 L 8.296875 7.9375 L 25.3125 6.859375 L 26.890625 11.015625 L 4.65625 12.25 Z M 2.59375 6.8125 "/></g></g></g><g fill="#ffffff" fill-opacity="1"><g transform="translate(290.831742, 170.144927)"><g><path d="M 0.390625 2.53125 L 21.359375 -0.75 L 23.625 13.671875 L 19.875 14.25 L 18.296875 4.15625 L 13.53125 4.90625 L 14.890625 13.5625 L 11.15625 14.140625 L 9.796875 5.484375 L 4.828125 6.265625 L 6.40625 16.359375 L 2.65625 16.953125 Z M 0.390625 2.53125 "/></g></g></g><g fill="#ffffff" fill-opacity="1"><g transform="translate(293.655978, 191.540847)"><g><path d="M 3.5 0.859375 C 3.5 2.398438 3.578125 3.445312 3.734375 4 C 3.890625 4.5625 4.238281 4.914062 4.78125 5.0625 C 5.320312 5.207031 6.382812 5.289062 7.96875 5.3125 L 21.140625 5.515625 L 21.0625 9.921875 L 9.125 9.734375 C 5.875 9.679688 3.675781 9.492188 2.53125 9.171875 C 1.382812 8.847656 0.664062 8.140625 0.375 7.046875 C 0.09375 5.960938 -0.0351562 3.878906 -0.015625 0.796875 Z M 3.5 0.859375 "/></g></g></g><g fill="#ffffff" fill-opacity="1"><g transform="translate(293.603298, 206.181371)"><g><path d="M -3.171875 15.875 L 1.59375 15.265625 L 3.21875 7.15625 L -0.953125 4.78125 L -0.09375 0.453125 L 19.3125 11.671875 L 18.15625 17.4375 L -4.0625 20.328125 Z M 14.6875 13.71875 L 14.71875 13.5625 L 6.75 9.0625 L 5.59375 14.859375 Z M 14.6875 13.71875 "/></g></g></g><g clip-path="url(#af5846c700)"><path fill="#ff0000" d="M 103.660156 161.160156 L 103.6875 161.167969 Z M 251.269531 232.566406 C 251.28125 232.566406 251.296875 232.566406 251.308594 232.566406 C 251.296875 232.566406 251.285156 232.566406 251.269531 232.566406 Z M 250.375 131.058594 C 250.839844 131.058594 251.511719 131.390625 252.390625 132.050781 L 254.078125 133.40625 C 257.980469 136.824219 260.175781 138.703125 260.671875 139.046875 C 262.101562 140.164062 263.117188 140.792969 263.722656 140.9375 C 263.875 140.996094 264.015625 141.023438 264.148438 141.023438 C 264.515625 141.023438 264.796875 140.789062 264.984375 140.324219 C 265.183594 139.882812 265.328125 139.175781 265.414062 138.191406 L 265.550781 136.046875 C 265.554688 135.882812 265.511719 135.726562 265.421875 135.582031 C 265.542969 135.507812 265.671875 135.472656 265.8125 135.472656 C 265.902344 135.472656 265.992188 135.484375 266.089844 135.515625 C 265.957031 135.710938 265.894531 135.855469 265.902344 135.949219 C 266.195312 137.484375 266.320312 138.714844 266.273438 139.644531 C 266.25 140.367188 266.085938 140.984375 265.78125 141.496094 C 265.332031 142.160156 264.695312 142.492188 263.878906 142.492188 C 263.324219 142.492188 262.679688 142.335938 261.953125 142.03125 C 260.628906 141.554688 257.578125 139.582031 252.808594 136.109375 C 255.964844 142.617188 255.847656 147.964844 252.464844 152.144531 C 252.34375 152.285156 252.21875 152.425781 252.085938 152.566406 C 250.789062 154.511719 249.300781 156.214844 247.625 157.675781 C 246.4375 159 244.988281 160.546875 243.28125 162.3125 C 243.203125 162.390625 243.125 162.472656 243.046875 162.546875 C 244.582031 164.84375 245.914062 167.5625 247.039062 170.699219 C 247.585938 172.730469 247.761719 175.03125 247.558594 177.605469 C 247.515625 179.660156 246.84375 182.957031 245.542969 187.5 C 245.382812 188.527344 245.394531 189.683594 245.578125 190.96875 C 245.914062 193.09375 246.507812 194.820312 247.359375 196.144531 C 247.925781 197.203125 249.488281 198.742188 252.046875 200.757812 C 252.390625 201.132812 252.648438 201.65625 252.820312 202.328125 C 253.085938 202.738281 253.035156 205.21875 252.667969 209.769531 L 253.105469 213.007812 C 254.445312 218.988281 256.015625 223.355469 257.8125 226.121094 C 257.847656 226.339844 257.398438 226.496094 256.457031 226.59375 C 256.417969 228.78125 256.582031 230.226562 256.953125 230.9375 L 255.824219 232.296875 C 255.445312 232.746094 254.246094 233.019531 252.21875 233.121094 L 248.9375 233.191406 C 248.007812 232.945312 247.539062 232.734375 247.535156 232.558594 C 247.070312 232.5 247.765625 231.371094 249.628906 229.171875 C 249.855469 228.695312 249.953125 228.210938 249.929688 227.726562 C 249.460938 222.175781 248.449219 217.363281 246.886719 213.289062 C 244.867188 209.785156 243.425781 207.679688 242.5625 206.96875 C 242.566406 206.96875 242.566406 206.96875 242.570312 206.96875 C 242.816406 206.96875 240.042969 204.691406 234.238281 200.136719 C 235.214844 201.753906 235.648438 203.175781 235.539062 204.40625 C 233.839844 208.316406 232.765625 215.667969 232.308594 226.457031 C 232.253906 226.589844 232.125 226.675781 231.914062 226.707031 C 231.582031 226.585938 231.3125 226.527344 231.109375 226.527344 C 230.878906 226.527344 230.726562 226.601562 230.65625 226.753906 C 229.417969 228.285156 229.003906 229.269531 229.414062 229.707031 C 229.414062 229.800781 229.234375 229.847656 228.878906 229.847656 C 228.796875 229.847656 228.707031 229.847656 228.605469 229.839844 C 228.769531 230.246094 228.554688 230.554688 227.960938 230.773438 C 226.890625 231.042969 225.851562 231.175781 224.84375 231.175781 C 223.328125 231.175781 221.882812 230.871094 220.511719 230.257812 C 223.582031 228.25 225.5 225.96875 226.265625 223.414062 C 226.671875 222.722656 226.808594 220.535156 226.671875 216.859375 L 227.4375 214.632812 C 227.488281 214.148438 227.234375 213.113281 226.675781 211.523438 C 225.652344 208.5625 224.503906 206.574219 223.226562 205.554688 C 220.613281 203.589844 218.179688 201.429688 215.925781 199.078125 C 214.457031 197.925781 212.277344 197.09375 209.382812 196.578125 C 208.859375 196.335938 208.3125 195.582031 207.753906 194.320312 C 200.769531 194.511719 195.253906 194.925781 191.203125 195.558594 C 190.121094 195.738281 189.289062 195.9375 188.707031 196.160156 C 188.050781 196.351562 187.445312 196.746094 186.898438 197.347656 C 185.675781 197.507812 185.003906 197.734375 184.882812 198.027344 C 184.457031 198.398438 184.023438 199.128906 183.589844 200.21875 C 181.964844 205.515625 180.121094 210.496094 178.0625 215.15625 C 177.59375 216.53125 177.214844 219.976562 176.925781 225.488281 C 176.851562 225.457031 176.777344 225.445312 176.699219 225.445312 C 175.882812 225.445312 174.984375 227.15625 174.003906 230.582031 C 171.398438 231.371094 169.632812 231.847656 168.710938 232.011719 C 168.445312 232.078125 168.183594 232.113281 167.9375 232.113281 C 167.613281 232.113281 167.308594 232.054688 167.019531 231.9375 C 165.597656 231.273438 165.03125 230.746094 165.324219 230.355469 L 169.492188 226.566406 C 171.5 221.941406 172.578125 219.039062 172.734375 217.859375 C 173.148438 216.34375 172.992188 214.175781 172.269531 211.347656 C 172.902344 210.773438 173.222656 207.335938 173.230469 201.027344 C 172.160156 200.84375 171.589844 200.574219 171.515625 200.21875 C 165.144531 206.050781 162.261719 209.101562 162.867188 209.371094 C 162.507812 209.820312 162.847656 211.992188 163.886719 215.882812 C 164.785156 217.144531 165.113281 217.890625 164.875 218.117188 C 164.894531 218.113281 164.917969 218.109375 164.945312 218.109375 C 165.414062 218.109375 166.273438 219.042969 167.515625 220.90625 L 166.941406 225.984375 C 166.941406 226.144531 166.84375 226.242188 166.648438 226.269531 C 166.738281 226 164.375 223.742188 159.5625 219.496094 C 158.675781 218.578125 158.171875 217.726562 158.058594 216.941406 C 158.847656 213.222656 158.589844 209.4375 157.285156 205.582031 C 157.378906 204.976562 157.554688 204.371094 157.8125 203.761719 C 159.484375 200.914062 160.570312 198.460938 161.070312 196.398438 C 159.90625 196.550781 158.863281 196.628906 157.9375 196.628906 C 156.726562 196.628906 155.71875 196.5 154.90625 196.238281 C 153.207031 195.816406 150.96875 194.199219 148.183594 191.386719 L 146.230469 191.640625 L 145.371094 191.535156 L 144.917969 192.375 C 145.140625 194.117188 145.089844 195.273438 144.773438 195.847656 C 143.695312 197.996094 142.859375 199.074219 142.269531 199.085938 C 142.039062 200.621094 141.683594 201.5 141.195312 201.714844 C 140.710938 202.023438 140.296875 202.175781 139.953125 202.175781 C 139.9375 202.175781 139.921875 202.175781 139.90625 202.175781 C 139.882812 202.175781 139.859375 202.175781 139.835938 202.175781 C 139.292969 202.175781 138.753906 201.949219 138.210938 201.496094 C 136.496094 201.90625 135.105469 202.109375 134.046875 202.109375 C 133.207031 202.109375 132.570312 201.980469 132.144531 201.722656 C 131.792969 201.5625 131.417969 201.152344 131.019531 200.488281 C 129.574219 197.097656 128.335938 194.578125 127.304688 192.921875 C 126.707031 191.90625 125.535156 190.308594 123.792969 188.136719 C 122.046875 185.960938 120.84375 184.617188 120.171875 184.105469 C 119.714844 183.566406 118.804688 183.257812 117.441406 183.179688 C 117.15625 183.070312 116.902344 182.8125 116.683594 182.402344 C 116.226562 179.375 116.898438 176.832031 118.699219 174.773438 C 118.515625 174.59375 114.75 173.792969 107.40625 172.367188 C 106.308594 172.082031 105.277344 171.289062 104.308594 169.984375 C 104.304688 169.707031 104.375 169.570312 104.527344 169.570312 C 104.566406 169.570312 104.613281 169.578125 104.664062 169.597656 C 106.195312 170.128906 107.703125 170.394531 109.1875 170.394531 C 109.511719 170.394531 109.835938 170.378906 110.160156 170.355469 C 112.585938 170.203125 114.988281 169.832031 117.367188 169.246094 C 116.109375 168.292969 115.003906 167.585938 114.042969 167.125 C 109.796875 165.773438 107.105469 164.699219 105.972656 163.902344 C 104.265625 162.941406 103.207031 161.808594 102.792969 160.507812 L 102.921875 160.40625 L 106.785156 161.402344 C 114.554688 162.609375 118.898438 163.429688 119.808594 163.855469 C 121.816406 164.40625 123.683594 165.5625 125.40625 167.324219 C 133.535156 157.269531 139.332031 151.476562 142.800781 149.9375 L 148.847656 146.652344 L 159.496094 142.472656 C 163.394531 141.121094 166.792969 140.40625 169.691406 140.332031 C 170.058594 140.324219 170.425781 140.316406 170.785156 140.316406 C 173.964844 140.316406 176.847656 140.714844 179.429688 141.511719 L 187.097656 144.746094 L 196.175781 147.644531 L 201.746094 150.390625 C 202.945312 150.839844 204.214844 151.210938 205.558594 151.507812 C 215.164062 153.351562 223.414062 154.273438 230.316406 154.273438 C 230.894531 154.273438 231.464844 154.265625 232.023438 154.253906 C 232.9375 154.34375 233.917969 154.644531 234.976562 155.15625 C 236.296875 155.8125 237.542969 156.632812 238.707031 157.617188 C 241.324219 156.425781 243.339844 155.355469 244.753906 154.40625 C 247.265625 152.792969 249.023438 151.183594 250.03125 149.578125 C 250.9375 148.222656 251.269531 146.496094 251.019531 144.402344 C 250.714844 142.382812 250.453125 141.003906 250.230469 140.265625 C 250.050781 139.476562 249.421875 137.554688 248.339844 134.5 C 248.136719 133.800781 248.054688 133.410156 248.089844 133.324219 C 248.402344 131.976562 249.140625 131.21875 250.300781 131.058594 L 250.351562 131.058594 C 250.359375 131.058594 250.367188 131.058594 250.375 131.058594 Z M 250.375 131.058594 " fill-opacity="1" fill-rule="nonzero"/></g><g fill="#ffffff" fill-opacity="1"><g transform="translate(107.579494, 270.130011)"><g><path d="M 6.234375 0.15625 C 4.347656 0.15625 2.738281 0.0507812 1.40625 -0.15625 L 1.40625 -2.4375 C 2.96875 -2.28125 4.304688 -2.203125 5.421875 -2.203125 C 6.078125 -2.203125 6.585938 -2.226562 6.953125 -2.28125 C 7.316406 -2.34375 7.585938 -2.445312 7.765625 -2.59375 C 7.929688 -2.71875 8.035156 -2.867188 8.078125 -3.046875 C 8.117188 -3.222656 8.140625 -3.476562 8.140625 -3.8125 C 8.140625 -4.1875 8.113281 -4.457031 8.0625 -4.625 C 8.019531 -4.800781 7.921875 -4.929688 7.765625 -5.015625 C 7.609375 -5.097656 7.351562 -5.160156 7 -5.203125 L 4.171875 -5.515625 C 3.335938 -5.628906 2.6875 -5.847656 2.21875 -6.171875 C 1.757812 -6.503906 1.441406 -6.925781 1.265625 -7.4375 C 1.097656 -7.957031 1.015625 -8.601562 1.015625 -9.375 C 1.015625 -10.5 1.21875 -11.351562 1.625 -11.9375 C 2.039062 -12.519531 2.59375 -12.898438 3.28125 -13.078125 C 3.96875 -13.253906 4.851562 -13.34375 5.9375 -13.34375 C 7.613281 -13.34375 9.046875 -13.210938 10.234375 -12.953125 L 10.234375 -10.734375 C 8.992188 -10.898438 7.75 -10.984375 6.5 -10.984375 C 5.351562 -10.984375 4.59375 -10.890625 4.21875 -10.703125 C 4.007812 -10.597656 3.878906 -10.460938 3.828125 -10.296875 C 3.773438 -10.128906 3.75 -9.878906 3.75 -9.546875 C 3.75 -9.160156 3.773438 -8.882812 3.828125 -8.71875 C 3.878906 -8.550781 3.988281 -8.429688 4.15625 -8.359375 C 4.332031 -8.296875 4.628906 -8.238281 5.046875 -8.1875 L 8.078125 -7.828125 C 8.660156 -7.753906 9.144531 -7.628906 9.53125 -7.453125 C 9.914062 -7.285156 10.210938 -7.003906 10.421875 -6.609375 C 10.734375 -6.066406 10.890625 -5.21875 10.890625 -4.0625 C 10.890625 -2.851562 10.695312 -1.941406 10.3125 -1.328125 C 9.925781 -0.710938 9.410156 -0.3125 8.765625 -0.125 C 8.117188 0.0625 7.273438 0.15625 6.234375 0.15625 Z M 6.234375 0.15625 "/></g></g></g><g fill="#ffffff" fill-opacity="1"><g transform="translate(122.680168, 270.130011)"><g><path d="M 4.21875 0 L 4.21875 -10.71875 L 0.390625 -10.71875 L 0.390625 -13.1875 L 10.78125 -13.1875 L 10.78125 -10.71875 L 6.9375 -10.71875 L 6.9375 0 Z M 4.21875 0 "/></g></g></g><g fill="#ffffff" fill-opacity="1"><g transform="translate(137.014425, 270.130011)"><g><path d="M 1.59375 0 L 1.59375 -13.1875 L 10.65625 -13.1875 L 10.65625 -10.828125 L 4.3125 -10.828125 L 4.3125 -7.84375 L 9.765625 -7.84375 L 9.765625 -5.484375 L 4.3125 -5.484375 L 4.3125 -2.359375 L 10.65625 -2.359375 L 10.65625 0 Z M 1.59375 0 "/></g></g></g><g fill="#ffffff" fill-opacity="1"><g transform="translate(151.923498, 270.130011)"><g><path d="M 10.0625 0 L 9.109375 -2.84375 L 3.96875 -2.84375 L 3.03125 0 L 0.28125 0 L 4.75 -13.1875 L 8.421875 -13.1875 L 12.890625 0 Z M 6.578125 -10.625 L 6.484375 -10.625 L 4.703125 -5.21875 L 8.375 -5.21875 Z M 6.578125 -10.625 "/></g></g></g><g fill="#ffffff" fill-opacity="1"><g transform="translate(168.269614, 270.130011)"><g><path d="M 9.640625 0 L 5.640625 -5.546875 L 4.3125 -5.546875 L 4.3125 0 L 1.59375 0 L 1.59375 -13.1875 L 4.3125 -13.1875 L 4.3125 -7.90625 L 5.640625 -7.90625 L 9.71875 -13.1875 L 12.734375 -13.1875 L 7.828125 -6.90625 L 12.78125 0 Z M 9.640625 0 "/></g></g></g><g fill="#ffffff" fill-opacity="1"><g transform="translate(184.46244, 270.130011)"><g><path d="M 9.515625 0 L 9.515625 -5.40625 L 4.296875 -5.40625 L 4.296875 0 L 1.578125 0 L 1.578125 -13.1875 L 4.296875 -13.1875 L 4.296875 -7.859375 L 9.515625 -7.859375 L 9.515625 -13.1875 L 12.25 -13.1875 L 12.25 0 Z M 9.515625 0 "/></g></g></g><g fill="#ffffff" fill-opacity="1"><g transform="translate(201.440849, 270.130011)"><g><path d="M 6.78125 0.15625 C 4.976562 0.15625 3.691406 -0.0351562 2.921875 -0.421875 C 2.160156 -0.804688 1.679688 -1.429688 1.484375 -2.296875 C 1.285156 -3.171875 1.1875 -4.601562 1.1875 -6.59375 C 1.1875 -8.59375 1.285156 -10.023438 1.484375 -10.890625 C 1.679688 -11.753906 2.160156 -12.378906 2.921875 -12.765625 C 3.691406 -13.148438 4.976562 -13.34375 6.78125 -13.34375 C 8.582031 -13.34375 9.867188 -13.148438 10.640625 -12.765625 C 11.421875 -12.378906 11.910156 -11.753906 12.109375 -10.890625 C 12.304688 -10.023438 12.40625 -8.59375 12.40625 -6.59375 C 12.40625 -4.601562 12.304688 -3.171875 12.109375 -2.296875 C 11.910156 -1.429688 11.421875 -0.804688 10.640625 -0.421875 C 9.867188 -0.0351562 8.582031 0.15625 6.78125 0.15625 Z M 6.78125 -2.203125 C 7.789062 -2.203125 8.472656 -2.269531 8.828125 -2.40625 C 9.179688 -2.550781 9.40625 -2.894531 9.5 -3.4375 C 9.59375 -3.976562 9.640625 -5.03125 9.640625 -6.59375 C 9.640625 -8.15625 9.59375 -9.207031 9.5 -9.75 C 9.40625 -10.289062 9.179688 -10.628906 8.828125 -10.765625 C 8.472656 -10.910156 7.789062 -10.984375 6.78125 -10.984375 C 5.769531 -10.984375 5.09375 -10.910156 4.75 -10.765625 C 4.40625 -10.628906 4.179688 -10.285156 4.078125 -9.734375 C 3.984375 -9.191406 3.9375 -8.144531 3.9375 -6.59375 C 3.9375 -5.050781 3.984375 -4.003906 4.078125 -3.453125 C 4.179688 -2.898438 4.40625 -2.550781 4.75 -2.40625 C 5.09375 -2.269531 5.769531 -2.203125 6.78125 -2.203125 Z M 6.78125 -2.203125 "/></g></g></g><g fill="#ffffff" fill-opacity="1"><g transform="translate(218.208484, 270.130011)"><g><path d="M 11.875 -13.1875 L 11.875 -5.90625 C 11.875 -4.15625 11.757812 -2.875 11.53125 -2.0625 C 11.3125 -1.25 10.84375 -0.675781 10.125 -0.34375 C 9.40625 -0.0078125 8.253906 0.15625 6.671875 0.15625 C 5.085938 0.15625 3.9375 -0.0078125 3.21875 -0.34375 C 2.5 -0.675781 2.023438 -1.25 1.796875 -2.0625 C 1.566406 -2.875 1.453125 -4.15625 1.453125 -5.90625 L 1.453125 -13.1875 L 4.171875 -13.1875 L 4.171875 -5.21875 C 4.171875 -4.226562 4.21875 -3.539062 4.3125 -3.15625 C 4.40625 -2.78125 4.613281 -2.519531 4.9375 -2.375 C 5.269531 -2.238281 5.847656 -2.171875 6.671875 -2.171875 C 7.503906 -2.171875 8.082031 -2.238281 8.40625 -2.375 C 8.726562 -2.519531 8.929688 -2.78125 9.015625 -3.15625 C 9.097656 -3.539062 9.140625 -4.226562 9.140625 -5.21875 L 9.140625 -13.1875 Z M 11.875 -13.1875 "/></g></g></g><g fill="#ffffff" fill-opacity="1"><g transform="translate(234.727052, 270.130011)"><g><path d="M 6.234375 0.15625 C 4.347656 0.15625 2.738281 0.0507812 1.40625 -0.15625 L 1.40625 -2.4375 C 2.96875 -2.28125 4.304688 -2.203125 5.421875 -2.203125 C 6.078125 -2.203125 6.585938 -2.226562 6.953125 -2.28125 C 7.316406 -2.34375 7.585938 -2.445312 7.765625 -2.59375 C 7.929688 -2.71875 8.035156 -2.867188 8.078125 -3.046875 C 8.117188 -3.222656 8.140625 -3.476562 8.140625 -3.8125 C 8.140625 -4.1875 8.113281 -4.457031 8.0625 -4.625 C 8.019531 -4.800781 7.921875 -4.929688 7.765625 -5.015625 C 7.609375 -5.097656 7.351562 -5.160156 7 -5.203125 L 4.171875 -5.515625 C 3.335938 -5.628906 2.6875 -5.847656 2.21875 -6.171875 C 1.757812 -6.503906 1.441406 -6.925781 1.265625 -7.4375 C 1.097656 -7.957031 1.015625 -8.601562 1.015625 -9.375 C 1.015625 -10.5 1.21875 -11.351562 1.625 -11.9375 C 2.039062 -12.519531 2.59375 -12.898438 3.28125 -13.078125 C 3.96875 -13.253906 4.851562 -13.34375 5.9375 -13.34375 C 7.613281 -13.34375 9.046875 -13.210938 10.234375 -12.953125 L 10.234375 -10.734375 C 8.992188 -10.898438 7.75 -10.984375 6.5 -10.984375 C 5.351562 -10.984375 4.59375 -10.890625 4.21875 -10.703125 C 4.007812 -10.597656 3.878906 -10.460938 3.828125 -10.296875 C 3.773438 -10.128906 3.75 -9.878906 3.75 -9.546875 C 3.75 -9.160156 3.773438 -8.882812 3.828125 -8.71875 C 3.878906 -8.550781 3.988281 -8.429688 4.15625 -8.359375 C 4.332031 -8.296875 4.628906 -8.238281 5.046875 -8.1875 L 8.078125 -7.828125 C 8.660156 -7.753906 9.144531 -7.628906 9.53125 -7.453125 C 9.914062 -7.285156 10.210938 -7.003906 10.421875 -6.609375 C 10.734375 -6.066406 10.890625 -5.21875 10.890625 -4.0625 C 10.890625 -2.851562 10.695312 -1.941406 10.3125 -1.328125 C 9.925781 -0.710938 9.410156 -0.3125 8.765625 -0.125 C 8.117188 0.0625 7.273438 0.15625 6.234375 0.15625 Z M 6.234375 0.15625 "/></g></g></g><g fill="#ffffff" fill-opacity="1"><g transform="translate(249.82772, 270.130011)"><g><path d="M 1.59375 0 L 1.59375 -13.1875 L 10.65625 -13.1875 L 10.65625 -10.828125 L 4.3125 -10.828125 L 4.3125 -7.84375 L 9.765625 -7.84375 L 9.765625 -5.484375 L 4.3125 -5.484375 L 4.3125 -2.359375 L 10.65625 -2.359375 L 10.65625 0 Z M 1.59375 0 "/></g></g></g><g fill="#ffffff" fill-opacity="1"><g transform="translate(160.188333, 303.346531)"><g><path d="M 0.59375 -8.890625 L 3.09375 -8.890625 C 4.039062 -8.890625 4.710938 -8.757812 5.109375 -8.5 C 5.515625 -8.238281 5.765625 -7.828125 5.859375 -7.265625 C 5.953125 -6.703125 6 -5.757812 6 -4.4375 C 6 -3.132812 5.953125 -2.195312 5.859375 -1.625 C 5.765625 -1.0625 5.515625 -0.648438 5.109375 -0.390625 C 4.710938 -0.128906 4.039062 0 3.09375 0 L 0.59375 0 Z M 3.09375 -1.765625 C 3.394531 -1.765625 3.59375 -1.804688 3.6875 -1.890625 C 3.789062 -1.972656 3.859375 -2.175781 3.890625 -2.5 C 3.921875 -2.832031 3.9375 -3.476562 3.9375 -4.4375 C 3.9375 -5.394531 3.921875 -6.039062 3.890625 -6.375 C 3.859375 -6.707031 3.789062 -6.914062 3.6875 -7 C 3.59375 -7.082031 3.394531 -7.125 3.09375 -7.125 L 2.65625 -7.125 L 2.65625 -1.765625 Z M 3.09375 -1.765625 "/></g></g></g><g fill="#ffffff" fill-opacity="1"><g transform="translate(166.623065, 303.346531)"><g><path d="M 0.59375 0 L 0.59375 -8.890625 L 5.03125 -8.890625 L 5.03125 -7.125 L 2.65625 -7.125 L 2.65625 -5.375 L 4.703125 -5.375 L 4.703125 -3.609375 L 2.65625 -3.609375 L 2.65625 -1.765625 L 5.03125 -1.765625 L 5.03125 0 Z M 0.59375 0 "/></g></g></g><g fill="#ffffff" fill-opacity="1"><g transform="translate(172.101627, 303.346531)"><g><path d="M 2.875 0.109375 C 2.476562 0.109375 2.0625 0.0820312 1.625 0.03125 C 1.195312 -0.0078125 0.820312 -0.0625 0.5 -0.125 L 0.5 -1.75 C 1.289062 -1.695312 1.890625 -1.671875 2.296875 -1.671875 C 2.578125 -1.671875 2.785156 -1.679688 2.921875 -1.703125 C 3.066406 -1.722656 3.171875 -1.769531 3.234375 -1.84375 C 3.296875 -1.90625 3.332031 -1.988281 3.34375 -2.09375 C 3.363281 -2.195312 3.375 -2.347656 3.375 -2.546875 C 3.375 -2.828125 3.359375 -3.023438 3.328125 -3.140625 C 3.296875 -3.265625 3.226562 -3.351562 3.125 -3.40625 C 3.019531 -3.46875 2.84375 -3.519531 2.59375 -3.5625 L 1.46875 -3.765625 C 1.039062 -3.835938 0.742188 -4.082031 0.578125 -4.5 C 0.421875 -4.914062 0.34375 -5.503906 0.34375 -6.265625 C 0.34375 -7.023438 0.453125 -7.601562 0.671875 -8 C 0.898438 -8.394531 1.203125 -8.660156 1.578125 -8.796875 C 1.953125 -8.929688 2.4375 -9 3.03125 -9 C 3.675781 -9 4.367188 -8.921875 5.109375 -8.765625 L 5.109375 -7.140625 C 4.671875 -7.191406 4.148438 -7.21875 3.546875 -7.21875 C 3.242188 -7.21875 3.023438 -7.207031 2.890625 -7.1875 C 2.753906 -7.175781 2.648438 -7.140625 2.578125 -7.078125 C 2.515625 -7.023438 2.46875 -6.941406 2.4375 -6.828125 C 2.414062 -6.722656 2.40625 -6.5625 2.40625 -6.34375 C 2.40625 -6.113281 2.414062 -5.945312 2.4375 -5.84375 C 2.457031 -5.738281 2.503906 -5.660156 2.578125 -5.609375 C 2.648438 -5.566406 2.773438 -5.523438 2.953125 -5.484375 L 4 -5.296875 C 4.289062 -5.234375 4.535156 -5.140625 4.734375 -5.015625 C 4.941406 -4.890625 5.109375 -4.671875 5.234375 -4.359375 C 5.367188 -3.992188 5.4375 -3.488281 5.4375 -2.84375 C 5.4375 -1.988281 5.332031 -1.347656 5.125 -0.921875 C 4.914062 -0.492188 4.632812 -0.210938 4.28125 -0.078125 C 3.925781 0.046875 3.457031 0.109375 2.875 0.109375 Z M 2.875 0.109375 "/></g></g></g><g fill="#ffffff" fill-opacity="1"><g transform="translate(177.864459, 303.346531)"><g><path d="M 0.59375 -8.890625 L 3.09375 -8.890625 C 4.039062 -8.890625 4.710938 -8.757812 5.109375 -8.5 C 5.515625 -8.238281 5.765625 -7.828125 5.859375 -7.265625 C 5.953125 -6.703125 6 -5.757812 6 -4.4375 C 6 -3.132812 5.953125 -2.195312 5.859375 -1.625 C 5.765625 -1.0625 5.515625 -0.648438 5.109375 -0.390625 C 4.710938 -0.128906 4.039062 0 3.09375 0 L 0.59375 0 Z M 3.09375 -1.765625 C 3.394531 -1.765625 3.59375 -1.804688 3.6875 -1.890625 C 3.789062 -1.972656 3.859375 -2.175781 3.890625 -2.5 C 3.921875 -2.832031 3.9375 -3.476562 3.9375 -4.4375 C 3.9375 -5.394531 3.921875 -6.039062 3.890625 -6.375 C 3.859375 -6.707031 3.789062 -6.914062 3.6875 -7 C 3.59375 -7.082031 3.394531 -7.125 3.09375 -7.125 L 2.65625 -7.125 L 2.65625 -1.765625 Z M 3.09375 -1.765625 "/></g></g></g><g fill="#ffffff" fill-opacity="1"><g transform="translate(184.299191, 303.346531)"><g><path d="M 0.59375 0 L 0.59375 -8.890625 L 5.03125 -8.890625 L 5.03125 -7.125 L 2.65625 -7.125 L 2.65625 -5.375 L 4.703125 -5.375 L 4.703125 -3.609375 L 2.65625 -3.609375 L 2.65625 -1.765625 L 5.03125 -1.765625 L 5.03125 0 Z M 0.59375 0 "/></g></g></g><g fill="#ffffff" fill-opacity="1"><g transform="translate(189.777753, 303.346531)"><g/></g></g><g fill="#ffffff" fill-opacity="1"><g transform="translate(192.077722, 303.346531)"><g><path d="M 1.453125 0 L 1.453125 -6.625 L 0.15625 -6.109375 L 0.15625 -7.9375 L 1.984375 -8.890625 L 3.515625 -8.890625 L 3.515625 0 Z M 1.453125 0 "/></g></g></g><g fill="#ffffff" fill-opacity="1"><g transform="translate(196.199567, 303.346531)"><g><path d="M 2.734375 0.109375 C 2.441406 0.109375 2.101562 0.0820312 1.71875 0.03125 C 1.34375 -0.0195312 0.992188 -0.0859375 0.671875 -0.171875 L 0.671875 -1.78125 C 1.335938 -1.695312 1.898438 -1.65625 2.359375 -1.65625 C 2.785156 -1.65625 3.082031 -1.703125 3.25 -1.796875 C 3.425781 -1.890625 3.539062 -2.070312 3.59375 -2.34375 C 3.644531 -2.625 3.671875 -3.109375 3.671875 -3.796875 L 3.5625 -3.796875 C 3.488281 -3.628906 3.335938 -3.484375 3.109375 -3.359375 C 2.890625 -3.242188 2.609375 -3.1875 2.265625 -3.1875 C 1.816406 -3.1875 1.457031 -3.25 1.1875 -3.375 C 0.925781 -3.5 0.722656 -3.753906 0.578125 -4.140625 C 0.441406 -4.523438 0.375 -5.097656 0.375 -5.859375 C 0.375 -6.671875 0.441406 -7.296875 0.578125 -7.734375 C 0.722656 -8.179688 0.976562 -8.503906 1.34375 -8.703125 C 1.71875 -8.898438 2.257812 -9 2.96875 -9 C 3.5 -9 3.921875 -8.957031 4.234375 -8.875 C 4.546875 -8.800781 4.800781 -8.65625 5 -8.4375 C 5.207031 -8.21875 5.363281 -7.898438 5.46875 -7.484375 C 5.632812 -6.859375 5.71875 -5.84375 5.71875 -4.4375 C 5.71875 -3.019531 5.597656 -1.992188 5.359375 -1.359375 C 5.160156 -0.828125 4.859375 -0.445312 4.453125 -0.21875 C 4.046875 0 3.472656 0.109375 2.734375 0.109375 Z M 3.015625 -4.9375 C 3.222656 -4.9375 3.367188 -4.957031 3.453125 -5 C 3.535156 -5.050781 3.585938 -5.144531 3.609375 -5.28125 C 3.640625 -5.425781 3.65625 -5.675781 3.65625 -6.03125 C 3.65625 -6.425781 3.632812 -6.707031 3.59375 -6.875 C 3.5625 -7.050781 3.503906 -7.160156 3.421875 -7.203125 C 3.335938 -7.242188 3.203125 -7.265625 3.015625 -7.265625 C 2.816406 -7.265625 2.671875 -7.242188 2.578125 -7.203125 C 2.492188 -7.160156 2.4375 -7.0625 2.40625 -6.90625 C 2.375 -6.75 2.359375 -6.476562 2.359375 -6.09375 C 2.359375 -5.71875 2.375 -5.445312 2.40625 -5.28125 C 2.4375 -5.125 2.492188 -5.023438 2.578125 -4.984375 C 2.660156 -4.953125 2.804688 -4.9375 3.015625 -4.9375 Z M 3.015625 -4.9375 "/></g></g></g><g fill="#ffffff" fill-opacity="1"><g transform="translate(202.33711, 303.346531)"><g><path d="M 2.734375 0.109375 C 2.441406 0.109375 2.101562 0.0820312 1.71875 0.03125 C 1.34375 -0.0195312 0.992188 -0.0859375 0.671875 -0.171875 L 0.671875 -1.78125 C 1.335938 -1.695312 1.898438 -1.65625 2.359375 -1.65625 C 2.785156 -1.65625 3.082031 -1.703125 3.25 -1.796875 C 3.425781 -1.890625 3.539062 -2.070312 3.59375 -2.34375 C 3.644531 -2.625 3.671875 -3.109375 3.671875 -3.796875 L 3.5625 -3.796875 C 3.488281 -3.628906 3.335938 -3.484375 3.109375 -3.359375 C 2.890625 -3.242188 2.609375 -3.1875 2.265625 -3.1875 C 1.816406 -3.1875 1.457031 -3.25 1.1875 -3.375 C 0.925781 -3.5 0.722656 -3.753906 0.578125 -4.140625 C 0.441406 -4.523438 0.375 -5.097656 0.375 -5.859375 C 0.375 -6.671875 0.441406 -7.296875 0.578125 -7.734375 C 0.722656 -8.179688 0.976562 -8.503906 1.34375 -8.703125 C 1.71875 -8.898438 2.257812 -9 2.96875 -9 C 3.5 -9 3.921875 -8.957031 4.234375 -8.875 C 4.546875 -8.800781 4.800781 -8.65625 5 -8.4375 C 5.207031 -8.21875 5.363281 -7.898438 5.46875 -7.484375 C 5.632812 -6.859375 5.71875 -5.84375 5.71875 -4.4375 C 5.71875 -3.019531 5.597656 -1.992188 5.359375 -1.359375 C 5.160156 -0.828125 4.859375 -0.445312 4.453125 -0.21875 C 4.046875 0 3.472656 0.109375 2.734375 0.109375 Z M 3.015625 -4.9375 C 3.222656 -4.9375 3.367188 -4.957031 3.453125 -5 C 3.535156 -5.050781 3.585938 -5.144531 3.609375 -5.28125 C 3.640625 -5.425781 3.65625 -5.675781 3.65625 -6.03125 C 3.65625 -6.425781 3.632812 -6.707031 3.59375 -6.875 C 3.5625 -7.050781 3.503906 -7.160156 3.421875 -7.203125 C 3.335938 -7.242188 3.203125 -7.265625 3.015625 -7.265625 C 2.816406 -7.265625 2.671875 -7.242188 2.578125 -7.203125 C 2.492188 -7.160156 2.4375 -7.0625 2.40625 -6.90625 C 2.375 -6.75 2.359375 -6.476562 2.359375 -6.09375 C 2.359375 -5.71875 2.375 -5.445312 2.40625 -5.28125 C 2.4375 -5.125 2.492188 -5.023438 2.578125 -4.984375 C 2.660156 -4.953125 2.804688 -4.9375 3.015625 -4.9375 Z M 3.015625 -4.9375 "/></g></g></g><g fill="#ffffff" fill-opacity="1"><g transform="translate(208.474653, 303.346531)"><g><path d="M 3.171875 0.109375 C 2.472656 0.109375 1.925781 0.0234375 1.53125 -0.140625 C 1.132812 -0.304688 0.847656 -0.566406 0.671875 -0.921875 C 0.492188 -1.273438 0.40625 -1.75 0.40625 -2.34375 C 0.40625 -3.039062 0.503906 -3.546875 0.703125 -3.859375 C 0.910156 -4.179688 1.234375 -4.398438 1.671875 -4.515625 L 1.671875 -4.5625 C 1.265625 -4.675781 0.960938 -4.898438 0.765625 -5.234375 C 0.578125 -5.566406 0.484375 -6.050781 0.484375 -6.6875 C 0.484375 -7.28125 0.570312 -7.738281 0.75 -8.0625 C 0.9375 -8.394531 1.222656 -8.632812 1.609375 -8.78125 C 2.003906 -8.925781 2.523438 -9 3.171875 -9 C 3.804688 -9 4.316406 -8.925781 4.703125 -8.78125 C 5.085938 -8.632812 5.375 -8.394531 5.5625 -8.0625 C 5.75 -7.738281 5.84375 -7.28125 5.84375 -6.6875 C 5.84375 -6.050781 5.742188 -5.566406 5.546875 -5.234375 C 5.359375 -4.898438 5.0625 -4.675781 4.65625 -4.5625 L 4.65625 -4.515625 C 5.09375 -4.398438 5.410156 -4.179688 5.609375 -3.859375 C 5.816406 -3.546875 5.921875 -3.039062 5.921875 -2.34375 C 5.921875 -1.75 5.832031 -1.273438 5.65625 -0.921875 C 5.476562 -0.566406 5.1875 -0.304688 4.78125 -0.140625 C 4.382812 0.0234375 3.847656 0.109375 3.171875 0.109375 Z M 3.171875 -5.28125 C 3.367188 -5.28125 3.507812 -5.300781 3.59375 -5.34375 C 3.6875 -5.382812 3.742188 -5.46875 3.765625 -5.59375 C 3.796875 -5.726562 3.8125 -5.960938 3.8125 -6.296875 C 3.8125 -6.628906 3.796875 -6.863281 3.765625 -7 C 3.742188 -7.132812 3.6875 -7.21875 3.59375 -7.25 C 3.507812 -7.289062 3.367188 -7.3125 3.171875 -7.3125 C 2.953125 -7.3125 2.796875 -7.289062 2.703125 -7.25 C 2.617188 -7.21875 2.5625 -7.132812 2.53125 -7 C 2.507812 -6.863281 2.5 -6.628906 2.5 -6.296875 C 2.5 -5.960938 2.507812 -5.726562 2.53125 -5.59375 C 2.5625 -5.46875 2.617188 -5.382812 2.703125 -5.34375 C 2.796875 -5.300781 2.953125 -5.28125 3.171875 -5.28125 Z M 3.171875 -1.578125 C 3.367188 -1.578125 3.515625 -1.597656 3.609375 -1.640625 C 3.703125 -1.679688 3.765625 -1.769531 3.796875 -1.90625 C 3.828125 -2.050781 3.84375 -2.289062 3.84375 -2.625 C 3.84375 -2.96875 3.828125 -3.207031 3.796875 -3.34375 C 3.765625 -3.488281 3.703125 -3.582031 3.609375 -3.625 C 3.515625 -3.675781 3.367188 -3.703125 3.171875 -3.703125 C 2.953125 -3.703125 2.796875 -3.675781 2.703125 -3.625 C 2.617188 -3.582031 2.5625 -3.488281 2.53125 -3.34375 C 2.5 -3.207031 2.484375 -2.96875 2.484375 -2.625 C 2.484375 -2.289062 2.5 -2.050781 2.53125 -1.90625 C 2.5625 -1.769531 2.625 -1.679688 2.71875 -1.640625 C 2.8125 -1.597656 2.960938 -1.578125 3.171875 -1.578125 Z M 3.171875 -1.578125 "/></g></g></g></svg>