<svg xmlns="http://www.w3.org/2000/svg" xmlns:xlink="http://www.w3.org/1999/xlink" width="1920" zoomAndPan="magnify" viewBox="0 0 1440 809.999993" height="1080" preserveAspectRatio="xMidYMid meet" version="1.0"><defs><clipPath id="744fcf1bec"><path d="M -136.773438 627.261719 L 1290.535156 -261.6875 L 1576.808594 197.953125 L 149.496094 1086.902344 Z M -136.773438 627.261719 " clip-rule="nonzero"/></clipPath><clipPath id="8207055494"><path d="M -136.773438 627.261719 L 1290.535156 -261.6875 L 1576.808594 197.953125 L 149.496094 1086.902344 Z M -136.773438 627.261719 " clip-rule="nonzero"/></clipPath><clipPath id="b14347e1de"><path d="M 1060.453125 296.1875 C 990.660156 339.65625 803.828125 348.136719 700.371094 352.636719 C 677.980469 353.621094 658.800781 354.554688 644.808594 355.492188 C 563.589844 361.371094 532.949219 399.566406 493.757812 447.949219 C 458.210938 491.792969 417.910156 541.515625 329.03125 580.347656 C 263.660156 609.074219 220.933594 586.765625 179.867188 565.042969 C 150.421875 550.015625 122.871094 535.425781 87.738281 538.839844 C -4.882812 548.253906 -21.148438 605.363281 -36.976562 660.574219 C -44.773438 688.109375 -52.21875 714.128906 -68.574219 734.679688 L -70.292969 733.484375 C -54.40625 713.21875 -46.960938 687.203125 -39.25 660.046875 C -23.101562 604.308594 -6.425781 546.300781 87.421875 536.769531 C 123.019531 533.066406 151.09375 547.976562 180.6875 563.238281 C 221.460938 584.492188 263.664062 606.480469 328.101562 578.335938 C 416.511719 539.792969 456.582031 490.214844 491.894531 446.519531 C 529.742188 399.617188 562.425781 359.503906 644.488281 353.421875 C 658.335938 352.25 677.664062 351.550781 700.054688 350.566406 C 810.625 345.523438 1016.023438 336.167969 1071.632812 285.011719 C 1083.574219 274.011719 1096.125 262.957031 1109.230469 251.230469 C 1168.867188 198.210938 1236.734375 138.125 1266.253906 69.527344 C 1269.296875 62.449219 1272.105469 55.515625 1275.148438 48.4375 C 1300.660156 -11.511719 1326.613281 -73.355469 1380.53125 -106.9375 C 1381.234375 -107.375 1381.933594 -107.808594 1382.867188 -108.390625 L 1384.03125 -106.523438 C 1383.328125 -106.089844 1382.628906 -105.652344 1381.929688 -105.214844 C 1328.476562 -71.925781 1302.609375 -10.460938 1277.566406 49.199219 C 1274.523438 56.277344 1271.714844 63.210938 1268.671875 70.289062 C 1238.828125 139.414062 1170.964844 199.5 1111.238281 252.894531 C 1098.132812 264.621094 1085.582031 275.675781 1073.640625 286.675781 C 1069.5 289.90625 1065.355469 293.132812 1060.453125 296.1875 Z M 1032.332031 309.8125 C 1039.886719 304.785156 1047.679688 299.605469 1055.703125 294.285156 C 1137.113281 240.339844 1229.207031 179.097656 1273.890625 86.472656 C 1281.144531 71.589844 1287.902344 55.394531 1294.488281 39.953125 C 1317.277344 -13.441406 1340.742188 -68.875 1388.128906 -98.386719 C 1388.359375 -98.53125 1388.59375 -98.675781 1388.828125 -98.820312 L 1387.664062 -100.6875 C 1387.429688 -100.542969 1387.199219 -100.398438 1386.964844 -100.253906 C 1338.878906 -70.304688 1315.414062 -14.871094 1292.535156 38.902344 C 1285.953125 54.339844 1279.046875 70.304688 1271.941406 85.421875 C 1227.578125 177.523438 1135.484375 238.765625 1054.539062 292.417969 C 1046.515625 297.738281 1038.726562 302.914062 1031.167969 307.945312 C 1029.765625 308.820312 1028.601562 309.546875 1027.199219 310.417969 C 945.734375 361.15625 724.921875 385.292969 640.695312 394.664062 L 639.703125 394.632812 C 561.6875 403.050781 524.464844 439.515625 481.722656 481.6875 C 443.390625 519.492188 400.183594 561.953125 317.871094 595.722656 C 258.046875 620.347656 217.242188 600.082031 177.484375 580.460938 C 148.328125 565.898438 120.746094 552.300781 86.515625 556.125 C -2.316406 566.417969 -17.011719 624.492188 -31.121094 680.902344 C -37.75 707.707031 -44.261719 733.144531 -58.519531 752.390625 L -56.800781 753.585938 C -42.222656 733.820312 -35.945312 708.527344 -29.082031 681.574219 C -15.148438 625.921875 -0.628906 568.609375 87.125 558.660156 C 120.828125 554.515625 148.175781 568.257812 177.1875 582.585938 C 217.089844 602.441406 258.421875 623.027344 319.179688 597.824219 C 401.722656 563.90625 445.253906 520.921875 483.730469 483.351562 C 526.238281 441.324219 562.996094 405.152344 640.398438 396.789062 L 641.390625 396.820312 C 725.617188 387.453125 946.808594 363.402344 1028.742188 312.375 C 1029.910156 311.648438 1031.308594 310.773438 1032.332031 309.8125 Z M 1279.726562 102.601562 C 1290.105469 82.855469 1298.707031 61.300781 1307.515625 40.585938 C 1328.554688 -10.417969 1350.175781 -63.085938 1394.382812 -90.941406 L 1393.21875 -92.808594 C 1348.3125 -64.519531 1326.457031 -11.707031 1305.332031 39.679688 C 1296.902344 60.480469 1287.921875 81.949219 1277.773438 101.550781 C 1216.054688 219.363281 1098.023438 277.96875 993.792969 329.605469 L 990.613281 331.261719 C 900.703125 376.242188 717.078125 424.195312 634.828125 436.222656 C 560.859375 446.976562 519.417969 479.269531 471.640625 516.472656 C 430.664062 548.472656 384.144531 584.574219 307.929688 613.574219 C 252.574219 634.445312 213.164062 615.902344 174.800781 598.003906 C 145.996094 584.519531 118.847656 571.625 86.136719 575.796875 C 1.179688 586.597656 -12.003906 647.613281 -23.605469 701.8125 C -28.921875 728.125 -34.265625 752.835938 -46.886719 771.0625 L -45.167969 772.261719 C -32.316406 753.890625 -26.882812 728.800781 -21.332031 702.339844 C -9.292969 646.246094 3.1875 588.261719 86.6875 577.722656 C 118.554688 573.75 145.554688 586.414062 174.214844 599.664062 C 212.722656 617.796875 252.890625 636.515625 308.949219 615.210938 C 385.394531 586.0625 432.148438 549.816406 473.125 517.816406 C 520.667969 480.757812 561.875 448.609375 635.234375 437.914062 C 717.480469 425.886719 901.34375 377.789062 991.484375 332.660156 L 994.664062 331.003906 C 1035.273438 310.898438 1078.125 289.714844 1118.742188 264.417969 C 1182.84375 224.820312 1241.777344 174.832031 1279.726562 102.601562 Z M 1285.558594 118.730469 C 1298.246094 95.925781 1308.285156 69.914062 1318.058594 45.035156 C 1338.371094 -7.140625 1357.601562 -56.371094 1399.648438 -83.53125 L 1398.484375 -85.398438 C 1379.253906 -73.097656 1363.050781 -54.90625 1348.753906 -29.480469 C 1335.921875 -6.910156 1325.882812 19.105469 1316.253906 44.214844 C 1306.480469 69.09375 1296.527344 94.730469 1283.839844 117.535156 C 1210.234375 249.550781 1084.222656 304.707031 950.527344 354.285156 C 915.175781 367.230469 875.417969 384.539062 833.503906 402.546875 C 759.648438 434.289062 683.3125 467.253906 630.507812 477.140625 C 561.433594 490.03125 515.710938 517.535156 462.757812 549.542969 C 419.050781 576.117188 369.128906 606.238281 298.402344 630.523438 C 247.65625 647.875 209.640625 631.054688 172.675781 614.878906 C 144.128906 602.851562 117.332031 591.035156 86.222656 595.183594 C 5.519531 606.570312 -5.480469 668.496094 -15.183594 723.132812 C -19.714844 748.632812 -24.125 772.761719 -34.878906 789.824219 L -33.160156 791.023438 C -21.941406 773.667969 -17.675781 749.304688 -12.914062 723.664062 C -3.148438 669.636719 7.671875 608.46875 86.917969 597.339844 C 117.414062 593.25 144.066406 604.835938 172.292969 617.382812 C 209.40625 633.796875 248.175781 650.792969 299.390625 633.148438 C 370.347656 608.71875 420.269531 578.597656 464.210938 551.878906 C 516.933594 520.015625 562.273438 492.421875 631.117188 479.675781 C 683.921875 469.789062 760.488281 436.679688 834.578125 404.792969 C 876.496094 386.785156 916.253906 369.476562 951.601562 356.53125 C 1016.90625 332.378906 1080.488281 307.035156 1136.976562 271.851562 C 1195.976562 234.457031 1247.585938 186.765625 1285.558594 118.730469 Z M 1291.160156 135.003906 C 1306.066406 109.523438 1316.898438 80.101562 1327.320312 51.578125 C 1346.320312 -0.101562 1364.089844 -49.074219 1404.734375 -75.359375 L 1403.574219 -77.226562 C 1362.371094 -50.273438 1344.367188 -1.15625 1325.28125 50.90625 C 1314.859375 79.425781 1304.261719 108.703125 1289.207031 133.953125 C 1198.484375 288.941406 1045.632812 341.054688 909.738281 377.742188 C 852.875 393.074219 801.289062 425.203125 751.191406 456.078125 C 706.605469 483.847656 664.445312 509.78125 625.398438 518.875 C 562.386719 533.171875 510.988281 556.761719 456.496094 581.628906 C 406.644531 604.578125 355.011719 628.3125 287.851562 648.433594 C 242.09375 662.355469 205.710938 647.109375 170.519531 632.742188 C 142.121094 620.949219 115.289062 610.125 85.550781 614.390625 C 8.957031 626.132812 0.289062 689.199219 -7.609375 744.65625 C -10.972656 769.429688 -14.363281 792.597656 -23.625 808.410156 L -21.675781 809.464844 C -12.175781 793.503906 -9.078125 769.871094 -5.484375 744.953125 C 2.238281 690.253906 11.113281 628.03125 86.011719 616.695312 C 115.226562 612.105469 141.824219 623.078125 169.847656 634.78125 C 205.5625 649.472656 242.179688 664.570312 288.546875 650.59375 C 355.941406 630.324219 407.574219 606.589844 457.425781 583.640625 C 511.539062 558.6875 562.9375 535.097656 625.949219 520.796875 C 665.375 511.792969 707.625 485.480469 752.351562 457.945312 C 802.070312 426.980469 853.804688 395.085938 910.054688 379.8125 C 986.082031 359.351562 1067.445312 333.945312 1140.273438 288.589844 C 1198.164062 252.535156 1250.796875 203.878906 1291.160156 135.003906 Z M 1296.757812 151.28125 C 1313.796875 123.496094 1324.953125 90.957031 1335.703125 59.316406 C 1353.332031 7.515625 1370.257812 -41.253906 1409.53125 -67.65625 L 1408.371094 -69.523438 C 1368.394531 -42.683594 1351.613281 6.320312 1333.515625 58.410156 C 1322.625 89.816406 1311.46875 122.355469 1294.664062 149.992188 C 1246.910156 228.328125 1184.058594 286.585938 1102.492188 328.316406 C 1025.039062 367.808594 940.882812 387.179688 869.039062 400.824219 C 802.414062 413.484375 757.222656 455.886719 717.230469 493.105469 C 685.878906 522.351562 656.25 550.199219 620.464844 559.847656 C 571.210938 573.355469 524.257812 588.992188 474.675781 605.617188 C 413.605469 626.160156 350.613281 647.25 277.621094 665.820312 C 236.855469 676.308594 202.011719 663.019531 168.6875 650.082031 C 140.253906 639.28125 113.480469 629.066406 85.023438 633.832031 C 12.6875 646.164062 5.730469 713.023438 0.253906 766.648438 C -2.230469 790.226562 -4.453125 812.667969 -11.996094 827.085938 L -10.191406 827.902344 C -2.558594 813.109375 -0.339844 790.667969 2.234375 766.710938 C 8.152344 711.191406 14.460938 647.976562 85.722656 635.992188 C 113.566406 631.285156 140.335938 641.5 168.390625 652.210938 C 202.332031 665.089844 237.316406 678.613281 278.695312 668.066406 C 351.6875 649.496094 414.683594 628.40625 475.753906 607.863281 C 525.332031 591.238281 572.140625 575.367188 621.542969 562.09375 C 657.554688 552.300781 687.421875 524.304688 719.238281 494.769531 C 759 457.695312 803.957031 415.441406 870.113281 403.070312 C 942.191406 389.277344 1026.492188 370.144531 1104.179688 330.507812 C 1117.511719 323.824219 1130.175781 316.585938 1142.3125 309.023438 C 1205.511719 269.015625 1256.488281 217.179688 1296.757812 151.28125 Z M 1302.59375 167.410156 C 1321.441406 137.851562 1332.777344 101.957031 1343.761719 67.578125 C 1360.488281 15.371094 1376.277344 -33.664062 1414.941406 -60.011719 L 1413.925781 -61.644531 C 1374.792969 -35.007812 1358.683594 14.550781 1342.101562 66.992188 C 1331.117188 101.371094 1319.636719 137.03125 1301.019531 166.445312 C 1180.832031 356.308594 1003.210938 402.460938 829.097656 424.078125 C 755.101562 433.234375 721.96875 483.027344 692.839844 526.761719 C 671.070312 559.433594 650.734375 590.242188 616.4375 601.234375 C 514.625 633.867188 388.457031 659.640625 268.382812 683.238281 C 232.605469 690.292969 199.917969 678.902344 168.367188 667.777344 C 139.613281 657.5 112.429688 648.1875 85.109375 653.21875 C 16.414062 666.195312 12.167969 734.28125 8.789062 789.195312 C 7.382812 812.425781 6.066406 832.679688 0.246094 845.703125 L 2.050781 846.519531 C 7.960938 833.121094 9.277344 812.863281 10.769531 789.257812 C 14.351562 735.191406 18.421875 667.863281 85.660156 655.140625 C 112.601562 650.023438 139.316406 659.628906 167.925781 669.671875 C 199.855469 680.886719 232.691406 692.507812 269.078125 685.394531 C 389.386719 661.652344 515.320312 636.027344 617.367188 603.246094 C 652.277344 592.195312 672.933594 560.863281 694.933594 528.046875 C 723.832031 484.457031 756.644531 435.1875 829.792969 426.238281 C 937.113281 412.851562 1045.554688 390.34375 1141.492188 330.59375 C 1200.722656 293.054688 1256.128906 241.054688 1302.59375 167.410156 Z M 1307.960938 183.828125 C 1328.617188 152.496094 1339.960938 114.007812 1351.269531 76.511719 C 1367.09375 23.890625 1382.066406 -25.929688 1419.886719 -52.074219 L 1418.867188 -53.710938 C 1380.347656 -27.128906 1365.289062 23.074219 1349.375 76.070312 C 1338.152344 113.1875 1326.8125 151.675781 1306.386719 182.863281 C 1168.851562 393.25 975.964844 434.660156 788.078125 447.683594 C 707.558594 453.125 687.648438 509.585938 670.078125 559.402344 C 657.195312 595.9375 644.988281 630.429688 611.328125 642.96875 C 538.761719 670.019531 430.191406 681.917969 334.332031 692.378906 C 307.308594 695.28125 281.886719 698.15625 258.210938 701.234375 C 227.949219 705.183594 197.882812 695.398438 168.71875 686.023438 C 138.882812 676.097656 110.769531 667.367188 84.351562 672.804688 C 19.441406 686.664062 17.871094 759.5625 16.679688 812.789062 C 16.238281 834.445312 15.886719 853.128906 11.644531 864.519531 L 13.683594 865.195312 C 18.015625 853.425781 18.597656 834.59375 18.894531 812.703125 C 20.234375 757.121094 21.683594 688.183594 84.902344 674.730469 C 110.941406 669.203125 138.589844 678.222656 168.132812 687.6875 C 197.296875 697.058594 227.742188 706.929688 258.617188 702.925781 C 282.289062 699.84375 307.859375 697.203125 334.738281 694.070312 C 430.832031 683.464844 539.636719 671.421875 612.199219 644.371094 C 646.703125 631.625 659.089844 596.375 672.0625 559.464844 C 690.214844 507.984375 709.1875 454.703125 788.335938 449.140625 C 907.863281 440.789062 1029.648438 420.984375 1137.722656 353.675781 C 1199.960938 315.238281 1257.496094 260.933594 1307.960938 183.828125 Z M 1313.792969 199.957031 C 1336.027344 166.996094 1347.605469 125.765625 1358.6875 85.820312 C 1373.695312 32.414062 1387.765625 -17.816406 1425.207031 -44.050781 L 1424.191406 -45.683594 C 1386.050781 -19.015625 1372.035156 31.828125 1356.792969 85.378906 C 1345.566406 125.09375 1334.222656 166.175781 1312.222656 198.992188 C 1242.710938 302.214844 1158.941406 373.179688 1055.511719 416.214844 C 971.800781 450.859375 876.804688 467.90625 747.988281 470.707031 C 661.472656 472.757812 654.964844 532.53125 648.753906 590.179688 C 644.433594 631.097656 640.261719 669.65625 606.773438 684.03125 C 539.804688 712.785156 415.507812 715.039062 315.871094 716.835938 C 291.210938 717.289062 268.152344 717.722656 248.214844 718.476562 C 223.609375 719.546875 196.921875 711.546875 171.136719 703.957031 C 139.523438 694.8125 110.039062 685.960938 83.824219 692.246094 C 22.328125 706.898438 23.957031 782.339844 24.917969 837.460938 C 25.382812 856.933594 25.707031 873.578125 23.039062 883.339844 L 24.933594 883.78125 C 27.691406 873.640625 27.21875 856.761719 26.988281 837.144531 C 25.851562 782.78125 24.570312 708.417969 84.230469 693.9375 C 109.601562 687.855469 139.320312 696.558594 170.320312 705.761719 C 196.105469 713.351562 223.023438 721.207031 248.007812 720.226562 C 267.945312 719.46875 291.003906 719.039062 315.664062 718.582031 C 415.679688 716.875 539.976562 714.621094 607.414062 685.578125 C 641.601562 670.765625 645.945312 631.449219 650.589844 590.007812 C 656.625 533.117188 663.101562 474.335938 747.78125 472.457031 C 877.0625 469.367188 972.203125 452.550781 1056.152344 417.761719 C 1083.742188 406.410156 1110.027344 392.953125 1135.003906 377.398438 C 1203.863281 334.511719 1262.839844 275.75 1313.792969 199.957031 Z M 1319.628906 216.085938 C 1343.4375 181.492188 1355.019531 137.671875 1366.105469 95.128906 C 1380.066406 41.082031 1393.554688 -10.082031 1430.617188 -36.40625 L 1429.597656 -38.039062 C 1391.984375 -11.046875 1378.640625 40.351562 1364.210938 94.691406 C 1353.214844 136.851562 1341.777344 180.90625 1318.054688 215.121094 C 1241.273438 326.4375 1150.035156 402.054688 1039.347656 445.398438 C 949.277344 480.761719 843.878906 496.1875 707.433594 494.023438 C 676.625 493.449219 655.277344 500.265625 641.699219 514.875 C 619.363281 538.832031 623.117188 580.230469 626.988281 620.257812 C 631.144531 665.941406 635.300781 709.03125 602.132812 725.476562 C 534.628906 759.09375 368.527344 746.242188 269.113281 738.507812 C 257.921875 737.703125 247.339844 736.839844 238.277344 736.328125 C 220 735.078125 199.34375 729.476562 177.402344 723.378906 C 144.1875 714.261719 109.835938 704.878906 83.445312 711.921875 C 24.65625 727.800781 30.355469 809.777344 33.941406 863.914062 C 34.964844 880.125 35.90625 894.117188 34.816406 902.246094 L 36.941406 902.542969 C 38.265625 894.265625 37.183594 880.039062 36.160156 863.832031 C 32.628906 810.308594 27.273438 729.410156 84.230469 713.699219 C 110.007812 706.714844 144.359375 716.097656 177.195312 725.128906 C 199.136719 731.226562 219.792969 736.824219 238.300781 737.933594 C 247.511719 738.675781 257.945312 739.304688 269.140625 740.109375 C 368.554688 747.84375 535.269531 760.640625 603.003906 726.875 C 604.550781 726.238281 605.953125 725.363281 607.351562 724.492188 C 636.996094 706.03125 633.1875 664.019531 628.914062 619.707031 C 625.332031 580.144531 621.492188 539.125 643.273438 515.839844 C 656.292969 501.898438 677.410156 495.226562 707.460938 495.625 C 844.285156 497.878906 949.917969 482.304688 1040.21875 446.796875 C 1072.273438 434.285156 1102.582031 418.972656 1131.527344 400.945312 C 1202.632812 356.984375 1264.816406 295.578125 1319.628906 216.085938 Z M 606.1875 648.761719 C 595.003906 605.835938 583.414062 561.21875 602.925781 537.40625 C 614.34375 523.492188 634.902344 517.488281 666.296875 518.996094 C 812.496094 526.425781 926.082031 512.699219 1023.585938 476.273438 C 1141.710938 431.859375 1240.476562 352.203125 1325.082031 232.125 C 1350.613281 196.136719 1361.824219 149.632812 1372.679688 104.644531 C 1386.058594 49.660156 1398.5 -2.148438 1435.269531 -28.9375 L 1434.019531 -30.425781 C 1396.78125 -3.34375 1384.019531 48.988281 1370.785156 104.203125 C 1359.929688 149.191406 1348.574219 195.464844 1323.507812 231.160156 C 1239.226562 350.714844 1140.839844 430.457031 1022.800781 474.492188 C 925.675781 511.007812 812.324219 524.589844 666.355469 517.015625 C 634.207031 515.332031 613.179688 521.625 601.441406 536.0625 C 581.375 560.546875 593.023438 605.773438 604.265625 649.3125 C 617.214844 699.234375 629.414062 746.390625 598.367188 765.726562 C 597.902344 766.015625 597.433594 766.304688 596.96875 766.597656 C 568.375 783.109375 505.960938 787.964844 416.597656 780.769531 C 348.019531 775.210938 272.542969 763.257812 227.902344 753.480469 C 218.199219 751.425781 206.777344 748.171875 194.597656 744.742188 C 157.828125 734.601562 111.675781 721.875 82.628906 730.894531 C 26.371094 748.761719 37.738281 842.4375 43.71875 893.136719 C 45.246094 905.46875 46.398438 915.121094 46.210938 921.066406 L 48.195312 921.128906 C 48.234375 914.949219 47.082031 905.296875 45.558594 892.964844 C 39.542969 843.257812 28.378906 750.429688 83.46875 733.289062 C 111.902344 724.324219 157.675781 736.960938 194.214844 747.25 C 206.394531 750.679688 217.816406 753.933594 227.75 755.84375 C 301.882812 771.875 528.984375 808.289062 598.042969 768.84375 C 598.507812 768.550781 598.976562 768.261719 599.441406 767.972656 C 631.742188 747.53125 618.878906 697.226562 606.1875 648.761719 Z M 593.578125 809.527344 C 627.308594 787.222656 604.863281 730.902344 583.117188 676.738281 C 564.5625 630.300781 545.371094 582.320312 563.132812 558.300781 C 573.238281 544.878906 593.621094 539.636719 625.972656 542.164062 C 781.554688 554.769531 902.863281 543.039062 1007.421875 505.453125 C 1132.890625 460.351562 1238.660156 376.335938 1330.914062 248.253906 C 1357.792969 210.78125 1369.003906 161.683594 1379.632812 114.246094 C 1392.195312 58.472656 1404.054688 5.730469 1440.445312 -21.144531 L 1439.574219 -22.546875 C 1402.480469 4.765625 1390.535156 57.886719 1377.882812 114.039062 C 1367.109375 161.242188 1356.132812 210.195312 1329.34375 247.289062 C 1237.410156 374.847656 1131.875 458.71875 1006.78125 503.90625 C 902.457031 541.347656 781.382812 552.933594 626.179688 540.414062 C 593.070312 537.710938 571.988281 543.390625 561.558594 557.335938 C 543.15625 582.40625 561.566406 628.605469 581.339844 677.523438 C 602.648438 730.984375 624.746094 786.230469 592.558594 807.894531 C 558.039062 831.015625 462.328125 821.945312 408.53125 814.628906 C 326.085938 803.453125 249.015625 783.742188 218.429688 771.042969 C 189.125 758.84375 117.507812 738.003906 82.480469 750.425781 C 25.839844 770.800781 47.695312 885.476562 55.90625 928.3125 C 56.832031 932.917969 57.703125 936.914062 58.074219 939.59375 L 60.144531 939.277344 C 59.625 936.363281 58.902344 932.601562 57.976562 927.992188 C 49.910156 885.394531 28.316406 772.171875 83.175781 752.582031 C 114.589844 741.121094 180.613281 757.664062 217.523438 773.230469 C 282.160156 800.03125 529.53125 849.742188 592.320312 810.632812 C 592.644531 810.109375 593.109375 809.820312 593.578125 809.527344 Z M 593.578125 809.527344 " clip-rule="nonzero"/></clipPath><linearGradient x1="7.587631" gradientTransform="matrix(2.334226, -1.453788, 1.453788, 2.334226, -159.066734, 594.068065)" y1="117.318001" x2="607.797427" gradientUnits="userSpaceOnUse" y2="117.318001" id="e7277ed77e"><stop stop-opacity="1" stop-color="rgb(0.735474%, 60.079956%, 93.148804%)" offset="0"/><stop stop-opacity="1" stop-color="rgb(0.978088%, 60.371399%, 93.09845%)" offset="0.00390625"/><stop stop-opacity="1" stop-color="rgb(1.222229%, 60.662842%, 93.048096%)" offset="0.0078125"/><stop stop-opacity="1" stop-color="rgb(1.464844%, 60.952759%, 92.997742%)" offset="0.0117187"/><stop stop-opacity="1" stop-color="rgb(1.708984%, 61.244202%, 92.948914%)" offset="0.015625"/><stop stop-opacity="1" stop-color="rgb(1.951599%, 61.535645%, 92.89856%)" offset="0.0195312"/><stop stop-opacity="1" stop-color="rgb(2.19574%, 61.827087%, 92.848206%)" offset="0.0234375"/><stop stop-opacity="1" stop-color="rgb(2.438354%, 62.11853%, 92.797852%)" offset="0.0273438"/><stop stop-opacity="1" stop-color="rgb(2.682495%, 62.409973%, 92.749023%)" offset="0.03125"/><stop stop-opacity="1" stop-color="rgb(2.92511%, 62.701416%, 92.698669%)" offset="0.0351562"/><stop stop-opacity="1" stop-color="rgb(3.16925%, 62.992859%, 92.648315%)" offset="0.0390625"/><stop stop-opacity="1" stop-color="rgb(3.411865%, 63.284302%, 92.597961%)" offset="0.0429688"/><stop stop-opacity="1" stop-color="rgb(3.656006%, 63.575745%, 92.549133%)" offset="0.046875"/><stop stop-opacity="1" stop-color="rgb(3.898621%, 63.865662%, 92.498779%)" offset="0.0507812"/><stop stop-opacity="1" stop-color="rgb(4.142761%, 64.157104%, 92.448425%)" offset="0.0546875"/><stop stop-opacity="1" stop-color="rgb(4.385376%, 64.448547%, 92.398071%)" offset="0.0585938"/><stop stop-opacity="1" stop-color="rgb(4.629517%, 64.73999%, 92.349243%)" offset="0.0625"/><stop stop-opacity="1" stop-color="rgb(4.873657%, 65.031433%, 92.298889%)" offset="0.0664062"/><stop stop-opacity="1" stop-color="rgb(5.117798%, 65.322876%, 92.248535%)" offset="0.0703125"/><stop stop-opacity="1" stop-color="rgb(5.360413%, 65.614319%, 92.198181%)" offset="0.0742188"/><stop stop-opacity="1" stop-color="rgb(5.604553%, 65.905762%, 92.149353%)" offset="0.078125"/><stop stop-opacity="1" stop-color="rgb(5.847168%, 66.195679%, 92.098999%)" offset="0.0820312"/><stop stop-opacity="1" stop-color="rgb(6.091309%, 66.487122%, 92.048645%)" offset="0.0859375"/><stop stop-opacity="1" stop-color="rgb(6.333923%, 66.778564%, 91.998291%)" offset="0.0898438"/><stop stop-opacity="1" stop-color="rgb(6.578064%, 67.070007%, 91.949463%)" offset="0.09375"/><stop stop-opacity="1" stop-color="rgb(6.820679%, 67.36145%, 91.899109%)" offset="0.0976562"/><stop stop-opacity="1" stop-color="rgb(7.064819%, 67.652893%, 91.848755%)" offset="0.101562"/><stop stop-opacity="1" stop-color="rgb(7.307434%, 67.944336%, 91.798401%)" offset="0.105469"/><stop stop-opacity="1" stop-color="rgb(7.551575%, 68.235779%, 91.749573%)" offset="0.109375"/><stop stop-opacity="1" stop-color="rgb(7.794189%, 68.527222%, 91.699219%)" offset="0.113281"/><stop stop-opacity="1" stop-color="rgb(8.03833%, 68.818665%, 91.648865%)" offset="0.117188"/><stop stop-opacity="1" stop-color="rgb(8.280945%, 69.108582%, 91.598511%)" offset="0.121094"/><stop stop-opacity="1" stop-color="rgb(8.525085%, 69.400024%, 91.549683%)" offset="0.125"/><stop stop-opacity="1" stop-color="rgb(8.7677%, 69.691467%, 91.499329%)" offset="0.128906"/><stop stop-opacity="1" stop-color="rgb(9.011841%, 69.98291%, 91.448975%)" offset="0.132812"/><stop stop-opacity="1" stop-color="rgb(9.254456%, 70.274353%, 91.398621%)" offset="0.136719"/><stop stop-opacity="1" stop-color="rgb(9.498596%, 70.565796%, 91.349792%)" offset="0.140625"/><stop stop-opacity="1" stop-color="rgb(9.741211%, 70.857239%, 91.299438%)" offset="0.144531"/><stop stop-opacity="1" stop-color="rgb(9.985352%, 71.148682%, 91.249084%)" offset="0.148438"/><stop stop-opacity="1" stop-color="rgb(10.227966%, 71.438599%, 91.19873%)" offset="0.152344"/><stop stop-opacity="1" stop-color="rgb(10.472107%, 71.730042%, 91.149902%)" offset="0.15625"/><stop stop-opacity="1" stop-color="rgb(10.716248%, 72.021484%, 91.099548%)" offset="0.160156"/><stop stop-opacity="1" stop-color="rgb(10.960388%, 72.312927%, 91.049194%)" offset="0.164062"/><stop stop-opacity="1" stop-color="rgb(11.203003%, 72.60437%, 90.99884%)" offset="0.167969"/><stop stop-opacity="1" stop-color="rgb(11.447144%, 72.895813%, 90.950012%)" offset="0.171875"/><stop stop-opacity="1" stop-color="rgb(11.689758%, 73.187256%, 90.899658%)" offset="0.175781"/><stop stop-opacity="1" stop-color="rgb(11.933899%, 73.478699%, 90.849304%)" offset="0.179688"/><stop stop-opacity="1" stop-color="rgb(12.176514%, 73.770142%, 90.79895%)" offset="0.183594"/><stop stop-opacity="1" stop-color="rgb(12.420654%, 74.061584%, 90.750122%)" offset="0.1875"/><stop stop-opacity="1" stop-color="rgb(12.663269%, 74.351501%, 90.699768%)" offset="0.191406"/><stop stop-opacity="1" stop-color="rgb(12.90741%, 74.642944%, 90.649414%)" offset="0.195312"/><stop stop-opacity="1" stop-color="rgb(13.150024%, 74.934387%, 90.59906%)" offset="0.199219"/><stop stop-opacity="1" stop-color="rgb(13.394165%, 75.22583%, 90.550232%)" offset="0.203125"/><stop stop-opacity="1" stop-color="rgb(13.63678%, 75.517273%, 90.499878%)" offset="0.207031"/><stop stop-opacity="1" stop-color="rgb(13.88092%, 75.808716%, 90.449524%)" offset="0.210938"/><stop stop-opacity="1" stop-color="rgb(14.123535%, 76.100159%, 90.39917%)" offset="0.214844"/><stop stop-opacity="1" stop-color="rgb(14.367676%, 76.391602%, 90.350342%)" offset="0.21875"/><stop stop-opacity="1" stop-color="rgb(14.610291%, 76.681519%, 90.299988%)" offset="0.222656"/><stop stop-opacity="1" stop-color="rgb(14.854431%, 76.972961%, 90.249634%)" offset="0.226562"/><stop stop-opacity="1" stop-color="rgb(15.097046%, 77.264404%, 90.19928%)" offset="0.230469"/><stop stop-opacity="1" stop-color="rgb(15.341187%, 77.555847%, 90.150452%)" offset="0.234375"/><stop stop-opacity="1" stop-color="rgb(15.583801%, 77.84729%, 90.100098%)" offset="0.238281"/><stop stop-opacity="1" stop-color="rgb(15.827942%, 78.138733%, 90.049744%)" offset="0.242188"/><stop stop-opacity="1" stop-color="rgb(16.072083%, 78.430176%, 89.99939%)" offset="0.246094"/><stop stop-opacity="1" stop-color="rgb(16.316223%, 78.721619%, 89.950562%)" offset="0.25"/><stop stop-opacity="1" stop-color="rgb(16.558838%, 79.013062%, 89.900208%)" offset="0.253906"/><stop stop-opacity="1" stop-color="rgb(16.802979%, 79.304504%, 89.849854%)" offset="0.257812"/><stop stop-opacity="1" stop-color="rgb(17.045593%, 79.594421%, 89.7995%)" offset="0.261719"/><stop stop-opacity="1" stop-color="rgb(17.289734%, 79.885864%, 89.750671%)" offset="0.265625"/><stop stop-opacity="1" stop-color="rgb(17.532349%, 80.177307%, 89.700317%)" offset="0.269531"/><stop stop-opacity="1" stop-color="rgb(17.776489%, 80.46875%, 89.649963%)" offset="0.273438"/><stop stop-opacity="1" stop-color="rgb(18.019104%, 80.760193%, 89.599609%)" offset="0.277344"/><stop stop-opacity="1" stop-color="rgb(18.263245%, 81.051636%, 89.550781%)" offset="0.28125"/><stop stop-opacity="1" stop-color="rgb(18.505859%, 81.343079%, 89.500427%)" offset="0.285156"/><stop stop-opacity="1" stop-color="rgb(18.75%, 81.634521%, 89.450073%)" offset="0.289062"/><stop stop-opacity="1" stop-color="rgb(18.992615%, 81.924438%, 89.399719%)" offset="0.292969"/><stop stop-opacity="1" stop-color="rgb(19.236755%, 82.215881%, 89.350891%)" offset="0.296875"/><stop stop-opacity="1" stop-color="rgb(19.47937%, 82.507324%, 89.300537%)" offset="0.300781"/><stop stop-opacity="1" stop-color="rgb(19.723511%, 82.798767%, 89.250183%)" offset="0.304688"/><stop stop-opacity="1" stop-color="rgb(19.966125%, 83.09021%, 89.199829%)" offset="0.308594"/><stop stop-opacity="1" stop-color="rgb(20.210266%, 83.381653%, 89.151001%)" offset="0.3125"/><stop stop-opacity="1" stop-color="rgb(20.452881%, 83.673096%, 89.100647%)" offset="0.316406"/><stop stop-opacity="1" stop-color="rgb(20.697021%, 83.964539%, 89.050293%)" offset="0.320312"/><stop stop-opacity="1" stop-color="rgb(20.939636%, 84.255981%, 88.999939%)" offset="0.324219"/><stop stop-opacity="1" stop-color="rgb(21.183777%, 84.547424%, 88.951111%)" offset="0.328125"/><stop stop-opacity="1" stop-color="rgb(21.426392%, 84.837341%, 88.900757%)" offset="0.332031"/><stop stop-opacity="1" stop-color="rgb(21.670532%, 85.128784%, 88.850403%)" offset="0.335938"/><stop stop-opacity="1" stop-color="rgb(21.914673%, 85.420227%, 88.800049%)" offset="0.339844"/><stop stop-opacity="1" stop-color="rgb(22.158813%, 85.71167%, 88.751221%)" offset="0.34375"/><stop stop-opacity="1" stop-color="rgb(22.401428%, 86.003113%, 88.700867%)" offset="0.347656"/><stop stop-opacity="1" stop-color="rgb(22.645569%, 86.294556%, 88.650513%)" offset="0.351562"/><stop stop-opacity="1" stop-color="rgb(22.888184%, 86.585999%, 88.600159%)" offset="0.355469"/><stop stop-opacity="1" stop-color="rgb(23.132324%, 86.877441%, 88.551331%)" offset="0.359375"/><stop stop-opacity="1" stop-color="rgb(23.374939%, 87.167358%, 88.500977%)" offset="0.363281"/><stop stop-opacity="1" stop-color="rgb(23.61908%, 87.458801%, 88.450623%)" offset="0.367188"/><stop stop-opacity="1" stop-color="rgb(23.861694%, 87.750244%, 88.400269%)" offset="0.371094"/><stop stop-opacity="1" stop-color="rgb(24.105835%, 88.041687%, 88.35144%)" offset="0.375"/><stop stop-opacity="1" stop-color="rgb(24.34845%, 88.33313%, 88.301086%)" offset="0.378906"/><stop stop-opacity="1" stop-color="rgb(24.59259%, 88.624573%, 88.250732%)" offset="0.382812"/><stop stop-opacity="1" stop-color="rgb(24.835205%, 88.916016%, 88.200378%)" offset="0.386719"/><stop stop-opacity="1" stop-color="rgb(25.079346%, 89.207458%, 88.15155%)" offset="0.390625"/><stop stop-opacity="1" stop-color="rgb(25.32196%, 89.498901%, 88.101196%)" offset="0.394531"/><stop stop-opacity="1" stop-color="rgb(25.566101%, 89.790344%, 88.050842%)" offset="0.398438"/><stop stop-opacity="1" stop-color="rgb(25.808716%, 90.080261%, 88.000488%)" offset="0.402344"/><stop stop-opacity="1" stop-color="rgb(26.052856%, 90.371704%, 87.95166%)" offset="0.40625"/><stop stop-opacity="1" stop-color="rgb(26.295471%, 90.663147%, 87.901306%)" offset="0.410156"/><stop stop-opacity="1" stop-color="rgb(26.539612%, 90.95459%, 87.850952%)" offset="0.414062"/><stop stop-opacity="1" stop-color="rgb(26.782227%, 91.246033%, 87.800598%)" offset="0.417969"/><stop stop-opacity="1" stop-color="rgb(27.026367%, 91.537476%, 87.75177%)" offset="0.421875"/><stop stop-opacity="1" stop-color="rgb(27.268982%, 91.828918%, 87.701416%)" offset="0.425781"/><stop stop-opacity="1" stop-color="rgb(27.513123%, 92.120361%, 87.651062%)" offset="0.429688"/><stop stop-opacity="1" stop-color="rgb(27.757263%, 92.410278%, 87.600708%)" offset="0.433594"/><stop stop-opacity="1" stop-color="rgb(28.001404%, 92.701721%, 87.55188%)" offset="0.4375"/><stop stop-opacity="1" stop-color="rgb(28.244019%, 92.993164%, 87.501526%)" offset="0.441406"/><stop stop-opacity="1" stop-color="rgb(28.488159%, 93.284607%, 87.451172%)" offset="0.445312"/><stop stop-opacity="1" stop-color="rgb(28.730774%, 93.57605%, 87.400818%)" offset="0.449219"/><stop stop-opacity="1" stop-color="rgb(28.974915%, 93.867493%, 87.35199%)" offset="0.453125"/><stop stop-opacity="1" stop-color="rgb(29.217529%, 94.158936%, 87.301636%)" offset="0.457031"/><stop stop-opacity="1" stop-color="rgb(29.46167%, 94.450378%, 87.251282%)" offset="0.460938"/><stop stop-opacity="1" stop-color="rgb(29.704285%, 94.741821%, 87.200928%)" offset="0.464844"/><stop stop-opacity="1" stop-color="rgb(29.948425%, 95.033264%, 87.1521%)" offset="0.46875"/><stop stop-opacity="1" stop-color="rgb(30.19104%, 95.323181%, 87.101746%)" offset="0.472656"/><stop stop-opacity="1" stop-color="rgb(30.435181%, 95.614624%, 87.051392%)" offset="0.476562"/><stop stop-opacity="1" stop-color="rgb(30.677795%, 95.906067%, 87.001038%)" offset="0.480469"/><stop stop-opacity="1" stop-color="rgb(30.921936%, 96.19751%, 86.952209%)" offset="0.484375"/><stop stop-opacity="1" stop-color="rgb(31.164551%, 96.488953%, 86.901855%)" offset="0.488281"/><stop stop-opacity="1" stop-color="rgb(31.408691%, 96.780396%, 86.851501%)" offset="0.492188"/><stop stop-opacity="1" stop-color="rgb(31.651306%, 97.071838%, 86.801147%)" offset="0.496094"/><stop stop-opacity="1" stop-color="rgb(31.895447%, 97.363281%, 86.752319%)" offset="0.5"/><stop stop-opacity="1" stop-color="rgb(32.138062%, 97.653198%, 86.701965%)" offset="0.503906"/><stop stop-opacity="1" stop-color="rgb(32.382202%, 97.944641%, 86.651611%)" offset="0.507812"/><stop stop-opacity="1" stop-color="rgb(32.624817%, 98.236084%, 86.601257%)" offset="0.511719"/><stop stop-opacity="1" stop-color="rgb(32.868958%, 98.527527%, 86.550903%)" offset="0.515625"/><stop stop-opacity="1" stop-color="rgb(33.111572%, 98.81897%, 86.500549%)" offset="0.519531"/><stop stop-opacity="1" stop-color="rgb(33.355713%, 99.110413%, 86.451721%)" offset="0.523437"/><stop stop-opacity="1" stop-color="rgb(33.599854%, 99.401855%, 86.401367%)" offset="0.527344"/><stop stop-opacity="1" stop-color="rgb(33.843994%, 99.693298%, 86.351013%)" offset="0.53125"/><stop stop-opacity="1" stop-color="rgb(33.836365%, 99.684143%, 86.352539%)" offset="0.539062"/><stop stop-opacity="1" stop-color="rgb(33.543396%, 99.334717%, 86.412048%)" offset="0.542969"/><stop stop-opacity="1" stop-color="rgb(33.259583%, 98.994446%, 86.471558%)" offset="0.546875"/><stop stop-opacity="1" stop-color="rgb(32.974243%, 98.654175%, 86.529541%)" offset="0.550781"/><stop stop-opacity="1" stop-color="rgb(32.69043%, 98.313904%, 86.58905%)" offset="0.554688"/><stop stop-opacity="1" stop-color="rgb(32.40509%, 97.973633%, 86.647034%)" offset="0.558594"/><stop stop-opacity="1" stop-color="rgb(32.121277%, 97.633362%, 86.705017%)" offset="0.5625"/><stop stop-opacity="1" stop-color="rgb(31.835938%, 97.291565%, 86.763%)" offset="0.566406"/><stop stop-opacity="1" stop-color="rgb(31.552124%, 96.951294%, 86.82251%)" offset="0.570312"/><stop stop-opacity="1" stop-color="rgb(31.266785%, 96.611023%, 86.880493%)" offset="0.574219"/><stop stop-opacity="1" stop-color="rgb(30.982971%, 96.270752%, 86.938477%)" offset="0.578125"/><stop stop-opacity="1" stop-color="rgb(30.697632%, 95.928955%, 86.99646%)" offset="0.582031"/><stop stop-opacity="1" stop-color="rgb(30.413818%, 95.588684%, 87.055969%)" offset="0.585938"/><stop stop-opacity="1" stop-color="rgb(30.128479%, 95.248413%, 87.113953%)" offset="0.589844"/><stop stop-opacity="1" stop-color="rgb(29.844666%, 94.908142%, 87.171936%)" offset="0.59375"/><stop stop-opacity="1" stop-color="rgb(29.559326%, 94.567871%, 87.229919%)" offset="0.597656"/><stop stop-opacity="1" stop-color="rgb(29.275513%, 94.2276%, 87.289429%)" offset="0.601562"/><stop stop-opacity="1" stop-color="rgb(28.990173%, 93.885803%, 87.347412%)" offset="0.605469"/><stop stop-opacity="1" stop-color="rgb(28.70636%, 93.545532%, 87.406921%)" offset="0.609375"/><stop stop-opacity="1" stop-color="rgb(28.421021%, 93.205261%, 87.464905%)" offset="0.613281"/><stop stop-opacity="1" stop-color="rgb(28.137207%, 92.86499%, 87.522888%)" offset="0.617187"/><stop stop-opacity="1" stop-color="rgb(27.851868%, 92.524719%, 87.580872%)" offset="0.621094"/><stop stop-opacity="1" stop-color="rgb(27.566528%, 92.184448%, 87.640381%)" offset="0.625"/><stop stop-opacity="1" stop-color="rgb(27.281189%, 91.842651%, 87.698364%)" offset="0.628906"/><stop stop-opacity="1" stop-color="rgb(26.997375%, 91.50238%, 87.756348%)" offset="0.632813"/><stop stop-opacity="1" stop-color="rgb(26.712036%, 91.162109%, 87.814331%)" offset="0.636719"/><stop stop-opacity="1" stop-color="rgb(26.428223%, 90.821838%, 87.87384%)" offset="0.640625"/><stop stop-opacity="1" stop-color="rgb(26.142883%, 90.480042%, 87.931824%)" offset="0.644531"/><stop stop-opacity="1" stop-color="rgb(25.85907%, 90.139771%, 87.991333%)" offset="0.648438"/><stop stop-opacity="1" stop-color="rgb(25.57373%, 89.7995%, 88.049316%)" offset="0.652344"/><stop stop-opacity="1" stop-color="rgb(25.289917%, 89.459229%, 88.1073%)" offset="0.65625"/><stop stop-opacity="1" stop-color="rgb(25.004578%, 89.118958%, 88.165283%)" offset="0.660156"/><stop stop-opacity="1" stop-color="rgb(24.720764%, 88.778687%, 88.224792%)" offset="0.664062"/><stop stop-opacity="1" stop-color="rgb(24.435425%, 88.43689%, 88.282776%)" offset="0.667969"/><stop stop-opacity="1" stop-color="rgb(24.151611%, 88.096619%, 88.340759%)" offset="0.671875"/><stop stop-opacity="1" stop-color="rgb(23.866272%, 87.756348%, 88.398743%)" offset="0.675781"/><stop stop-opacity="1" stop-color="rgb(23.582458%, 87.416077%, 88.458252%)" offset="0.679688"/><stop stop-opacity="1" stop-color="rgb(23.297119%, 87.075806%, 88.516235%)" offset="0.683594"/><stop stop-opacity="1" stop-color="rgb(23.013306%, 86.735535%, 88.574219%)" offset="0.6875"/><stop stop-opacity="1" stop-color="rgb(22.727966%, 86.393738%, 88.632202%)" offset="0.691406"/><stop stop-opacity="1" stop-color="rgb(22.444153%, 86.053467%, 88.691711%)" offset="0.695312"/><stop stop-opacity="1" stop-color="rgb(22.158813%, 85.713196%, 88.749695%)" offset="0.699219"/><stop stop-opacity="1" stop-color="rgb(21.875%, 85.372925%, 88.809204%)" offset="0.703125"/><stop stop-opacity="1" stop-color="rgb(21.589661%, 85.032654%, 88.867188%)" offset="0.707031"/><stop stop-opacity="1" stop-color="rgb(21.305847%, 84.692383%, 88.925171%)" offset="0.710938"/><stop stop-opacity="1" stop-color="rgb(21.020508%, 84.350586%, 88.983154%)" offset="0.714844"/><stop stop-opacity="1" stop-color="rgb(20.736694%, 84.010315%, 89.042664%)" offset="0.71875"/><stop stop-opacity="1" stop-color="rgb(20.451355%, 83.670044%, 89.100647%)" offset="0.722656"/><stop stop-opacity="1" stop-color="rgb(20.167542%, 83.329773%, 89.15863%)" offset="0.726563"/><stop stop-opacity="1" stop-color="rgb(19.882202%, 82.987976%, 89.216614%)" offset="0.730469"/><stop stop-opacity="1" stop-color="rgb(19.596863%, 82.647705%, 89.276123%)" offset="0.734375"/><stop stop-opacity="1" stop-color="rgb(19.311523%, 82.307434%, 89.334106%)" offset="0.738281"/><stop stop-opacity="1" stop-color="rgb(19.02771%, 81.967163%, 89.393616%)" offset="0.742188"/><stop stop-opacity="1" stop-color="rgb(18.742371%, 81.626892%, 89.451599%)" offset="0.746094"/><stop stop-opacity="1" stop-color="rgb(18.458557%, 81.286621%, 89.509583%)" offset="0.75"/><stop stop-opacity="1" stop-color="rgb(18.173218%, 80.944824%, 89.567566%)" offset="0.753906"/><stop stop-opacity="1" stop-color="rgb(17.889404%, 80.604553%, 89.627075%)" offset="0.757812"/><stop stop-opacity="1" stop-color="rgb(17.604065%, 80.264282%, 89.685059%)" offset="0.761719"/><stop stop-opacity="1" stop-color="rgb(17.320251%, 79.924011%, 89.743042%)" offset="0.765625"/><stop stop-opacity="1" stop-color="rgb(17.034912%, 79.58374%, 89.801025%)" offset="0.769531"/><stop stop-opacity="1" stop-color="rgb(16.751099%, 79.243469%, 89.860535%)" offset="0.773437"/><stop stop-opacity="1" stop-color="rgb(16.465759%, 78.901672%, 89.918518%)" offset="0.777344"/><stop stop-opacity="1" stop-color="rgb(16.181946%, 78.561401%, 89.976501%)" offset="0.78125"/><stop stop-opacity="1" stop-color="rgb(15.896606%, 78.22113%, 90.034485%)" offset="0.785156"/><stop stop-opacity="1" stop-color="rgb(15.612793%, 77.880859%, 90.093994%)" offset="0.789062"/><stop stop-opacity="1" stop-color="rgb(15.327454%, 77.539062%, 90.151978%)" offset="0.792969"/><stop stop-opacity="1" stop-color="rgb(15.04364%, 77.198792%, 90.211487%)" offset="0.796875"/><stop stop-opacity="1" stop-color="rgb(14.758301%, 76.858521%, 90.26947%)" offset="0.800781"/><stop stop-opacity="1" stop-color="rgb(14.474487%, 76.51825%, 90.327454%)" offset="0.804688"/><stop stop-opacity="1" stop-color="rgb(14.189148%, 76.177979%, 90.385437%)" offset="0.808594"/><stop stop-opacity="1" stop-color="rgb(13.905334%, 75.837708%, 90.444946%)" offset="0.8125"/><stop stop-opacity="1" stop-color="rgb(13.619995%, 75.495911%, 90.50293%)" offset="0.816406"/><stop stop-opacity="1" stop-color="rgb(13.336182%, 75.15564%, 90.560913%)" offset="0.820312"/><stop stop-opacity="1" stop-color="rgb(13.050842%, 74.815369%, 90.618896%)" offset="0.824219"/><stop stop-opacity="1" stop-color="rgb(12.767029%, 74.475098%, 90.678406%)" offset="0.828125"/><stop stop-opacity="1" stop-color="rgb(12.481689%, 74.134827%, 90.736389%)" offset="0.832031"/><stop stop-opacity="1" stop-color="rgb(12.197876%, 73.794556%, 90.795898%)" offset="0.835938"/><stop stop-opacity="1" stop-color="rgb(11.912537%, 73.452759%, 90.853882%)" offset="0.839844"/><stop stop-opacity="1" stop-color="rgb(11.627197%, 73.112488%, 90.911865%)" offset="0.84375"/><stop stop-opacity="1" stop-color="rgb(11.341858%, 72.772217%, 90.969849%)" offset="0.847656"/><stop stop-opacity="1" stop-color="rgb(11.058044%, 72.431946%, 91.029358%)" offset="0.851562"/><stop stop-opacity="1" stop-color="rgb(10.772705%, 72.090149%, 91.087341%)" offset="0.855469"/><stop stop-opacity="1" stop-color="rgb(10.488892%, 71.749878%, 91.145325%)" offset="0.859375"/><stop stop-opacity="1" stop-color="rgb(10.203552%, 71.409607%, 91.203308%)" offset="0.863281"/><stop stop-opacity="1" stop-color="rgb(9.919739%, 71.069336%, 91.262817%)" offset="0.867187"/><stop stop-opacity="1" stop-color="rgb(9.634399%, 70.729065%, 91.320801%)" offset="0.871094"/><stop stop-opacity="1" stop-color="rgb(9.350586%, 70.388794%, 91.38031%)" offset="0.875"/><stop stop-opacity="1" stop-color="rgb(9.065247%, 70.046997%, 91.438293%)" offset="0.878906"/><stop stop-opacity="1" stop-color="rgb(8.781433%, 69.706726%, 91.496277%)" offset="0.882813"/><stop stop-opacity="1" stop-color="rgb(8.496094%, 69.366455%, 91.55426%)" offset="0.886719"/><stop stop-opacity="1" stop-color="rgb(8.21228%, 69.026184%, 91.61377%)" offset="0.890625"/><stop stop-opacity="1" stop-color="rgb(7.926941%, 68.685913%, 91.671753%)" offset="0.894531"/><stop stop-opacity="1" stop-color="rgb(7.643127%, 68.345642%, 91.729736%)" offset="0.898438"/><stop stop-opacity="1" stop-color="rgb(7.357788%, 68.003845%, 91.78772%)" offset="0.902344"/><stop stop-opacity="1" stop-color="rgb(7.073975%, 67.663574%, 91.847229%)" offset="0.90625"/><stop stop-opacity="1" stop-color="rgb(6.788635%, 67.323303%, 91.905212%)" offset="0.910156"/><stop stop-opacity="1" stop-color="rgb(6.504822%, 66.983032%, 91.963196%)" offset="0.914062"/><stop stop-opacity="1" stop-color="rgb(6.219482%, 66.641235%, 92.021179%)" offset="0.917969"/><stop stop-opacity="1" stop-color="rgb(5.935669%, 66.300964%, 92.080688%)" offset="0.921875"/><stop stop-opacity="1" stop-color="rgb(5.65033%, 65.960693%, 92.138672%)" offset="0.925781"/><stop stop-opacity="1" stop-color="rgb(5.366516%, 65.620422%, 92.198181%)" offset="0.929688"/><stop stop-opacity="1" stop-color="rgb(5.081177%, 65.280151%, 92.256165%)" offset="0.933594"/><stop stop-opacity="1" stop-color="rgb(4.797363%, 64.93988%, 92.314148%)" offset="0.9375"/><stop stop-opacity="1" stop-color="rgb(4.512024%, 64.598083%, 92.372131%)" offset="0.941406"/><stop stop-opacity="1" stop-color="rgb(4.226685%, 64.257812%, 92.431641%)" offset="0.945312"/><stop stop-opacity="1" stop-color="rgb(3.941345%, 63.917542%, 92.489624%)" offset="0.949219"/><stop stop-opacity="1" stop-color="rgb(3.657532%, 63.577271%, 92.547607%)" offset="0.953125"/><stop stop-opacity="1" stop-color="rgb(3.372192%, 63.237%, 92.605591%)" offset="0.957031"/><stop stop-opacity="1" stop-color="rgb(3.088379%, 62.896729%, 92.6651%)" offset="0.960938"/><stop stop-opacity="1" stop-color="rgb(2.80304%, 62.554932%, 92.723083%)" offset="0.964844"/><stop stop-opacity="1" stop-color="rgb(2.519226%, 62.214661%, 92.782593%)" offset="0.96875"/><stop stop-opacity="1" stop-color="rgb(2.233887%, 61.87439%, 92.840576%)" offset="0.972656"/><stop stop-opacity="1" stop-color="rgb(1.950073%, 61.534119%, 92.89856%)" offset="0.976563"/><stop stop-opacity="1" stop-color="rgb(1.664734%, 61.192322%, 92.956543%)" offset="0.980469"/><stop stop-opacity="1" stop-color="rgb(1.38092%, 60.852051%, 93.016052%)" offset="0.984375"/><stop stop-opacity="1" stop-color="rgb(1.095581%, 60.51178%, 93.074036%)" offset="0.988281"/><stop stop-opacity="1" stop-color="rgb(0.811768%, 60.171509%, 93.132019%)" offset="0.992188"/><stop stop-opacity="1" stop-color="rgb(0.526428%, 59.831238%, 93.190002%)" offset="0.996094"/><stop stop-opacity="1" stop-color="rgb(0.242615%, 59.490967%, 93.249512%)" offset="1"/></linearGradient></defs><g clip-path="url(#744fcf1bec)"><g clip-path="url(#8207055494)"><g clip-path="url(#b14347e1de)"><path fill="url(#e7277ed77e)" d="M -363.484375 226.382812 L 402.457031 1456.195312 L 1803.484375 583.617188 L 1037.539062 -646.195312 Z M -363.484375 226.382812 " fill-rule="nonzero"/></g></g></g></svg>