<svg xmlns="http://www.w3.org/2000/svg" xmlns:xlink="http://www.w3.org/1999/xlink" width="500" zoomAndPan="magnify" viewBox="0 0 375 374.999991" height="500" preserveAspectRatio="xMidYMid meet" version="1.0"><defs><g/><clipPath id="f7ce320236"><path d="M 228.269531 115 L 266.675781 115 L 266.675781 204.785156 L 228.269531 204.785156 Z M 228.269531 115 " clip-rule="nonzero"/></clipPath><clipPath id="ba02eb1941"><path d="M 101.261719 114.042969 L 205 114.042969 L 205 204.785156 L 101.261719 204.785156 Z M 101.261719 114.042969 " clip-rule="nonzero"/></clipPath><clipPath id="9a0475f950"><path d="M 163.671875 114.042969 L 267.371094 114.042969 L 267.371094 204.785156 L 163.671875 204.785156 Z M 163.671875 114.042969 " clip-rule="nonzero"/></clipPath><clipPath id="3ec2652804"><path d="M 203 114.042969 L 205 114.042969 L 205 116 L 203 116 Z M 203 114.042969 " clip-rule="nonzero"/></clipPath><clipPath id="6da26a58ca"><path d="M 101.261719 114.042969 L 205 114.042969 L 205 204.785156 L 101.261719 204.785156 Z M 101.261719 114.042969 " clip-rule="nonzero"/></clipPath><clipPath id="0217341e49"><path d="M 266.675781 114.042969 L 267.371094 114.042969 L 267.371094 115.351562 L 266.675781 115.351562 Z M 266.675781 114.042969 " clip-rule="nonzero"/></clipPath><clipPath id="42b4b08d79"><path d="M 163.671875 114.042969 L 267.371094 114.042969 L 267.371094 204.785156 L 163.671875 204.785156 Z M 163.671875 114.042969 " clip-rule="nonzero"/></clipPath><clipPath id="2d09638f21"><path d="M 228.269531 143.289062 L 266.675781 143.289062 L 266.675781 204.785156 L 228.269531 204.785156 Z M 228.269531 143.289062 " clip-rule="nonzero"/></clipPath><clipPath id="070f2e809e"><path d="M 170 114.042969 L 256 114.042969 L 256 195 L 170 195 Z M 170 114.042969 " clip-rule="nonzero"/></clipPath><clipPath id="bfc8dbd490"><path d="M 108 114.042969 L 199 114.042969 L 199 194 L 108 194 Z M 108 114.042969 " clip-rule="nonzero"/></clipPath></defs><path fill="#fb6410" d="M 203.78125 115.503906 L 203.78125 147.824219 L 170.789062 194.847656 L 170.773438 194.863281 L 165.632812 202.191406 L 165.632812 169.855469 L 203.78125 115.503906 " fill-opacity="1" fill-rule="nonzero"/><g clip-path="url(#f7ce320236)"><path fill="#0ca1f8" d="M 266.675781 115.007812 L 266.675781 204.617188 L 228.527344 204.617188 L 228.527344 169.359375 L 266.675781 115.007812 " fill-opacity="1" fill-rule="nonzero"/></g><g clip-path="url(#ba02eb1941)"><path fill="#f91e5a" d="M 204.820312 114.042969 L 199.859375 118.386719 L 199.84375 118.402344 C 199.816406 118.417969 199.769531 118.460938 199.710938 118.523438 L 199.695312 118.523438 L 104.382812 202.054688 L 104.367188 202.054688 C 104.320312 202.101562 104.292969 202.128906 104.277344 202.128906 L 104.277344 202.144531 C 104.230469 202.175781 104.214844 202.191406 104.214844 202.191406 L 101.261719 204.785156 L 108.859375 193.972656 C 108.890625 193.910156 108.9375 193.867188 108.964844 193.804688 L 164.953125 114.042969 L 204.820312 114.042969 " fill-opacity="1" fill-rule="nonzero"/><path fill="#f91e5a" d="M 204.820312 114.042969 L 203.78125 115.503906 L 165.632812 169.855469 L 141.128906 204.785156 L 101.261719 204.785156 L 104.367188 202.054688 L 104.382812 202.054688 L 199.695312 118.523438 L 203.78125 114.949219 L 204.820312 114.042969 " fill-opacity="1" fill-rule="nonzero"/></g><g clip-path="url(#9a0475f950)"><path fill="#f9c51d" d="M 267.371094 114.042969 L 266.675781 114.644531 L 260.523438 120.042969 L 260.507812 120.058594 L 260.449219 120.105469 L 260.402344 120.152344 L 260.371094 120.164062 L 260.371094 120.179688 L 260.25 120.273438 C 260.207031 120.300781 260.144531 120.347656 260.101562 120.394531 L 228.527344 148.066406 L 203.78125 169.753906 L 168.890625 200.304688 C 168.84375 200.351562 168.796875 200.394531 168.769531 200.425781 C 168.679688 200.515625 168.632812 200.546875 168.632812 200.546875 L 165.632812 203.171875 L 163.808594 204.785156 L 165.632812 202.191406 L 170.773438 194.863281 L 170.789062 194.847656 L 203.78125 147.824219 L 227.5 114.042969 L 267.371094 114.042969 " fill-opacity="1" fill-rule="nonzero"/><path fill="#f9c51d" d="M 267.371094 114.042969 L 266.675781 115.007812 L 228.527344 169.359375 L 203.78125 204.617188 L 203.675781 204.785156 L 163.808594 204.785156 L 165.632812 203.171875 L 168.890625 200.304688 L 203.78125 169.753906 L 228.527344 148.066406 L 260.101562 120.394531 L 260.25 120.273438 L 260.265625 120.257812 L 260.371094 120.179688 L 260.371094 120.164062 L 260.402344 120.152344 L 266.675781 114.644531 L 267.371094 114.042969 " fill-opacity="1" fill-rule="nonzero"/></g><path fill="#bf4c0c" d="M 165.632812 172.976562 L 165.632812 169.855469 L 165.632812 171.9375 L 165.980469 171.441406 L 173.894531 160.054688 C 179.160156 152.46875 184.34375 144.824219 189.5 137.164062 C 192.09375 133.332031 194.691406 129.5 197.222656 125.640625 C 199.410156 122.308594 201.609375 118.988281 203.78125 115.640625 L 203.78125 144.234375 L 165.632812 172.976562 " fill-opacity="1" fill-rule="nonzero"/><path fill="#097abd" d="M 228.527344 172.148438 L 228.527344 169.359375 L 228.527344 171.441406 L 236.441406 160.054688 C 241.707031 152.46875 246.90625 144.824219 252.066406 137.164062 C 254.640625 133.332031 257.25 129.5 259.769531 125.640625 C 262.078125 122.140625 264.414062 118.640625 266.675781 115.113281 L 266.675781 139.484375 C 266.585938 140.84375 266.523438 142.214844 266.449219 143.570312 L 228.527344 172.148438 " fill-opacity="1" fill-rule="nonzero"/><path fill="#ff3cb4" d="M 104.382812 202.054688 L 104.367188 202.054688 C 104.789062 201.632812 106.117188 200.367188 108.167969 198.421875 C 110.714844 196.050781 114.304688 192.597656 118.707031 188.585938 C 123.125 184.578125 128.222656 179.839844 133.769531 174.878906 C 139.320312 169.886719 145.273438 164.636719 151.246094 159.375 C 154.234375 156.769531 157.234375 154.15625 160.1875 151.59375 C 163.160156 149.046875 166.070312 146.527344 168.890625 144.097656 C 174.542969 139.242188 179.910156 134.824219 184.464844 130.964844 C 189.019531 127.117188 192.910156 124.027344 195.59375 121.808594 C 197.796875 120.042969 199.242188 118.882812 199.695312 118.523438 L 104.382812 202.054688 " fill-opacity="1" fill-rule="nonzero"/><path fill="#ffff3a" d="M 168.890625 200.304688 C 169.386719 199.824219 170.625 198.648438 172.433594 196.914062 C 174.875 194.636719 178.3125 191.316406 182.550781 187.457031 C 186.789062 183.597656 191.675781 179.058594 197.011719 174.277344 C 202.335938 169.480469 208.066406 164.441406 213.78125 159.390625 C 216.660156 156.871094 219.539062 154.367188 222.375 151.910156 C 225.222656 149.453125 228.027344 147.039062 230.742188 144.71875 C 236.171875 140.058594 241.34375 135.804688 245.714844 132.109375 C 250.089844 128.414062 253.84375 125.441406 256.421875 123.316406 C 258.214844 121.882812 259.484375 120.875 260.101562 120.394531 L 228.527344 148.066406 L 203.78125 169.753906 L 168.890625 200.304688 " fill-opacity="1" fill-rule="nonzero"/><path fill="#fbdc77" d="M 260.269531 120.257812 C 260.304688 120.21875 260.332031 120.191406 260.371094 120.164062 L 260.371094 120.179688 L 260.269531 120.257812 " fill-opacity="1" fill-rule="nonzero"/><path fill="#fbdc77" d="M 260.25 120.273438 C 260.257812 120.265625 260.261719 120.261719 260.269531 120.257812 L 260.371094 120.179688 L 260.371094 120.164062 L 260.402344 120.152344 L 260.371094 120.179688 L 260.25 120.273438 " fill-opacity="1" fill-rule="nonzero"/><g clip-path="url(#3ec2652804)"><path fill="#bfbfbf" d="M 203.78125 115.640625 L 203.78125 115.503906 L 204.820312 114.042969 C 204.476562 114.585938 204.128906 115.113281 203.78125 115.640625 " fill-opacity="1" fill-rule="nonzero"/></g><g clip-path="url(#6da26a58ca)"><path fill="#bb1643" d="M 141.128906 204.785156 L 101.261719 204.785156 C 107.894531 204.496094 114.542969 204.375 121.195312 204.167969 L 140.601562 203.832031 C 143.105469 200.140625 145.652344 196.476562 148.171875 192.796875 L 156.074219 181.421875 L 164.035156 170.066406 L 172.039062 158.757812 C 177.394531 151.230469 182.820312 143.753906 188.28125 136.289062 C 190.996094 132.5625 193.710938 128.824219 196.484375 125.128906 C 199.257812 121.417969 202.003906 117.707031 204.820312 114.042969 L 203.78125 115.503906 L 165.632812 169.855469 L 141.128906 204.785156 " fill-opacity="1" fill-rule="nonzero"/></g><path fill="#8f3909" d="M 165.632812 171.9375 L 165.632812 169.855469 L 203.78125 115.503906 L 203.78125 115.640625 C 201.609375 118.988281 199.410156 122.308594 197.222656 125.640625 C 194.691406 129.5 192.09375 133.332031 189.5 137.164062 C 184.34375 144.824219 179.160156 152.46875 173.894531 160.054688 L 165.980469 171.441406 L 165.632812 171.9375 " fill-opacity="1" fill-rule="nonzero"/><g clip-path="url(#0217341e49)"><path fill="#bfbfbf" d="M 266.675781 115.113281 L 266.675781 115.007812 L 267.371094 114.042969 C 267.140625 114.40625 266.917969 114.765625 266.675781 115.113281 " fill-opacity="1" fill-rule="nonzero"/></g><g clip-path="url(#42b4b08d79)"><path fill="#bb9416" d="M 203.675781 204.785156 L 163.808594 204.785156 C 170.457031 204.496094 177.09375 204.375 183.742188 204.167969 L 203.164062 203.832031 C 205.652344 200.140625 208.199219 196.476562 210.71875 192.796875 L 218.636719 181.421875 L 226.582031 170.066406 L 234.585938 158.757812 C 239.941406 151.230469 245.371094 143.753906 250.828125 136.289062 C 253.539062 132.5625 256.257812 128.824219 259.046875 125.128906 C 261.804688 121.417969 264.550781 117.707031 267.371094 114.042969 L 266.675781 115.007812 L 228.527344 169.359375 L 203.78125 204.617188 L 203.675781 204.785156 " fill-opacity="1" fill-rule="nonzero"/></g><path fill="#075b8e" d="M 228.527344 171.441406 L 228.527344 169.359375 L 266.675781 115.007812 L 266.675781 115.113281 C 264.414062 118.640625 262.078125 122.140625 259.769531 125.640625 C 257.25 129.5 254.640625 133.332031 252.066406 137.164062 C 246.90625 144.824219 241.707031 152.46875 236.441406 160.054688 L 228.527344 171.441406 " fill-opacity="1" fill-rule="nonzero"/><g clip-path="url(#2d09638f21)"><path fill="#0979ba" d="M 266.675781 204.617188 L 228.527344 204.617188 C 231.707031 204.421875 234.890625 204.300781 238.070312 204.167969 C 241.238281 204.03125 244.417969 203.941406 247.601562 203.832031 C 253.585938 203.667969 259.558594 203.578125 265.546875 203.503906 C 265.5 198.449219 265.46875 193.398438 265.484375 188.332031 C 265.5 182.902344 265.53125 177.472656 265.621094 172.042969 C 265.695312 166.628906 265.800781 161.199219 265.980469 155.773438 C 266.042969 153.058594 266.164062 150.34375 266.285156 147.628906 C 266.328125 146.269531 266.390625 144.929688 266.449219 143.570312 L 266.675781 143.40625 L 266.675781 204.617188 " fill-opacity="1" fill-rule="nonzero"/></g><path fill="#075b8e" d="M 266.449219 143.570312 C 266.523438 142.214844 266.585938 140.84375 266.675781 139.484375 L 266.675781 143.40625 L 266.449219 143.570312 " fill-opacity="1" fill-rule="nonzero"/><g clip-path="url(#070f2e809e)"><path fill="#ffff3a" d="M 170.789062 194.847656 L 203.78125 147.824219 L 227.5 114.042969 L 255.605469 114.042969 C 250.917969 114.285156 246.230469 114.390625 241.554688 114.570312 C 237.015625 114.722656 232.492188 114.78125 227.96875 114.886719 C 225.75 118.191406 223.550781 121.492188 221.289062 124.75 L 214.277344 134.914062 L 207.203125 145.03125 L 200.085938 155.121094 L 192.878906 165.152344 L 185.597656 175.105469 C 183.15625 178.421875 180.742188 181.757812 178.253906 185.027344 C 175.765625 188.316406 173.324219 191.601562 170.789062 194.847656 " fill-opacity="1" fill-rule="nonzero"/></g><g clip-path="url(#bfc8dbd490)"><path fill="#ff3cb4" d="M 108.859375 193.972656 C 108.890625 193.910156 108.9375 193.867188 108.964844 193.804688 L 164.953125 114.042969 L 198.308594 114.042969 C 192.746094 114.3125 187.179688 114.433594 181.628906 114.644531 L 165.464844 114.976562 C 163.277344 118.21875 161.046875 121.433594 158.847656 124.675781 L 151.894531 134.703125 L 144.882812 144.703125 L 137.828125 154.65625 L 130.707031 164.5625 L 123.503906 174.414062 C 121.089844 177.699219 118.707031 180.988281 116.234375 184.230469 C 113.792969 187.488281 111.347656 190.742188 108.859375 193.972656 " fill-opacity="1" fill-rule="nonzero"/></g><g fill="#ffffff" fill-opacity="1"><g transform="translate(94.776481, 236.936308)"><g><path d="M 12.09375 0 L 12.046875 -6.390625 L 8.953125 -1.1875 L 7.4375 -1.1875 L 4.359375 -6.21875 L 4.359375 0 L 1.203125 0 L 1.203125 -12.046875 L 4.015625 -12.046875 L 8.25 -5.09375 L 12.375 -12.046875 L 15.1875 -12.046875 L 15.21875 0 Z M 12.09375 0 "/></g></g></g><g fill="#ffffff" fill-opacity="1"><g transform="translate(111.205068, 236.936308)"><g><path d="M 9.28125 -2.34375 L 4.1875 -2.34375 L 3.234375 0 L -0.234375 0 L 5.078125 -12.046875 L 8.4375 -12.046875 L 13.78125 0 L 10.234375 0 Z M 8.28125 -4.859375 L 6.734375 -8.71875 L 5.1875 -4.859375 Z M 8.28125 -4.859375 "/></g></g></g><g fill="#ffffff" fill-opacity="1"><g transform="translate(124.740574, 236.936308)"><g><path d="M 9.28125 -6.28125 L 12.296875 -6.28125 L 12.296875 -1.296875 C 11.609375 -0.796875 10.816406 -0.414062 9.921875 -0.15625 C 9.023438 0.101562 8.128906 0.234375 7.234375 0.234375 C 5.972656 0.234375 4.835938 -0.03125 3.828125 -0.5625 C 2.816406 -1.09375 2.019531 -1.832031 1.4375 -2.78125 C 0.863281 -3.738281 0.578125 -4.820312 0.578125 -6.03125 C 0.578125 -7.226562 0.863281 -8.300781 1.4375 -9.25 C 2.019531 -10.207031 2.820312 -10.953125 3.84375 -11.484375 C 4.863281 -12.023438 6.015625 -12.296875 7.296875 -12.296875 C 8.421875 -12.296875 9.429688 -12.101562 10.328125 -11.71875 C 11.222656 -11.34375 11.96875 -10.800781 12.5625 -10.09375 L 10.40625 -8.125 C 9.582031 -9.019531 8.601562 -9.46875 7.46875 -9.46875 C 6.4375 -9.46875 5.601562 -9.15625 4.96875 -8.53125 C 4.34375 -7.90625 4.03125 -7.070312 4.03125 -6.03125 C 4.03125 -5.363281 4.171875 -4.769531 4.453125 -4.25 C 4.742188 -3.726562 5.144531 -3.316406 5.65625 -3.015625 C 6.175781 -2.722656 6.769531 -2.578125 7.4375 -2.578125 C 8.09375 -2.578125 8.707031 -2.710938 9.28125 -2.984375 Z M 9.28125 -6.28125 "/></g></g></g><g fill="#ffffff" fill-opacity="1"><g transform="translate(138.000548, 236.936308)"><g><path d="M 10.875 -2.640625 L 10.875 0 L 1.203125 0 L 1.203125 -12.046875 L 10.65625 -12.046875 L 10.65625 -9.421875 L 4.578125 -9.421875 L 4.578125 -7.390625 L 9.9375 -7.390625 L 9.9375 -4.84375 L 4.578125 -4.84375 L 4.578125 -2.640625 Z M 10.875 -2.640625 "/></g></g></g><g fill="#ffffff" fill-opacity="1"><g transform="translate(149.572887, 236.936308)"><g><path d="M 5.4375 0.234375 C 4.46875 0.234375 3.519531 0.113281 2.59375 -0.125 C 1.675781 -0.363281 0.929688 -0.679688 0.359375 -1.078125 L 1.484375 -3.59375 C 2.023438 -3.238281 2.648438 -2.953125 3.359375 -2.734375 C 4.066406 -2.515625 4.765625 -2.40625 5.453125 -2.40625 C 6.765625 -2.40625 7.421875 -2.734375 7.421875 -3.390625 C 7.421875 -3.734375 7.234375 -3.988281 6.859375 -4.15625 C 6.484375 -4.320312 5.882812 -4.5 5.0625 -4.6875 C 4.15625 -4.875 3.394531 -5.078125 2.78125 -5.296875 C 2.175781 -5.523438 1.65625 -5.882812 1.21875 -6.375 C 0.78125 -6.875 0.5625 -7.546875 0.5625 -8.390625 C 0.5625 -9.117188 0.765625 -9.78125 1.171875 -10.375 C 1.578125 -10.96875 2.175781 -11.4375 2.96875 -11.78125 C 3.769531 -12.125 4.75 -12.296875 5.90625 -12.296875 C 6.695312 -12.296875 7.476562 -12.207031 8.25 -12.03125 C 9.019531 -11.851562 9.695312 -11.59375 10.28125 -11.25 L 9.234375 -8.71875 C 8.078125 -9.332031 6.960938 -9.640625 5.890625 -9.640625 C 5.210938 -9.640625 4.71875 -9.539062 4.40625 -9.34375 C 4.09375 -9.144531 3.9375 -8.882812 3.9375 -8.5625 C 3.9375 -8.238281 4.117188 -7.992188 4.484375 -7.828125 C 4.859375 -7.671875 5.453125 -7.503906 6.265625 -7.328125 C 7.179688 -7.140625 7.941406 -6.929688 8.546875 -6.703125 C 9.148438 -6.484375 9.671875 -6.128906 10.109375 -5.640625 C 10.554688 -5.148438 10.78125 -4.488281 10.78125 -3.65625 C 10.78125 -2.925781 10.578125 -2.269531 10.171875 -1.6875 C 9.773438 -1.101562 9.171875 -0.632812 8.359375 -0.28125 C 7.554688 0.0625 6.582031 0.234375 5.4375 0.234375 Z M 5.4375 0.234375 "/></g></g></g><g fill="#ffffff" fill-opacity="1"><g transform="translate(160.714708, 236.936308)"><g><path d="M 3.765625 -9.34375 L 0.0625 -9.34375 L 0.0625 -12.046875 L 10.859375 -12.046875 L 10.859375 -9.34375 L 7.1875 -9.34375 L 7.1875 0 L 3.765625 0 Z M 3.765625 -9.34375 "/></g></g></g><g fill="#ffffff" fill-opacity="1"><g transform="translate(171.649882, 236.936308)"><g><path d="M 1.203125 -12.046875 L 4.609375 -12.046875 L 4.609375 0 L 1.203125 0 Z M 1.203125 -12.046875 "/></g></g></g><g fill="#ffffff" fill-opacity="1"><g transform="translate(177.487712, 236.936308)"><g><path d="M 7.21875 0.234375 C 5.957031 0.234375 4.820312 -0.03125 3.8125 -0.5625 C 2.8125 -1.09375 2.019531 -1.832031 1.4375 -2.78125 C 0.863281 -3.738281 0.578125 -4.820312 0.578125 -6.03125 C 0.578125 -7.226562 0.863281 -8.300781 1.4375 -9.25 C 2.019531 -10.207031 2.8125 -10.953125 3.8125 -11.484375 C 4.820312 -12.023438 5.957031 -12.296875 7.21875 -12.296875 C 8.320312 -12.296875 9.3125 -12.097656 10.1875 -11.703125 C 11.070312 -11.316406 11.804688 -10.753906 12.390625 -10.015625 L 10.234375 -8.0625 C 9.453125 -9 8.503906 -9.46875 7.390625 -9.46875 C 6.734375 -9.46875 6.148438 -9.320312 5.640625 -9.03125 C 5.128906 -8.75 4.734375 -8.347656 4.453125 -7.828125 C 4.171875 -7.304688 4.03125 -6.707031 4.03125 -6.03125 C 4.03125 -5.351562 4.171875 -4.75 4.453125 -4.21875 C 4.734375 -3.695312 5.128906 -3.289062 5.640625 -3 C 6.148438 -2.71875 6.734375 -2.578125 7.390625 -2.578125 C 8.503906 -2.578125 9.453125 -3.050781 10.234375 -4 L 12.390625 -2.03125 C 11.804688 -1.300781 11.070312 -0.738281 10.1875 -0.34375 C 9.3125 0.0390625 8.320312 0.234375 7.21875 0.234375 Z M 7.21875 0.234375 "/></g></g></g><g fill="#ffffff" fill-opacity="1"><g transform="translate(190.196621, 236.936308)"><g/></g></g><g fill="#ffffff" fill-opacity="1"><g transform="translate(195.207856, 236.936308)"><g><path d="M 8.8125 0 L 6.3125 -3.734375 L 3.859375 0 L -0.03125 0 L 4.359375 -6.09375 L 0.15625 -12.046875 L 4 -12.046875 L 6.40625 -8.578125 L 8.78125 -12.046875 L 12.46875 -12.046875 L 8.265625 -6.234375 L 12.734375 0 Z M 8.8125 0 "/></g></g></g><g fill="#ffffff" fill-opacity="1"><g transform="translate(207.899541, 236.936308)"><g/></g></g><g fill="#ffffff" fill-opacity="1"><g transform="translate(212.910775, 236.936308)"><g><path d="M 7.21875 0.234375 C 5.957031 0.234375 4.820312 -0.03125 3.8125 -0.5625 C 2.8125 -1.09375 2.019531 -1.832031 1.4375 -2.78125 C 0.863281 -3.738281 0.578125 -4.820312 0.578125 -6.03125 C 0.578125 -7.226562 0.863281 -8.300781 1.4375 -9.25 C 2.019531 -10.207031 2.8125 -10.953125 3.8125 -11.484375 C 4.820312 -12.023438 5.957031 -12.296875 7.21875 -12.296875 C 8.320312 -12.296875 9.3125 -12.097656 10.1875 -11.703125 C 11.070312 -11.316406 11.804688 -10.753906 12.390625 -10.015625 L 10.234375 -8.0625 C 9.453125 -9 8.503906 -9.46875 7.390625 -9.46875 C 6.734375 -9.46875 6.148438 -9.320312 5.640625 -9.03125 C 5.128906 -8.75 4.734375 -8.347656 4.453125 -7.828125 C 4.171875 -7.304688 4.03125 -6.707031 4.03125 -6.03125 C 4.03125 -5.351562 4.171875 -4.75 4.453125 -4.21875 C 4.734375 -3.695312 5.128906 -3.289062 5.640625 -3 C 6.148438 -2.71875 6.734375 -2.578125 7.390625 -2.578125 C 8.503906 -2.578125 9.453125 -3.050781 10.234375 -4 L 12.390625 -2.03125 C 11.804688 -1.300781 11.070312 -0.738281 10.1875 -0.34375 C 9.3125 0.0390625 8.320312 0.234375 7.21875 0.234375 Z M 7.21875 0.234375 "/></g></g></g><g fill="#ffffff" fill-opacity="1"><g transform="translate(225.619678, 236.936308)"><g><path d="M 7.28125 0.234375 C 6.007812 0.234375 4.863281 -0.03125 3.84375 -0.5625 C 2.832031 -1.101562 2.035156 -1.847656 1.453125 -2.796875 C 0.867188 -3.753906 0.578125 -4.832031 0.578125 -6.03125 C 0.578125 -7.21875 0.867188 -8.285156 1.453125 -9.234375 C 2.035156 -10.191406 2.832031 -10.941406 3.84375 -11.484375 C 4.863281 -12.023438 6.007812 -12.296875 7.28125 -12.296875 C 8.550781 -12.296875 9.695312 -12.023438 10.71875 -11.484375 C 11.738281 -10.941406 12.535156 -10.191406 13.109375 -9.234375 C 13.691406 -8.285156 13.984375 -7.21875 13.984375 -6.03125 C 13.984375 -4.832031 13.691406 -3.753906 13.109375 -2.796875 C 12.535156 -1.847656 11.738281 -1.101562 10.71875 -0.5625 C 9.695312 -0.03125 8.550781 0.234375 7.28125 0.234375 Z M 7.28125 -2.578125 C 7.894531 -2.578125 8.445312 -2.71875 8.9375 -3 C 9.425781 -3.289062 9.8125 -3.695312 10.09375 -4.21875 C 10.382812 -4.75 10.53125 -5.351562 10.53125 -6.03125 C 10.53125 -6.707031 10.382812 -7.304688 10.09375 -7.828125 C 9.8125 -8.347656 9.425781 -8.75 8.9375 -9.03125 C 8.445312 -9.320312 7.894531 -9.46875 7.28125 -9.46875 C 6.675781 -9.46875 6.125 -9.320312 5.625 -9.03125 C 5.132812 -8.75 4.742188 -8.347656 4.453125 -7.828125 C 4.171875 -7.304688 4.03125 -6.707031 4.03125 -6.03125 C 4.03125 -5.351562 4.171875 -4.75 4.453125 -4.21875 C 4.742188 -3.695312 5.132812 -3.289062 5.625 -3 C 6.125 -2.71875 6.675781 -2.578125 7.28125 -2.578125 Z M 7.28125 -2.578125 "/></g></g></g><g fill="#ffffff" fill-opacity="1"><g transform="translate(240.188427, 236.936308)"><g><path d="M 1.203125 -12.046875 L 6.90625 -12.046875 C 8.226562 -12.046875 9.398438 -11.800781 10.421875 -11.3125 C 11.441406 -10.820312 12.234375 -10.125 12.796875 -9.21875 C 13.359375 -8.3125 13.640625 -7.25 13.640625 -6.03125 C 13.640625 -4.8125 13.359375 -3.75 12.796875 -2.84375 C 12.234375 -1.9375 11.441406 -1.234375 10.421875 -0.734375 C 9.398438 -0.242188 8.226562 0 6.90625 0 L 1.203125 0 Z M 6.765625 -2.71875 C 7.796875 -2.71875 8.625 -3.007812 9.25 -3.59375 C 9.875 -4.1875 10.1875 -5 10.1875 -6.03125 C 10.1875 -7.0625 9.875 -7.867188 9.25 -8.453125 C 8.625 -9.035156 7.796875 -9.328125 6.765625 -9.328125 L 4.609375 -9.328125 L 4.609375 -2.71875 Z M 6.765625 -2.71875 "/></g></g></g><g fill="#ffffff" fill-opacity="1"><g transform="translate(254.412765, 236.936308)"><g><path d="M 10.875 -2.640625 L 10.875 0 L 1.203125 0 L 1.203125 -12.046875 L 10.65625 -12.046875 L 10.65625 -9.421875 L 4.578125 -9.421875 L 4.578125 -7.390625 L 9.9375 -7.390625 L 9.9375 -4.84375 L 4.578125 -4.84375 L 4.578125 -2.640625 Z M 10.875 -2.640625 "/></g></g></g><g fill="#ffffff" fill-opacity="1"><g transform="translate(265.985105, 236.936308)"><g><path d="M 1.203125 -12.046875 L 6.90625 -12.046875 C 8.226562 -12.046875 9.398438 -11.800781 10.421875 -11.3125 C 11.441406 -10.820312 12.234375 -10.125 12.796875 -9.21875 C 13.359375 -8.3125 13.640625 -7.25 13.640625 -6.03125 C 13.640625 -4.8125 13.359375 -3.75 12.796875 -2.84375 C 12.234375 -1.9375 11.441406 -1.234375 10.421875 -0.734375 C 9.398438 -0.242188 8.226562 0 6.90625 0 L 1.203125 0 Z M 6.765625 -2.71875 C 7.796875 -2.71875 8.625 -3.007812 9.25 -3.59375 C 9.875 -4.1875 10.1875 -5 10.1875 -6.03125 C 10.1875 -7.0625 9.875 -7.867188 9.25 -8.453125 C 8.625 -9.035156 7.796875 -9.328125 6.765625 -9.328125 L 4.609375 -9.328125 L 4.609375 -2.71875 Z M 6.765625 -2.71875 "/></g></g></g></svg>