<svg xmlns="http://www.w3.org/2000/svg" xmlns:xlink="http://www.w3.org/1999/xlink" width="500" zoomAndPan="magnify" viewBox="0 0 375 374.999991" height="500" preserveAspectRatio="xMidYMid meet" version="1.0"><defs><g/><clipPath id="90f4f754dd"><path d="M 163.15625 143.203125 L 251.65625 143.203125 L 251.65625 231.703125 L 163.15625 231.703125 Z M 163.15625 143.203125 " clip-rule="nonzero"/></clipPath><clipPath id="de0d99fcbe"><path d="M 123.253906 162.574219 L 166 162.574219 L 166 212.074219 L 123.253906 212.074219 Z M 123.253906 162.574219 " clip-rule="nonzero"/></clipPath></defs><rect x="-37.5" width="450" fill="#ffffff" y="-37.499999" height="449.999989" fill-opacity="1"/><rect x="-37.5" width="450" fill="#ed1c0d" y="-37.499999" height="449.999989" fill-opacity="1"/><g clip-path="url(#90f4f754dd)"><path fill="#120e0d" d="M 251.730469 187.496094 C 251.730469 188.945312 251.660156 190.390625 251.519531 191.835938 C 251.375 193.28125 251.164062 194.710938 250.878906 196.136719 C 250.597656 197.558594 250.246094 198.964844 249.824219 200.351562 C 249.402344 201.738281 248.914062 203.105469 248.359375 204.445312 C 247.804688 205.785156 247.1875 207.09375 246.503906 208.371094 C 245.820312 209.652344 245.074219 210.894531 244.269531 212.101562 C 243.460938 213.308594 242.597656 214.46875 241.679688 215.589844 C 240.757812 216.710938 239.785156 217.785156 238.761719 218.8125 C 237.734375 219.835938 236.660156 220.8125 235.539062 221.730469 C 234.417969 222.652344 233.253906 223.515625 232.046875 224.320312 C 230.84375 225.125 229.601562 225.871094 228.320312 226.554688 C 227.042969 227.238281 225.730469 227.859375 224.390625 228.414062 C 223.050781 228.96875 221.6875 229.457031 220.300781 229.875 C 218.910156 230.296875 217.503906 230.648438 216.082031 230.933594 C 214.660156 231.214844 213.226562 231.429688 211.785156 231.570312 C 210.339844 231.710938 208.894531 231.785156 207.441406 231.785156 C 205.992188 231.785156 204.546875 231.710938 203.101562 231.570312 C 201.660156 231.429688 200.226562 231.214844 198.800781 230.933594 C 197.378906 230.648438 195.972656 230.296875 194.585938 229.875 C 193.199219 229.457031 191.835938 228.96875 190.496094 228.414062 C 189.152344 227.859375 187.84375 227.238281 186.566406 226.554688 C 185.285156 225.871094 184.042969 225.125 182.835938 224.320312 C 181.632812 223.515625 180.46875 222.652344 179.347656 221.730469 C 178.226562 220.8125 177.152344 219.835938 176.125 218.8125 C 175.101562 217.785156 174.128906 216.710938 173.207031 215.589844 C 172.285156 214.46875 171.421875 213.308594 170.617188 212.101562 C 169.8125 210.894531 169.066406 209.652344 168.382812 208.371094 C 167.699219 207.09375 167.082031 205.785156 166.523438 204.445312 C 165.96875 203.105469 165.480469 201.738281 165.0625 200.351562 C 164.640625 198.964844 164.289062 197.558594 164.003906 196.136719 C 163.722656 194.710938 163.507812 193.28125 163.367188 191.835938 C 163.226562 190.390625 163.152344 188.945312 163.152344 187.496094 C 163.152344 186.042969 163.226562 184.597656 163.367188 183.152344 C 163.507812 181.710938 163.722656 180.277344 164.003906 178.855469 C 164.289062 177.433594 164.640625 176.027344 165.0625 174.636719 C 165.480469 173.25 165.96875 171.886719 166.523438 170.546875 C 167.082031 169.207031 167.699219 167.898438 168.382812 166.617188 C 169.066406 165.339844 169.8125 164.09375 170.617188 162.890625 C 171.421875 161.683594 172.285156 160.519531 173.207031 159.398438 C 174.128906 158.277344 175.101562 157.203125 176.125 156.179688 C 177.152344 155.152344 178.226562 154.179688 179.347656 153.257812 C 180.46875 152.339844 181.632812 151.476562 182.835938 150.671875 C 184.042969 149.863281 185.285156 149.121094 186.566406 148.4375 C 187.84375 147.75 189.152344 147.132812 190.496094 146.578125 C 191.835938 146.023438 193.199219 145.535156 194.585938 145.113281 C 195.972656 144.691406 197.378906 144.339844 198.800781 144.058594 C 200.226562 143.773438 201.660156 143.5625 203.101562 143.417969 C 204.546875 143.277344 205.992188 143.207031 207.441406 143.207031 C 208.894531 143.207031 210.339844 143.277344 211.785156 143.417969 C 213.226562 143.5625 214.660156 143.773438 216.082031 144.058594 C 217.503906 144.339844 218.910156 144.691406 220.300781 145.113281 C 221.6875 145.535156 223.050781 146.023438 224.390625 146.578125 C 225.730469 147.132812 227.042969 147.75 228.320312 148.4375 C 229.601562 149.121094 230.84375 149.863281 232.046875 150.671875 C 233.253906 151.476562 234.417969 152.339844 235.539062 153.257812 C 236.660156 154.179688 237.734375 155.152344 238.761719 156.179688 C 239.785156 157.203125 240.757812 158.277344 241.679688 159.398438 C 242.597656 160.519531 243.460938 161.683594 244.269531 162.890625 C 245.074219 164.09375 245.820312 165.339844 246.503906 166.617188 C 247.1875 167.898438 247.804688 169.207031 248.359375 170.546875 C 248.914062 171.886719 249.402344 173.25 249.824219 174.636719 C 250.246094 176.027344 250.597656 177.433594 250.878906 178.855469 C 251.164062 180.277344 251.375 181.710938 251.519531 183.152344 C 251.660156 184.597656 251.730469 186.042969 251.730469 187.496094 Z M 251.730469 187.496094 " fill-opacity="1" fill-rule="nonzero"/></g><g clip-path="url(#de0d99fcbe)"><path fill="#f0e7e2" d="M 152.207031 212.242188 C 152.019531 212.148438 149.976562 210.445312 147.667969 208.457031 C 145.359375 206.472656 143.390625 204.785156 143.296875 204.710938 C 143.144531 204.589844 143.074219 204.609375 142.710938 204.871094 C 139.011719 207.515625 135.238281 209.527344 131.15625 211.03125 C 128.980469 211.832031 127.941406 211.976562 127.695312 211.519531 C 127.5 211.152344 127.730469 210.890625 128.671875 210.417969 C 132.261719 208.613281 136.660156 205.558594 139.578125 202.835938 L 140.082031 202.367188 L 139.359375 201.867188 C 138.960938 201.59375 138.015625 201 137.257812 200.546875 C 135.90625 199.742188 135.875 199.726562 135.65625 199.894531 C 135.535156 199.988281 134.851562 200.570312 134.132812 201.191406 C 131.730469 203.265625 130.699219 204.03125 127.507812 206.117188 C 126.277344 206.921875 125.867188 207.140625 125.597656 207.140625 C 125.332031 207.140625 125.234375 207.089844 125.152344 206.90625 C 125.089844 206.773438 125.070312 206.566406 125.101562 206.441406 C 125.132812 206.316406 125.828125 205.589844 126.652344 204.832031 C 131.027344 200.78125 134.164062 197.15625 135.339844 194.792969 C 136.015625 193.4375 136.074219 193.078125 135.847656 191.703125 C 135.800781 191.417969 135.832031 191.304688 136 191.132812 C 136.175781 190.957031 136.28125 190.929688 136.621094 190.984375 C 137.109375 191.0625 138.167969 191.535156 138.609375 191.871094 C 139.039062 192.199219 139.96875 193.359375 140.148438 193.796875 C 140.355469 194.285156 140.335938 194.460938 140.050781 194.886719 L 139.800781 195.25 L 140.320312 195.183594 C 142.097656 194.953125 145.078125 194.175781 146.371094 193.605469 C 146.96875 193.34375 147.253906 193.269531 147.519531 193.304688 C 147.976562 193.367188 150.527344 194.546875 151.234375 195.019531 C 151.671875 195.316406 151.773438 195.4375 151.800781 195.695312 C 151.828125 195.988281 151.699219 196.136719 150.085938 197.742188 C 149.125 198.699219 147.671875 200.164062 146.859375 201.003906 L 145.382812 202.53125 L 146.574219 203.167969 C 150.402344 205.214844 155.910156 207.332031 162.890625 209.441406 C 164.390625 209.894531 165.695312 210.335938 165.792969 210.425781 C 165.894531 210.515625 165.972656 210.691406 165.972656 210.816406 C 165.972656 211.304688 165.761719 211.339844 159.335938 211.890625 C 156.035156 212.175781 153.152344 212.410156 152.9375 212.410156 C 152.71875 212.414062 152.390625 212.335938 152.203125 212.242188 Z M 142.5 199.941406 C 143.855469 198.414062 145.464844 196.285156 145.304688 196.234375 C 145.261719 196.222656 143.613281 196.507812 141.636719 196.875 L 138.046875 197.539062 L 137.5625 198.015625 C 137.296875 198.28125 137.078125 198.523438 137.078125 198.558594 C 137.078125 198.707031 141.398438 200.582031 141.765625 200.597656 C 141.851562 200.597656 142.179688 200.304688 142.5 199.941406 Z M 129.144531 193.28125 C 128.503906 192.777344 128.050781 190.199219 128.421875 189.175781 C 128.492188 188.988281 128.832031 188.417969 129.175781 187.910156 C 129.519531 187.402344 130.175781 186.234375 130.632812 185.324219 L 131.460938 183.660156 L 131.832031 183.632812 C 132.175781 183.601562 132.210938 183.625 132.355469 183.972656 C 132.492188 184.289062 132.503906 184.609375 132.449219 186.136719 C 132.304688 190.21875 131.644531 192.496094 130.378906 193.238281 C 129.894531 193.523438 129.472656 193.539062 129.144531 193.28125 Z M 145.179688 192.203125 C 139.402344 191.679688 135.621094 189.644531 133.816406 186.089844 C 133.417969 185.300781 133.378906 184.96875 133.660156 184.6875 C 134.035156 184.308594 134.382812 184.453125 134.953125 185.222656 C 135.472656 185.925781 136.375 186.796875 136.972656 187.171875 C 138.472656 188.121094 140.886719 188.667969 144.578125 188.894531 C 146.625 189.023438 147.664062 188.980469 147.886719 188.757812 C 148.027344 188.617188 147.984375 188.476562 147.375 187.15625 C 146.847656 186.015625 146.707031 185.609375 146.703125 185.222656 C 146.691406 184.738281 146.695312 184.734375 147.019531 184.703125 C 147.3125 184.675781 147.433594 184.761719 148.335938 185.636719 C 150.582031 187.8125 151.363281 188.414062 153.050781 189.257812 C 153.484375 189.476562 153.960938 189.796875 154.109375 189.972656 C 154.339844 190.246094 154.371094 190.355469 154.328125 190.730469 C 154.203125 191.839844 152.9375 192.179688 148.644531 192.246094 C 147.25 192.269531 145.691406 192.25 145.179688 192.203125 Z M 124.121094 189.347656 C 123.613281 188.796875 123.273438 187.535156 123.265625 186.191406 C 123.261719 185.339844 123.277344 185.285156 123.617188 184.726562 C 124.671875 183.007812 125.046875 181.882812 125.136719 180.160156 C 125.191406 179.078125 125.210938 179 125.421875 178.902344 C 125.777344 178.742188 126.070312 179.011719 126.546875 179.945312 L 126.972656 180.78125 L 127.65625 180.78125 C 128.03125 180.78125 129.019531 180.648438 129.851562 180.484375 C 132.347656 180 135.386719 179.449219 140.636719 178.53125 C 143.402344 178.046875 145.664062 177.605469 145.726562 177.535156 C 145.851562 177.40625 148.636719 172.0625 149.046875 171.171875 C 149.273438 170.675781 149.28125 170.601562 149.179688 170.015625 C 149.089844 169.496094 149.097656 169.328125 149.21875 169.035156 C 149.402344 168.589844 149.636719 168.527344 150.566406 168.667969 C 151.511719 168.808594 152.550781 169.324219 153.222656 169.980469 C 154.023438 170.761719 154.296875 171.4375 154.101562 172.164062 C 154.054688 172.339844 150.878906 175.238281 148.742188 177.058594 C 148.527344 177.242188 148.433594 177.363281 148.527344 177.328125 C 148.625 177.296875 149.417969 177.15625 150.285156 177.019531 C 153.914062 176.449219 156.40625 175.972656 157.191406 175.707031 C 158.363281 175.304688 158.746094 175.257812 159.152344 175.464844 C 160.050781 175.921875 163.78125 178.742188 164.121094 179.222656 C 164.433594 179.65625 164.453125 179.941406 164.199219 180.238281 C 163.988281 180.480469 163.890625 180.507812 162.898438 180.59375 C 162.308594 180.644531 161.738281 180.714844 161.632812 180.746094 C 161.527344 180.78125 160.253906 181.429688 158.804688 182.1875 L 156.164062 183.5625 L 156.761719 184.175781 C 158.722656 186.1875 158.757812 189.148438 156.816406 188.949219 C 156.179688 188.886719 155.484375 188.351562 153.722656 186.585938 C 152.074219 184.933594 150.835938 183.804688 149.382812 182.628906 C 148.476562 181.894531 148.300781 181.65625 148.5 181.414062 C 148.835938 181.011719 149.917969 181.191406 152.804688 182.140625 C 154.21875 182.601562 154.230469 182.605469 154.476562 182.425781 C 154.832031 182.167969 155.6875 181.09375 156.488281 179.894531 C 157.28125 178.710938 157.449219 178.359375 157.25 178.28125 C 157.101562 178.226562 148.988281 179.375 142.691406 180.34375 C 139.066406 180.902344 128.628906 182.609375 127.742188 182.789062 L 127.4375 182.851562 L 127.371094 183.742188 C 127.175781 186.34375 126.347656 188.878906 125.527344 189.375 C 125.082031 189.648438 124.382812 189.632812 124.121094 189.347656 Z M 141.8125 187.3125 C 140.199219 186.277344 138.394531 184.671875 138.019531 183.933594 C 137.816406 183.53125 137.742188 182.988281 137.851562 182.699219 C 138.015625 182.265625 138.355469 182.269531 139.308594 182.722656 C 139.773438 182.941406 140.285156 183.125 140.445312 183.125 C 140.605469 183.121094 141.15625 183.03125 141.664062 182.925781 C 144.210938 182.382812 144.445312 182.363281 144.519531 182.710938 C 144.539062 182.804688 144.453125 183.253906 144.328125 183.710938 C 144.207031 184.167969 144.0625 184.992188 144.007812 185.546875 C 143.890625 186.8125 143.765625 187.28125 143.46875 187.578125 C 143.097656 187.949219 142.710938 187.886719 141.8125 187.3125 Z M 133.316406 179.269531 C 132.832031 179.074219 132.558594 178.855469 131.707031 177.972656 C 130.089844 176.300781 128.75 174.289062 128.738281 173.515625 C 128.730469 173.171875 128.757812 173.113281 128.957031 173.085938 C 129.082031 173.066406 129.871094 173.328125 130.714844 173.660156 C 133.152344 174.632812 133.761719 174.9375 134.183594 175.410156 C 135.199219 176.539062 135.621094 178.777344 134.921875 179.339844 C 134.628906 179.582031 134.015625 179.554688 133.316406 179.269531 Z M 141.628906 177.808594 C 141.023438 177.589844 140.273438 177.019531 139.449219 176.160156 C 138.171875 174.828125 136.84375 172.617188 136.898438 171.925781 C 136.929688 171.574219 136.949219 171.554688 137.292969 171.523438 C 137.710938 171.492188 139.4375 172.074219 140.835938 172.722656 C 141.859375 173.199219 142.3125 173.644531 142.761719 174.597656 C 143.253906 175.65625 143.25 177.242188 142.753906 177.691406 C 142.5 177.921875 142.058594 177.96875 141.628906 177.808594 Z M 129.484375 172.285156 C 129.316406 172.21875 129.265625 172.117188 129.265625 171.851562 C 129.265625 171.394531 129.476562 171.199219 130.351562 170.871094 C 133.40625 169.722656 136.082031 168.667969 137.90625 167.894531 C 140.160156 166.933594 143.714844 165.199219 144.546875 164.652344 L 145.035156 164.328125 L 145.082031 163.613281 C 145.140625 162.777344 145.304688 162.574219 145.859375 162.660156 C 146.652344 162.785156 148.265625 164.257812 149.320312 165.820312 C 149.859375 166.617188 149.964844 166.839844 149.964844 167.179688 C 149.964844 167.683594 149.703125 167.921875 148.960938 168.09375 C 148.679688 168.15625 147.792969 168.402344 146.984375 168.632812 C 142.554688 169.914062 138.082031 170.945312 132.65625 171.941406 C 130.152344 172.402344 129.855469 172.433594 129.484375 172.285156 Z M 129.484375 172.285156 " fill-opacity="1" fill-rule="nonzero"/></g><g fill="#f0e7e2" fill-opacity="1"><g transform="translate(166.000378, 204.045221)"><g><path d="M 9.4375 -30.382812 C 9.136719 -30.382812 8.835938 -30.296875 8.578125 -30.296875 C 8.535156 -30.296875 8.535156 -30.296875 8.488281 -30.296875 L 8.316406 -30.296875 C 8.273438 -30.296875 8.230469 -30.296875 8.1875 -30.296875 L 8.101562 -30.296875 C 7.929688 -30.296875 7.714844 -30.296875 7.5 -30.253906 C 7.152344 -30.167969 6.808594 -30.039062 6.464844 -29.910156 C 6.164062 -29.824219 5.816406 -29.695312 5.515625 -29.523438 C 5.214844 -29.347656 4.871094 -29.261719 4.613281 -29.046875 C 4.394531 -28.875 4.136719 -28.660156 3.921875 -28.445312 L 3.964844 -28.359375 C 3.835938 -28.273438 3.664062 -28.230469 3.621094 -28.140625 C 3.621094 -28.140625 3.664062 -28.097656 3.664062 -28.054688 L 3.535156 -27.96875 C 3.40625 -27.839844 3.320312 -27.753906 3.1875 -27.625 L 2.714844 -27.023438 C 2.542969 -26.761719 2.371094 -26.503906 2.242188 -26.203125 C 2.15625 -26.117188 2.15625 -25.988281 2.070312 -25.859375 C 1.9375 -25.644531 1.808594 -25.382812 1.722656 -25.125 C 1.59375 -24.867188 1.59375 -24.566406 1.507812 -24.308594 L 1.378906 -23.875 C 1.335938 -23.660156 1.207031 -23.488281 1.164062 -23.273438 C 1.121094 -23.058594 1.164062 -22.839844 1.164062 -22.625 C 1.121094 -22.496094 1.121094 -22.324219 1.078125 -22.152344 C 1.078125 -22.152344 1.121094 -22.109375 1.078125 -22.109375 C 1.078125 -21.9375 1.078125 -21.765625 1.121094 -21.636719 C 1.121094 -21.417969 1.078125 -21.246094 1.078125 -21.074219 C 1.078125 -20.988281 1.164062 -20.859375 1.164062 -20.773438 L 1.292969 -20.082031 C 1.335938 -19.910156 1.292969 -19.695312 1.335938 -19.523438 C 1.421875 -19.265625 1.59375 -19.050781 1.679688 -18.832031 C 1.722656 -18.660156 1.722656 -18.488281 1.808594 -18.359375 C 1.894531 -18.101562 2.027344 -17.886719 2.15625 -17.625 C 2.285156 -17.453125 2.371094 -17.195312 2.542969 -16.9375 C 2.671875 -16.722656 2.886719 -16.550781 3.058594 -16.332031 C 3.230469 -16.074219 3.363281 -15.773438 3.535156 -15.515625 C 3.664062 -15.300781 3.835938 -15.128906 4.007812 -14.910156 C 4.179688 -14.695312 4.308594 -14.4375 4.480469 -14.222656 C 4.613281 -14.050781 4.699219 -13.835938 4.828125 -13.660156 L 5.472656 -12.886719 C 5.6875 -12.542969 5.859375 -12.195312 6.121094 -11.851562 C 6.292969 -11.636719 6.464844 -11.464844 6.59375 -11.207031 C 6.808594 -10.945312 7.066406 -10.644531 7.242188 -10.34375 C 7.414062 -10.085938 7.5 -9.828125 7.585938 -9.523438 C 7.671875 -9.265625 7.714844 -9.007812 7.714844 -8.75 C 7.714844 -8.578125 7.757812 -8.445312 7.757812 -8.273438 L 7.757812 -8.1875 C 7.757812 -8.058594 7.671875 -7.972656 7.628906 -7.886719 C 7.585938 -7.757812 7.5 -7.628906 7.457031 -7.457031 C 7.371094 -7.328125 7.285156 -7.152344 7.152344 -6.980469 C 6.980469 -6.765625 6.808594 -6.59375 6.59375 -6.421875 C 6.421875 -6.335938 6.25 -6.164062 6.035156 -6.078125 C 5.773438 -5.949219 5.472656 -5.816406 5.171875 -5.730469 C 4.914062 -5.644531 4.65625 -5.644531 4.394531 -5.644531 C 4.222656 -5.601562 4.09375 -5.601562 3.921875 -5.601562 C 3.878906 -5.601562 3.75 -5.515625 3.707031 -5.515625 C 3.664062 -5.515625 3.621094 -5.515625 3.621094 -5.515625 L 3.578125 -5.515625 C 3.449219 -5.515625 3.363281 -5.601562 3.230469 -5.601562 C 3.144531 -5.601562 3.015625 -5.644531 2.886719 -5.644531 C 2.84375 -5.644531 2.84375 -5.644531 2.800781 -5.644531 L 2.628906 -5.644531 C 2.585938 -5.644531 2.542969 -5.644531 2.5 -5.644531 L 2.414062 -5.644531 C 2.285156 -5.644531 1.984375 -5.6875 1.894531 -5.644531 C 1.808594 -5.558594 1.808594 -5.472656 1.808594 -5.34375 C 1.808594 -5.257812 1.722656 -5.128906 1.722656 -5.042969 L 1.722656 -0.992188 C 1.722656 -0.863281 1.808594 -0.734375 1.851562 -0.601562 C 1.851562 -0.429688 1.9375 -0.34375 2.070312 -0.257812 C 2.15625 -0.214844 2.285156 -0.128906 2.414062 -0.0859375 C 2.628906 0 2.84375 0.0429688 3.058594 0.0859375 C 3.277344 0.128906 3.492188 0.128906 3.621094 0.171875 C 3.835938 0.214844 4.050781 0.300781 4.222656 0.34375 L 4.308594 0.34375 C 4.351562 0.34375 4.4375 0.300781 4.523438 0.300781 L 5.515625 0.34375 C 5.515625 0.34375 5.515625 0.34375 5.558594 0.34375 L 5.558594 0.257812 C 5.558594 0.257812 5.601562 0.257812 5.601562 0.257812 L 5.816406 0.257812 C 5.90625 0.300781 5.949219 0.300781 6.035156 0.300781 L 6.078125 0.300781 C 6.378906 0.257812 6.636719 0.214844 6.9375 0.128906 C 7.328125 0.0429688 7.671875 -0.171875 8.058594 -0.34375 C 8.402344 -0.472656 8.75 -0.515625 9.007812 -0.691406 C 9.222656 -0.820312 9.4375 -0.949219 9.609375 -1.078125 L 9.957031 -1.335938 C 10.128906 -1.464844 10.34375 -1.59375 10.515625 -1.765625 C 10.644531 -1.851562 10.773438 -1.984375 10.902344 -2.113281 C 11.117188 -2.285156 11.335938 -2.457031 11.550781 -2.714844 C 11.636719 -2.800781 11.722656 -2.929688 11.808594 -3.058594 C 11.980469 -3.230469 12.109375 -3.449219 12.238281 -3.664062 C 12.410156 -3.878906 12.457031 -4.136719 12.585938 -4.394531 C 12.757812 -4.742188 13.015625 -5.042969 13.144531 -5.386719 C 13.273438 -5.773438 13.402344 -6.164062 13.488281 -6.550781 L 13.617188 -7.195312 C 13.660156 -7.414062 13.660156 -7.628906 13.660156 -7.84375 C 13.703125 -8.015625 13.703125 -8.1875 13.75 -8.359375 L 13.703125 -8.402344 C 13.75 -8.578125 13.75 -8.75 13.75 -8.921875 L 13.75 -9.4375 C 13.75 -9.566406 13.703125 -9.652344 13.703125 -9.78125 C 13.660156 -9.914062 13.703125 -10.042969 13.660156 -10.171875 C 13.617188 -10.429688 13.574219 -10.730469 13.488281 -10.988281 L 13.230469 -11.851562 C 13.1875 -11.980469 13.101562 -12.109375 13.015625 -12.238281 C 12.929688 -12.457031 12.800781 -12.714844 12.671875 -12.929688 C 12.628906 -13.058594 12.542969 -13.1875 12.457031 -13.316406 C 12.324219 -13.488281 12.28125 -13.660156 12.152344 -13.835938 C 12.023438 -14.007812 11.808594 -14.136719 11.722656 -14.351562 C 11.550781 -14.523438 11.464844 -14.738281 11.335938 -14.953125 L 10.988281 -15.472656 C 10.816406 -15.644531 10.730469 -15.859375 10.601562 -16.074219 C 10.429688 -16.289062 10.257812 -16.464844 10.085938 -16.722656 C 9.957031 -16.894531 9.78125 -17.066406 9.652344 -17.28125 C 9.480469 -17.496094 9.351562 -17.667969 9.179688 -17.886719 L 8.75 -18.402344 C 8.664062 -18.574219 8.535156 -18.746094 8.402344 -18.917969 C 8.273438 -19.136719 8.144531 -19.351562 7.972656 -19.523438 C 7.84375 -19.738281 7.757812 -19.953125 7.628906 -20.125 C 7.542969 -20.253906 7.5 -20.386719 7.414062 -20.558594 L 7.152344 -21.160156 C 7.109375 -21.375 7.023438 -21.589844 7.023438 -21.851562 L 7.066406 -22.023438 C 7.066406 -22.238281 7.195312 -22.453125 7.285156 -22.667969 C 7.328125 -22.796875 7.285156 -22.929688 7.328125 -23.058594 C 7.371094 -23.230469 7.5 -23.359375 7.585938 -23.488281 L 7.886719 -23.875 C 8.015625 -24.003906 8.1875 -24.132812 8.359375 -24.222656 C 8.535156 -24.394531 8.707031 -24.480469 8.878906 -24.609375 C 9.136719 -24.695312 9.394531 -24.78125 9.695312 -24.824219 C 9.871094 -24.824219 10 -24.867188 10.128906 -24.867188 L 10.257812 -24.867188 C 10.34375 -24.824219 10.472656 -24.78125 10.558594 -24.78125 L 10.601562 -24.78125 C 10.773438 -24.824219 10.859375 -24.910156 10.902344 -25.039062 C 10.945312 -25.125 10.945312 -25.210938 10.945312 -25.296875 C 10.945312 -26.03125 10.988281 -26.761719 10.988281 -27.496094 L 10.902344 -27.496094 C 10.902344 -28.140625 10.902344 -28.789062 10.902344 -29.433594 L 10.902344 -29.695312 C 10.902344 -29.824219 10.945312 -29.953125 10.859375 -30.082031 C 10.816406 -30.125 10.730469 -30.125 10.6875 -30.167969 C 10.558594 -30.210938 10.472656 -30.253906 10.386719 -30.253906 C 10.386719 -30.296875 10.34375 -30.296875 10.34375 -30.296875 C 10.300781 -30.296875 10.300781 -30.253906 10.257812 -30.253906 C 10.214844 -30.253906 10.171875 -30.253906 10.128906 -30.253906 L 10.085938 -30.253906 C 10.085938 -30.253906 9.308594 -30.425781 9.4375 -30.382812 Z M 9.4375 -30.382812 "/></g></g></g><g fill="#f0e7e2" fill-opacity="1"><g transform="translate(180.822697, 204.045221)"><g><path d="M 19.179688 -18.832031 C 19.179688 -17.667969 19.308594 -16.507812 19.308594 -15.300781 C 19.308594 -14.136719 19.265625 -12.929688 19.265625 -11.765625 L 19.265625 -8.230469 C 19.265625 -8.101562 19.179688 -7.972656 19.179688 -7.84375 C 19.222656 -7.714844 19.265625 -7.628906 19.265625 -7.542969 C 19.265625 -7.328125 19.222656 -7.152344 19.179688 -6.9375 C 19.136719 -6.722656 19.09375 -6.507812 19.050781 -6.335938 L 18.917969 -5.515625 C 18.875 -5.429688 18.832031 -5.300781 18.832031 -5.214844 C 18.789062 -5.171875 18.746094 -5.128906 18.746094 -5.085938 C 18.660156 -4.871094 18.617188 -4.65625 18.53125 -4.480469 C 18.402344 -4.222656 18.1875 -3.964844 18.015625 -3.707031 C 17.929688 -3.492188 17.84375 -3.277344 17.667969 -3.101562 C 17.539062 -2.929688 17.410156 -2.757812 17.28125 -2.585938 L 16.765625 -2.070312 C 16.636719 -1.984375 16.507812 -1.851562 16.421875 -1.765625 C 16.246094 -1.59375 16.03125 -1.507812 15.859375 -1.335938 C 15.644531 -1.207031 15.429688 -1.035156 15.171875 -0.90625 C 14.996094 -0.820312 14.824219 -0.691406 14.609375 -0.601562 C 14.351562 -0.472656 14.136719 -0.300781 13.878906 -0.171875 C 13.703125 -0.128906 13.53125 -0.128906 13.402344 -0.0859375 C 13.316406 -0.0429688 13.1875 -0.0429688 13.101562 0 C 13.058594 0 13.058594 0.0429688 13.015625 0.0859375 C 12.714844 0.128906 12.457031 0.128906 12.152344 0.128906 C 12.023438 0.171875 11.851562 0.214844 11.722656 0.214844 L 11.550781 0.214844 C 11.507812 0.214844 11.421875 0.257812 11.378906 0.257812 L 11.378906 0.214844 C 11.25 0.171875 11.117188 0.34375 10.988281 0.300781 C 10.816406 0.300781 10.644531 0.300781 10.429688 0.257812 C 10.257812 0.257812 10.042969 0.257812 9.871094 0.214844 C 9.652344 0.171875 9.4375 0.128906 9.179688 0.0859375 L 8.835938 0 C 8.578125 -0.0859375 8.316406 -0.214844 8.058594 -0.300781 C 7.757812 -0.429688 7.414062 -0.515625 7.109375 -0.691406 C 6.808594 -0.863281 6.59375 -1.121094 6.335938 -1.292969 C 6.121094 -1.421875 5.949219 -1.59375 5.773438 -1.722656 C 5.515625 -1.9375 5.257812 -2.070312 5.042969 -2.285156 C 4.914062 -2.414062 4.828125 -2.671875 4.699219 -2.800781 C 4.523438 -3.015625 4.351562 -3.277344 4.222656 -3.492188 C 4.050781 -3.75 3.792969 -4.007812 3.664062 -4.308594 C 3.492188 -4.613281 3.449219 -5 3.320312 -5.34375 L 3.144531 -5.90625 C 3.144531 -6.078125 3.058594 -6.207031 3.015625 -6.378906 C 2.972656 -6.507812 2.972656 -6.636719 2.929688 -6.808594 C 2.886719 -6.980469 2.929688 -7.195312 2.929688 -7.414062 C 2.929688 -7.542969 2.800781 -7.671875 2.800781 -7.800781 L 2.800781 -8.101562 C 2.800781 -9.136719 2.84375 -10.171875 2.84375 -11.207031 C 2.84375 -12.195312 2.886719 -13.230469 2.886719 -14.265625 C 2.886719 -15.300781 2.84375 -16.332031 2.84375 -17.324219 C 2.84375 -18.359375 2.84375 -19.394531 2.84375 -20.429688 L 2.84375 -23.488281 C 2.84375 -24.523438 2.886719 -25.558594 2.886719 -26.546875 C 2.886719 -27.582031 2.84375 -28.617188 2.84375 -29.652344 C 2.84375 -29.738281 2.886719 -29.824219 2.929688 -29.953125 C 2.972656 -30.039062 2.972656 -30.167969 3.101562 -30.210938 L 3.230469 -30.210938 C 4.050781 -30.210938 4.871094 -30.125 5.644531 -30.125 C 6.464844 -30.125 7.242188 -30.167969 8.058594 -30.167969 C 8.101562 -30.167969 8.144531 -30.125 8.230469 -30.125 C 8.316406 -30.125 8.445312 -30.082031 8.445312 -30.039062 C 8.488281 -29.953125 8.488281 -29.867188 8.488281 -29.78125 C 8.488281 -29.738281 8.445312 -29.695312 8.445312 -29.652344 C 8.445312 -28.617188 8.488281 -27.625 8.488281 -26.589844 L 8.488281 -23.574219 C 8.488281 -22.582031 8.402344 -21.546875 8.402344 -20.558594 C 8.402344 -19.523438 8.445312 -18.53125 8.445312 -17.496094 C 8.445312 -16.507812 8.402344 -15.472656 8.402344 -14.480469 L 8.402344 -11.464844 C 8.402344 -10.429688 8.402344 -9.4375 8.402344 -8.402344 L 8.402344 -8.1875 C 8.359375 -8.1875 8.488281 -8.144531 8.488281 -8.101562 C 8.488281 -8.015625 8.402344 -7.929688 8.402344 -7.886719 C 8.445312 -7.757812 8.445312 -7.585938 8.488281 -7.457031 C 8.535156 -7.242188 8.621094 -7.023438 8.707031 -6.808594 C 8.792969 -6.636719 8.921875 -6.507812 9.050781 -6.335938 C 9.222656 -6.121094 9.4375 -5.949219 9.695312 -5.773438 C 9.914062 -5.644531 10.171875 -5.515625 10.429688 -5.472656 C 10.601562 -5.386719 10.773438 -5.34375 10.945312 -5.34375 C 11.25 -5.34375 11.507812 -5.429688 11.808594 -5.515625 C 12.109375 -5.601562 12.410156 -5.730469 12.671875 -5.949219 C 12.800781 -6.035156 12.886719 -6.121094 12.972656 -6.207031 C 13.058594 -6.292969 13.1875 -6.378906 13.230469 -6.464844 C 13.359375 -6.679688 13.445312 -6.894531 13.488281 -7.109375 C 13.574219 -7.285156 13.660156 -7.457031 13.660156 -7.628906 C 13.660156 -7.757812 13.703125 -7.886719 13.703125 -8.015625 C 13.703125 -8.058594 13.703125 -8.101562 13.703125 -8.101562 L 13.703125 -8.230469 C 13.703125 -8.316406 13.574219 -8.402344 13.574219 -8.488281 C 13.574219 -9.523438 13.660156 -10.515625 13.660156 -11.550781 C 13.660156 -12.542969 13.617188 -13.53125 13.617188 -14.566406 L 13.617188 -17.582031 C 13.617188 -18.574219 13.703125 -19.566406 13.703125 -20.601562 C 13.703125 -21.589844 13.617188 -22.582031 13.617188 -23.617188 C 13.617188 -24.609375 13.660156 -25.601562 13.660156 -26.632812 C 13.660156 -27.625 13.703125 -28.617188 13.703125 -29.652344 C 13.703125 -29.738281 13.617188 -29.824219 13.660156 -29.910156 C 13.703125 -30.082031 13.792969 -30.125 13.964844 -30.125 C 14.007812 -30.125 14.050781 -30.210938 14.050781 -30.210938 C 14.867188 -30.210938 15.644531 -30.125 16.464844 -30.125 C 17.238281 -30.125 18.058594 -30.210938 18.832031 -30.210938 C 18.917969 -30.210938 18.960938 -30.210938 19.050781 -30.167969 C 19.136719 -30.167969 19.179688 -30.082031 19.179688 -29.996094 L 19.265625 -29.78125 C 19.265625 -29.738281 19.179688 -29.652344 19.179688 -29.609375 C 19.179688 -28.445312 19.265625 -27.238281 19.265625 -26.03125 C 19.265625 -24.824219 19.222656 -23.617188 19.222656 -22.453125 C 19.222656 -21.246094 19.179688 -20.039062 19.179688 -18.832031 Z M 19.179688 -18.832031 "/></g></g></g><g fill="#f0e7e2" fill-opacity="1"><g transform="translate(202.926916, 204.045221)"><g><path d="M 9.4375 -30.382812 C 9.136719 -30.382812 8.835938 -30.296875 8.578125 -30.296875 C 8.535156 -30.296875 8.535156 -30.296875 8.488281 -30.296875 L 8.316406 -30.296875 C 8.273438 -30.296875 8.230469 -30.296875 8.1875 -30.296875 L 8.101562 -30.296875 C 7.929688 -30.296875 7.714844 -30.296875 7.5 -30.253906 C 7.152344 -30.167969 6.808594 -30.039062 6.464844 -29.910156 C 6.164062 -29.824219 5.816406 -29.695312 5.515625 -29.523438 C 5.214844 -29.347656 4.871094 -29.261719 4.613281 -29.046875 C 4.394531 -28.875 4.136719 -28.660156 3.921875 -28.445312 L 3.964844 -28.359375 C 3.835938 -28.273438 3.664062 -28.230469 3.621094 -28.140625 C 3.621094 -28.140625 3.664062 -28.097656 3.664062 -28.054688 L 3.535156 -27.96875 C 3.40625 -27.839844 3.320312 -27.753906 3.1875 -27.625 L 2.714844 -27.023438 C 2.542969 -26.761719 2.371094 -26.503906 2.242188 -26.203125 C 2.15625 -26.117188 2.15625 -25.988281 2.070312 -25.859375 C 1.9375 -25.644531 1.808594 -25.382812 1.722656 -25.125 C 1.59375 -24.867188 1.59375 -24.566406 1.507812 -24.308594 L 1.378906 -23.875 C 1.335938 -23.660156 1.207031 -23.488281 1.164062 -23.273438 C 1.121094 -23.058594 1.164062 -22.839844 1.164062 -22.625 C 1.121094 -22.496094 1.121094 -22.324219 1.078125 -22.152344 C 1.078125 -22.152344 1.121094 -22.109375 1.078125 -22.109375 C 1.078125 -21.9375 1.078125 -21.765625 1.121094 -21.636719 C 1.121094 -21.417969 1.078125 -21.246094 1.078125 -21.074219 C 1.078125 -20.988281 1.164062 -20.859375 1.164062 -20.773438 L 1.292969 -20.082031 C 1.335938 -19.910156 1.292969 -19.695312 1.335938 -19.523438 C 1.421875 -19.265625 1.59375 -19.050781 1.679688 -18.832031 C 1.722656 -18.660156 1.722656 -18.488281 1.808594 -18.359375 C 1.894531 -18.101562 2.027344 -17.886719 2.15625 -17.625 C 2.285156 -17.453125 2.371094 -17.195312 2.542969 -16.9375 C 2.671875 -16.722656 2.886719 -16.550781 3.058594 -16.332031 C 3.230469 -16.074219 3.363281 -15.773438 3.535156 -15.515625 C 3.664062 -15.300781 3.835938 -15.128906 4.007812 -14.910156 C 4.179688 -14.695312 4.308594 -14.4375 4.480469 -14.222656 C 4.613281 -14.050781 4.699219 -13.835938 4.828125 -13.660156 L 5.472656 -12.886719 C 5.6875 -12.542969 5.859375 -12.195312 6.121094 -11.851562 C 6.292969 -11.636719 6.464844 -11.464844 6.59375 -11.207031 C 6.808594 -10.945312 7.066406 -10.644531 7.242188 -10.34375 C 7.414062 -10.085938 7.5 -9.828125 7.585938 -9.523438 C 7.671875 -9.265625 7.714844 -9.007812 7.714844 -8.75 C 7.714844 -8.578125 7.757812 -8.445312 7.757812 -8.273438 L 7.757812 -8.1875 C 7.757812 -8.058594 7.671875 -7.972656 7.628906 -7.886719 C 7.585938 -7.757812 7.5 -7.628906 7.457031 -7.457031 C 7.371094 -7.328125 7.285156 -7.152344 7.152344 -6.980469 C 6.980469 -6.765625 6.808594 -6.59375 6.59375 -6.421875 C 6.421875 -6.335938 6.25 -6.164062 6.035156 -6.078125 C 5.773438 -5.949219 5.472656 -5.816406 5.171875 -5.730469 C 4.914062 -5.644531 4.65625 -5.644531 4.394531 -5.644531 C 4.222656 -5.601562 4.09375 -5.601562 3.921875 -5.601562 C 3.878906 -5.601562 3.75 -5.515625 3.707031 -5.515625 C 3.664062 -5.515625 3.621094 -5.515625 3.621094 -5.515625 L 3.578125 -5.515625 C 3.449219 -5.515625 3.363281 -5.601562 3.230469 -5.601562 C 3.144531 -5.601562 3.015625 -5.644531 2.886719 -5.644531 C 2.84375 -5.644531 2.84375 -5.644531 2.800781 -5.644531 L 2.628906 -5.644531 C 2.585938 -5.644531 2.542969 -5.644531 2.5 -5.644531 L 2.414062 -5.644531 C 2.285156 -5.644531 1.984375 -5.6875 1.894531 -5.644531 C 1.808594 -5.558594 1.808594 -5.472656 1.808594 -5.34375 C 1.808594 -5.257812 1.722656 -5.128906 1.722656 -5.042969 L 1.722656 -0.992188 C 1.722656 -0.863281 1.808594 -0.734375 1.851562 -0.601562 C 1.851562 -0.429688 1.9375 -0.34375 2.070312 -0.257812 C 2.15625 -0.214844 2.285156 -0.128906 2.414062 -0.0859375 C 2.628906 0 2.84375 0.0429688 3.058594 0.0859375 C 3.277344 0.128906 3.492188 0.128906 3.621094 0.171875 C 3.835938 0.214844 4.050781 0.300781 4.222656 0.34375 L 4.308594 0.34375 C 4.351562 0.34375 4.4375 0.300781 4.523438 0.300781 L 5.515625 0.34375 C 5.515625 0.34375 5.515625 0.34375 5.558594 0.34375 L 5.558594 0.257812 C 5.558594 0.257812 5.601562 0.257812 5.601562 0.257812 L 5.816406 0.257812 C 5.90625 0.300781 5.949219 0.300781 6.035156 0.300781 L 6.078125 0.300781 C 6.378906 0.257812 6.636719 0.214844 6.9375 0.128906 C 7.328125 0.0429688 7.671875 -0.171875 8.058594 -0.34375 C 8.402344 -0.472656 8.75 -0.515625 9.007812 -0.691406 C 9.222656 -0.820312 9.4375 -0.949219 9.609375 -1.078125 L 9.957031 -1.335938 C 10.128906 -1.464844 10.34375 -1.59375 10.515625 -1.765625 C 10.644531 -1.851562 10.773438 -1.984375 10.902344 -2.113281 C 11.117188 -2.285156 11.335938 -2.457031 11.550781 -2.714844 C 11.636719 -2.800781 11.722656 -2.929688 11.808594 -3.058594 C 11.980469 -3.230469 12.109375 -3.449219 12.238281 -3.664062 C 12.410156 -3.878906 12.457031 -4.136719 12.585938 -4.394531 C 12.757812 -4.742188 13.015625 -5.042969 13.144531 -5.386719 C 13.273438 -5.773438 13.402344 -6.164062 13.488281 -6.550781 L 13.617188 -7.195312 C 13.660156 -7.414062 13.660156 -7.628906 13.660156 -7.84375 C 13.703125 -8.015625 13.703125 -8.1875 13.75 -8.359375 L 13.703125 -8.402344 C 13.75 -8.578125 13.75 -8.75 13.75 -8.921875 L 13.75 -9.4375 C 13.75 -9.566406 13.703125 -9.652344 13.703125 -9.78125 C 13.660156 -9.914062 13.703125 -10.042969 13.660156 -10.171875 C 13.617188 -10.429688 13.574219 -10.730469 13.488281 -10.988281 L 13.230469 -11.851562 C 13.1875 -11.980469 13.101562 -12.109375 13.015625 -12.238281 C 12.929688 -12.457031 12.800781 -12.714844 12.671875 -12.929688 C 12.628906 -13.058594 12.542969 -13.1875 12.457031 -13.316406 C 12.324219 -13.488281 12.28125 -13.660156 12.152344 -13.835938 C 12.023438 -14.007812 11.808594 -14.136719 11.722656 -14.351562 C 11.550781 -14.523438 11.464844 -14.738281 11.335938 -14.953125 L 10.988281 -15.472656 C 10.816406 -15.644531 10.730469 -15.859375 10.601562 -16.074219 C 10.429688 -16.289062 10.257812 -16.464844 10.085938 -16.722656 C 9.957031 -16.894531 9.78125 -17.066406 9.652344 -17.28125 C 9.480469 -17.496094 9.351562 -17.667969 9.179688 -17.886719 L 8.75 -18.402344 C 8.664062 -18.574219 8.535156 -18.746094 8.402344 -18.917969 C 8.273438 -19.136719 8.144531 -19.351562 7.972656 -19.523438 C 7.84375 -19.738281 7.757812 -19.953125 7.628906 -20.125 C 7.542969 -20.253906 7.5 -20.386719 7.414062 -20.558594 L 7.152344 -21.160156 C 7.109375 -21.375 7.023438 -21.589844 7.023438 -21.851562 L 7.066406 -22.023438 C 7.066406 -22.238281 7.195312 -22.453125 7.285156 -22.667969 C 7.328125 -22.796875 7.285156 -22.929688 7.328125 -23.058594 C 7.371094 -23.230469 7.5 -23.359375 7.585938 -23.488281 L 7.886719 -23.875 C 8.015625 -24.003906 8.1875 -24.132812 8.359375 -24.222656 C 8.535156 -24.394531 8.707031 -24.480469 8.878906 -24.609375 C 9.136719 -24.695312 9.394531 -24.78125 9.695312 -24.824219 C 9.871094 -24.824219 10 -24.867188 10.128906 -24.867188 L 10.257812 -24.867188 C 10.34375 -24.824219 10.472656 -24.78125 10.558594 -24.78125 L 10.601562 -24.78125 C 10.773438 -24.824219 10.859375 -24.910156 10.902344 -25.039062 C 10.945312 -25.125 10.945312 -25.210938 10.945312 -25.296875 C 10.945312 -26.03125 10.988281 -26.761719 10.988281 -27.496094 L 10.902344 -27.496094 C 10.902344 -28.140625 10.902344 -28.789062 10.902344 -29.433594 L 10.902344 -29.695312 C 10.902344 -29.824219 10.945312 -29.953125 10.859375 -30.082031 C 10.816406 -30.125 10.730469 -30.125 10.6875 -30.167969 C 10.558594 -30.210938 10.472656 -30.253906 10.386719 -30.253906 C 10.386719 -30.296875 10.34375 -30.296875 10.34375 -30.296875 C 10.300781 -30.296875 10.300781 -30.253906 10.257812 -30.253906 C 10.214844 -30.253906 10.171875 -30.253906 10.128906 -30.253906 L 10.085938 -30.253906 C 10.085938 -30.253906 9.308594 -30.425781 9.4375 -30.382812 Z M 9.4375 -30.382812 "/></g></g></g><g fill="#f0e7e2" fill-opacity="1"><g transform="translate(217.749235, 204.045221)"><g><path d="M 19.480469 -15.085938 C 19.480469 -14.09375 19.480469 -13.144531 19.480469 -12.152344 L 19.480469 -9.265625 C 19.480469 -8.273438 19.4375 -7.328125 19.4375 -6.335938 C 19.4375 -5.386719 19.480469 -4.394531 19.480469 -3.449219 C 19.480469 -2.457031 19.523438 -1.507812 19.523438 -0.515625 C 19.523438 -0.429688 19.4375 -0.34375 19.394531 -0.257812 C 19.351562 -0.0859375 19.265625 0 19.09375 0.0429688 C 18.960938 0.0429688 18.832031 0.128906 18.703125 0.128906 L 14.179688 0.128906 C 14.09375 0.128906 13.964844 0 13.835938 -0.0429688 C 13.703125 -0.0429688 13.660156 -0.128906 13.617188 -0.257812 C 13.617188 -0.300781 13.574219 -0.34375 13.574219 -0.429688 C 13.53125 -0.515625 13.574219 -0.558594 13.574219 -0.644531 C 13.574219 -1.722656 13.53125 -2.800781 13.53125 -3.835938 C 13.53125 -4.914062 13.574219 -5.992188 13.574219 -7.066406 C 13.574219 -8.144531 13.53125 -9.222656 13.53125 -10.257812 L 13.53125 -10.644531 C 13.488281 -10.816406 13.402344 -10.902344 13.1875 -10.902344 C 13.1875 -10.945312 13.144531 -10.945312 13.101562 -10.945312 C 11.808594 -10.945312 10.515625 -10.988281 9.222656 -10.988281 L 9.050781 -10.988281 C 8.921875 -10.945312 8.792969 -10.816406 8.792969 -10.6875 C 8.75 -10.558594 8.792969 -10.472656 8.792969 -10.386719 L 8.792969 -7.109375 C 8.792969 -5.992188 8.75 -4.914062 8.75 -3.835938 C 8.75 -2.714844 8.707031 -1.636719 8.707031 -0.558594 C 8.707031 -0.429688 8.835938 -0.34375 8.792969 -0.257812 C 8.75 -0.0429688 8.578125 0.0429688 8.402344 0.0859375 C 8.273438 0.0859375 8.144531 0.128906 8.015625 0.128906 C 6.507812 0.0859375 5 0.0859375 3.535156 0.0859375 L 3.144531 0.0859375 C 3.015625 0.0429688 2.972656 -0.128906 2.929688 -0.257812 C 2.929688 -0.300781 2.84375 -0.386719 2.84375 -0.429688 C 2.84375 -0.515625 2.886719 -0.644531 2.886719 -0.734375 L 2.886719 -3.964844 C 2.886719 -5.042969 2.84375 -6.121094 2.84375 -7.152344 C 2.84375 -8.230469 2.886719 -9.308594 2.886719 -10.386719 C 2.886719 -11.464844 2.800781 -12.5 2.800781 -13.574219 C 2.800781 -14.652344 2.886719 -15.730469 2.886719 -16.808594 C 2.886719 -17.886719 2.84375 -18.917969 2.84375 -19.996094 C 2.84375 -21.074219 2.84375 -22.152344 2.84375 -23.230469 L 2.84375 -26.417969 C 2.84375 -27.496094 2.929688 -28.574219 2.929688 -29.652344 C 2.929688 -29.738281 2.886719 -29.824219 2.929688 -29.910156 C 2.929688 -30.039062 2.972656 -30.210938 3.101562 -30.253906 C 3.1875 -30.253906 3.277344 -30.296875 3.363281 -30.296875 L 3.535156 -30.296875 C 4.308594 -30.296875 5.085938 -30.253906 5.859375 -30.253906 C 6.636719 -30.253906 7.414062 -30.253906 8.1875 -30.253906 L 8.445312 -30.253906 C 8.621094 -30.210938 8.707031 -30.082031 8.75 -29.910156 C 8.75 -29.824219 8.75 -29.738281 8.75 -29.652344 L 8.75 -25.816406 C 8.75 -24.910156 8.835938 -23.960938 8.835938 -23.058594 C 8.835938 -22.109375 8.707031 -21.203125 8.707031 -20.253906 C 8.707031 -19.308594 8.75 -18.402344 8.75 -17.453125 L 8.75 -17.152344 C 8.75 -17.023438 8.921875 -16.894531 9.050781 -16.851562 C 9.09375 -16.851562 9.136719 -16.9375 9.179688 -16.9375 C 10.515625 -16.9375 11.808594 -16.894531 13.101562 -16.894531 C 13.144531 -16.894531 13.1875 -16.851562 13.230469 -16.894531 C 13.402344 -16.894531 13.53125 -17.066406 13.53125 -17.195312 C 13.574219 -17.324219 13.488281 -17.410156 13.488281 -17.539062 C 13.488281 -18.574219 13.53125 -19.566406 13.53125 -20.558594 L 13.53125 -23.574219 C 13.53125 -24.609375 13.574219 -25.601562 13.574219 -26.589844 C 13.574219 -27.625 13.488281 -28.617188 13.488281 -29.609375 C 13.488281 -29.738281 13.574219 -29.824219 13.617188 -29.910156 C 13.660156 -30.039062 13.703125 -30.082031 13.835938 -30.125 C 13.878906 -30.167969 13.964844 -30.253906 14.050781 -30.253906 L 14.179688 -30.253906 C 14.996094 -30.253906 15.773438 -30.167969 16.550781 -30.167969 C 17.324219 -30.167969 18.101562 -30.253906 18.875 -30.253906 C 18.960938 -30.253906 19.050781 -30.210938 19.136719 -30.167969 C 19.308594 -30.167969 19.394531 -30.082031 19.4375 -29.910156 C 19.4375 -29.824219 19.480469 -29.78125 19.523438 -29.738281 C 19.523438 -29.609375 19.480469 -29.523438 19.480469 -29.433594 C 19.480469 -28.488281 19.523438 -27.539062 19.523438 -26.546875 C 19.523438 -25.601562 19.4375 -24.652344 19.4375 -23.703125 C 19.4375 -22.753906 19.4375 -21.765625 19.4375 -20.816406 L 19.4375 -17.972656 C 19.4375 -16.980469 19.480469 -16.03125 19.480469 -15.085938 Z M 19.480469 -15.085938 "/></g></g></g><g fill="#f0e7e2" fill-opacity="1"><g transform="translate(240.068895, 204.045221)"><g><path d="M 2.84375 -15.085938 C 2.84375 -16.203125 2.800781 -17.367188 2.800781 -18.488281 L 2.800781 -21.894531 C 2.800781 -23.058594 2.84375 -24.175781 2.84375 -25.339844 L 2.84375 -28.746094 C 2.84375 -28.917969 2.800781 -29.132812 2.800781 -29.304688 L 2.800781 -29.433594 C 2.84375 -29.609375 2.929688 -29.78125 3.058594 -29.910156 C 3.230469 -29.996094 3.40625 -30.039062 3.535156 -30.082031 C 3.664062 -30.125 3.835938 -30.167969 4.007812 -30.167969 C 5.042969 -30.167969 6.078125 -30.082031 7.109375 -30.082031 C 7.328125 -30.082031 7.542969 -30.082031 7.800781 -30.039062 C 8.144531 -29.953125 8.359375 -29.78125 8.488281 -29.433594 L 8.488281 -29.003906 C 8.488281 -27.96875 8.535156 -26.9375 8.535156 -25.945312 C 8.535156 -24.910156 8.402344 -23.875 8.402344 -22.839844 L 8.402344 -19.78125 C 8.488281 -18.746094 8.488281 -17.757812 8.488281 -16.722656 C 8.488281 -15.6875 8.535156 -14.695312 8.535156 -13.660156 C 8.535156 -12.628906 8.535156 -11.59375 8.535156 -10.601562 L 8.535156 -7.5 C 8.535156 -6.507812 8.488281 -5.472656 8.488281 -4.4375 C 8.488281 -3.40625 8.535156 -2.414062 8.535156 -1.378906 C 8.535156 -1.164062 8.488281 -0.949219 8.402344 -0.734375 C 8.359375 -0.558594 8.316406 -0.386719 8.230469 -0.257812 C 8.101562 -0.128906 7.929688 -0.128906 7.800781 -0.0859375 C 7.585938 -0.0859375 7.457031 0 7.285156 0 C 6.292969 0 5.214844 -0.0429688 4.222656 -0.0429688 C 4.007812 -0.0429688 3.75 -0.0429688 3.535156 -0.0859375 C 3.144531 -0.171875 3.015625 -0.386719 2.929688 -0.734375 C 2.886719 -0.863281 2.886719 -0.992188 2.886719 -1.164062 C 2.886719 -2.328125 2.800781 -3.492188 2.800781 -4.65625 L 2.800781 -8.101562 C 2.800781 -9.265625 2.84375 -10.429688 2.84375 -11.59375 Z M 2.84375 -15.085938 "/></g></g></g><g fill="#f0e7e2" fill-opacity="1"><g transform="translate(121.05598, 221.161449)"><g><path d="M 0.859375 0.03125 C 0.742188 0.03125 0.648438 -0.00390625 0.578125 -0.078125 C 0.503906 -0.148438 0.46875 -0.242188 0.46875 -0.359375 L 0.46875 -3.953125 C 0.46875 -4.078125 0.503906 -4.171875 0.578125 -4.234375 C 0.648438 -4.304688 0.742188 -4.34375 0.859375 -4.34375 C 0.984375 -4.34375 1.078125 -4.304688 1.140625 -4.234375 C 1.210938 -4.171875 1.25 -4.078125 1.25 -3.953125 L 1.25 -0.359375 C 1.25 -0.242188 1.210938 -0.148438 1.140625 -0.078125 C 1.078125 -0.00390625 0.984375 0.03125 0.859375 0.03125 Z M 0.859375 0.03125 "/></g></g></g><g fill="#f0e7e2" fill-opacity="1"><g transform="translate(125.210595, 221.161449)"><g><path d="M 1.875 0.03125 C 1.757812 0.03125 1.664062 -0.00390625 1.59375 -0.078125 C 1.519531 -0.148438 1.484375 -0.242188 1.484375 -0.359375 L 1.484375 -3.671875 L 0.375 -3.671875 C 0.125 -3.671875 0 -3.78125 0 -4 C 0 -4.207031 0.125 -4.3125 0.375 -4.3125 L 3.390625 -4.3125 C 3.628906 -4.3125 3.75 -4.207031 3.75 -4 C 3.75 -3.78125 3.628906 -3.671875 3.390625 -3.671875 L 2.265625 -3.671875 L 2.265625 -0.359375 C 2.265625 -0.242188 2.226562 -0.148438 2.15625 -0.078125 C 2.09375 -0.00390625 2 0.03125 1.875 0.03125 Z M 1.875 0.03125 "/></g></g></g><g fill="#f0e7e2" fill-opacity="1"><g transform="translate(131.399631, 221.161449)"><g><path d="M 1.953125 0.0625 C 1.640625 0.0625 1.34375 0.0195312 1.0625 -0.0625 C 0.789062 -0.15625 0.566406 -0.269531 0.390625 -0.40625 C 0.296875 -0.476562 0.25 -0.578125 0.25 -0.703125 C 0.25 -0.785156 0.269531 -0.859375 0.3125 -0.921875 C 0.363281 -0.984375 0.425781 -1.015625 0.5 -1.015625 C 0.570312 -1.015625 0.65625 -0.988281 0.75 -0.9375 C 0.925781 -0.8125 1.109375 -0.71875 1.296875 -0.65625 C 1.492188 -0.601562 1.707031 -0.578125 1.9375 -0.578125 C 2.238281 -0.578125 2.46875 -0.628906 2.625 -0.734375 C 2.78125 -0.835938 2.859375 -0.988281 2.859375 -1.1875 C 2.859375 -1.34375 2.785156 -1.460938 2.640625 -1.546875 C 2.492188 -1.628906 2.25 -1.707031 1.90625 -1.78125 C 1.539062 -1.863281 1.242188 -1.957031 1.015625 -2.0625 C 0.796875 -2.164062 0.628906 -2.296875 0.515625 -2.453125 C 0.398438 -2.609375 0.34375 -2.8125 0.34375 -3.0625 C 0.34375 -3.3125 0.410156 -3.535156 0.546875 -3.734375 C 0.691406 -3.929688 0.890625 -4.085938 1.140625 -4.203125 C 1.398438 -4.316406 1.691406 -4.375 2.015625 -4.375 C 2.597656 -4.375 3.070312 -4.21875 3.4375 -3.90625 C 3.488281 -3.863281 3.523438 -3.820312 3.546875 -3.78125 C 3.578125 -3.738281 3.59375 -3.679688 3.59375 -3.609375 C 3.59375 -3.523438 3.566406 -3.453125 3.515625 -3.390625 C 3.460938 -3.328125 3.398438 -3.296875 3.328125 -3.296875 C 3.285156 -3.296875 3.25 -3.300781 3.21875 -3.3125 C 3.1875 -3.320312 3.140625 -3.34375 3.078125 -3.375 C 2.910156 -3.5 2.75 -3.59375 2.59375 -3.65625 C 2.4375 -3.71875 2.242188 -3.75 2.015625 -3.75 C 1.734375 -3.75 1.507812 -3.691406 1.34375 -3.578125 C 1.1875 -3.460938 1.109375 -3.304688 1.109375 -3.109375 C 1.109375 -2.941406 1.179688 -2.8125 1.328125 -2.71875 C 1.472656 -2.625 1.71875 -2.539062 2.0625 -2.46875 C 2.425781 -2.382812 2.71875 -2.289062 2.9375 -2.1875 C 3.164062 -2.09375 3.335938 -1.96875 3.453125 -1.8125 C 3.578125 -1.65625 3.640625 -1.460938 3.640625 -1.234375 C 3.640625 -0.972656 3.566406 -0.742188 3.421875 -0.546875 C 3.285156 -0.359375 3.085938 -0.207031 2.828125 -0.09375 C 2.578125 0.0078125 2.285156 0.0625 1.953125 0.0625 Z M 1.953125 0.0625 "/></g></g></g><g fill="#f0e7e2" fill-opacity="1"><g transform="translate(137.741861, 221.161449)"><g><path d="M 2.25 0.0625 C 1.65625 0.0625 1.203125 -0.0859375 0.890625 -0.390625 C 0.585938 -0.703125 0.4375 -1.15625 0.4375 -1.75 L 0.4375 -3.953125 C 0.4375 -4.078125 0.472656 -4.171875 0.546875 -4.234375 C 0.617188 -4.304688 0.710938 -4.34375 0.828125 -4.34375 C 0.941406 -4.34375 1.035156 -4.304688 1.109375 -4.234375 C 1.179688 -4.171875 1.21875 -4.078125 1.21875 -3.953125 L 1.21875 -1.703125 C 1.21875 -1.328125 1.300781 -1.046875 1.46875 -0.859375 C 1.644531 -0.671875 1.90625 -0.578125 2.25 -0.578125 C 2.582031 -0.578125 2.835938 -0.671875 3.015625 -0.859375 C 3.191406 -1.054688 3.28125 -1.335938 3.28125 -1.703125 L 3.28125 -3.953125 C 3.28125 -4.078125 3.3125 -4.171875 3.375 -4.234375 C 3.445312 -4.304688 3.539062 -4.34375 3.65625 -4.34375 C 3.78125 -4.34375 3.875 -4.304688 3.9375 -4.234375 C 4.007812 -4.171875 4.046875 -4.078125 4.046875 -3.953125 L 4.046875 -1.75 C 4.046875 -1.164062 3.890625 -0.71875 3.578125 -0.40625 C 3.273438 -0.09375 2.832031 0.0625 2.25 0.0625 Z M 2.25 0.0625 "/></g></g></g><g fill="#f0e7e2" fill-opacity="1"><g transform="translate(144.666233, 221.161449)"><g><path d="M 3.8125 -0.59375 C 3.894531 -0.519531 3.9375 -0.429688 3.9375 -0.328125 C 3.9375 -0.234375 3.898438 -0.148438 3.828125 -0.078125 C 3.753906 -0.00390625 3.671875 0.03125 3.578125 0.03125 C 3.472656 0.03125 3.378906 -0.015625 3.296875 -0.109375 L 1.25 -2.015625 L 1.25 -0.359375 C 1.25 -0.242188 1.210938 -0.148438 1.140625 -0.078125 C 1.078125 -0.00390625 0.984375 0.03125 0.859375 0.03125 C 0.742188 0.03125 0.648438 -0.00390625 0.578125 -0.078125 C 0.503906 -0.148438 0.46875 -0.242188 0.46875 -0.359375 L 0.46875 -3.953125 C 0.46875 -4.078125 0.503906 -4.171875 0.578125 -4.234375 C 0.648438 -4.304688 0.742188 -4.34375 0.859375 -4.34375 C 0.984375 -4.34375 1.078125 -4.304688 1.140625 -4.234375 C 1.210938 -4.171875 1.25 -4.078125 1.25 -3.953125 L 1.25 -2.375 L 3.234375 -4.234375 C 3.304688 -4.304688 3.390625 -4.34375 3.484375 -4.34375 C 3.578125 -4.34375 3.65625 -4.304688 3.71875 -4.234375 C 3.789062 -4.160156 3.828125 -4.078125 3.828125 -3.984375 C 3.828125 -3.890625 3.789062 -3.804688 3.71875 -3.734375 L 2.0625 -2.21875 Z M 3.8125 -0.59375 "/></g></g></g><g fill="#f0e7e2" fill-opacity="1"><g transform="translate(151.143278, 221.161449)"><g><path d="M 0.859375 0.03125 C 0.742188 0.03125 0.648438 -0.00390625 0.578125 -0.078125 C 0.503906 -0.148438 0.46875 -0.242188 0.46875 -0.359375 L 0.46875 -3.953125 C 0.46875 -4.078125 0.503906 -4.171875 0.578125 -4.234375 C 0.648438 -4.304688 0.742188 -4.34375 0.859375 -4.34375 C 0.984375 -4.34375 1.078125 -4.304688 1.140625 -4.234375 C 1.210938 -4.171875 1.25 -4.078125 1.25 -3.953125 L 1.25 -0.359375 C 1.25 -0.242188 1.210938 -0.148438 1.140625 -0.078125 C 1.078125 -0.00390625 0.984375 0.03125 0.859375 0.03125 Z M 0.859375 0.03125 "/></g></g></g><g fill="#f0e7e2" fill-opacity="1"><g transform="translate(121.05598, 227.289182)"><g><path d="M 1.875 0.03125 C 1.757812 0.03125 1.664062 -0.00390625 1.59375 -0.078125 C 1.519531 -0.148438 1.484375 -0.242188 1.484375 -0.359375 L 1.484375 -3.671875 L 0.375 -3.671875 C 0.125 -3.671875 0 -3.78125 0 -4 C 0 -4.207031 0.125 -4.3125 0.375 -4.3125 L 3.390625 -4.3125 C 3.628906 -4.3125 3.75 -4.207031 3.75 -4 C 3.75 -3.78125 3.628906 -3.671875 3.390625 -3.671875 L 2.265625 -3.671875 L 2.265625 -0.359375 C 2.265625 -0.242188 2.226562 -0.148438 2.15625 -0.078125 C 2.09375 -0.00390625 2 0.03125 1.875 0.03125 Z M 1.875 0.03125 "/></g></g></g><g fill="#f0e7e2" fill-opacity="1"><g transform="translate(127.245015, 227.289182)"><g><path d="M 4.375 -0.46875 C 4.40625 -0.414062 4.421875 -0.363281 4.421875 -0.3125 C 4.421875 -0.21875 4.378906 -0.132812 4.296875 -0.0625 C 4.222656 0 4.140625 0.03125 4.046875 0.03125 C 3.972656 0.03125 3.90625 0.015625 3.84375 -0.015625 C 3.789062 -0.0546875 3.75 -0.113281 3.71875 -0.1875 L 3.359375 -1.015625 L 1.203125 -1.015625 L 0.828125 -0.1875 C 0.796875 -0.113281 0.75 -0.0546875 0.6875 -0.015625 C 0.632812 0.015625 0.578125 0.03125 0.515625 0.03125 C 0.421875 0.03125 0.332031 0 0.25 -0.0625 C 0.175781 -0.132812 0.140625 -0.21875 0.140625 -0.3125 C 0.140625 -0.363281 0.148438 -0.414062 0.171875 -0.46875 L 1.859375 -4.109375 C 1.898438 -4.179688 1.957031 -4.238281 2.03125 -4.28125 C 2.101562 -4.332031 2.179688 -4.359375 2.265625 -4.359375 C 2.359375 -4.359375 2.441406 -4.332031 2.515625 -4.28125 C 2.585938 -4.238281 2.644531 -4.179688 2.6875 -4.109375 Z M 1.46875 -1.625 L 3.09375 -1.625 L 2.28125 -3.4375 Z M 1.46875 -1.625 "/></g></g></g><g fill="#f0e7e2" fill-opacity="1"><g transform="translate(134.224538, 227.289182)"><g><path d="M 3.8125 -0.59375 C 3.894531 -0.519531 3.9375 -0.429688 3.9375 -0.328125 C 3.9375 -0.234375 3.898438 -0.148438 3.828125 -0.078125 C 3.753906 -0.00390625 3.671875 0.03125 3.578125 0.03125 C 3.472656 0.03125 3.378906 -0.015625 3.296875 -0.109375 L 1.25 -2.015625 L 1.25 -0.359375 C 1.25 -0.242188 1.210938 -0.148438 1.140625 -0.078125 C 1.078125 -0.00390625 0.984375 0.03125 0.859375 0.03125 C 0.742188 0.03125 0.648438 -0.00390625 0.578125 -0.078125 C 0.503906 -0.148438 0.46875 -0.242188 0.46875 -0.359375 L 0.46875 -3.953125 C 0.46875 -4.078125 0.503906 -4.171875 0.578125 -4.234375 C 0.648438 -4.304688 0.742188 -4.34375 0.859375 -4.34375 C 0.984375 -4.34375 1.078125 -4.304688 1.140625 -4.234375 C 1.210938 -4.171875 1.25 -4.078125 1.25 -3.953125 L 1.25 -2.375 L 3.234375 -4.234375 C 3.304688 -4.304688 3.390625 -4.34375 3.484375 -4.34375 C 3.578125 -4.34375 3.65625 -4.304688 3.71875 -4.234375 C 3.789062 -4.160156 3.828125 -4.078125 3.828125 -3.984375 C 3.828125 -3.890625 3.789062 -3.804688 3.71875 -3.734375 L 2.0625 -2.21875 Z M 3.8125 -0.59375 "/></g></g></g><g fill="#f0e7e2" fill-opacity="1"><g transform="translate(140.701582, 227.289182)"><g><path d="M 4.375 -0.46875 C 4.40625 -0.414062 4.421875 -0.363281 4.421875 -0.3125 C 4.421875 -0.21875 4.378906 -0.132812 4.296875 -0.0625 C 4.222656 0 4.140625 0.03125 4.046875 0.03125 C 3.972656 0.03125 3.90625 0.015625 3.84375 -0.015625 C 3.789062 -0.0546875 3.75 -0.113281 3.71875 -0.1875 L 3.359375 -1.015625 L 1.203125 -1.015625 L 0.828125 -0.1875 C 0.796875 -0.113281 0.75 -0.0546875 0.6875 -0.015625 C 0.632812 0.015625 0.578125 0.03125 0.515625 0.03125 C 0.421875 0.03125 0.332031 0 0.25 -0.0625 C 0.175781 -0.132812 0.140625 -0.21875 0.140625 -0.3125 C 0.140625 -0.363281 0.148438 -0.414062 0.171875 -0.46875 L 1.859375 -4.109375 C 1.898438 -4.179688 1.957031 -4.238281 2.03125 -4.28125 C 2.101562 -4.332031 2.179688 -4.359375 2.265625 -4.359375 C 2.359375 -4.359375 2.441406 -4.332031 2.515625 -4.28125 C 2.585938 -4.238281 2.644531 -4.179688 2.6875 -4.109375 Z M 1.46875 -1.625 L 3.09375 -1.625 L 2.28125 -3.4375 Z M 1.46875 -1.625 "/></g></g></g><g fill="#f0e7e2" fill-opacity="1"><g transform="translate(147.681105, 227.289182)"><g><path d="M 3.84375 -4.34375 C 3.957031 -4.34375 4.046875 -4.304688 4.109375 -4.234375 C 4.179688 -4.171875 4.21875 -4.078125 4.21875 -3.953125 L 4.21875 -0.359375 C 4.21875 -0.242188 4.179688 -0.148438 4.109375 -0.078125 C 4.046875 -0.00390625 3.957031 0.03125 3.84375 0.03125 C 3.71875 0.03125 3.617188 -0.00390625 3.546875 -0.078125 C 3.484375 -0.148438 3.453125 -0.242188 3.453125 -0.359375 L 3.453125 -1.875 L 1.25 -1.875 L 1.25 -0.359375 C 1.25 -0.242188 1.210938 -0.148438 1.140625 -0.078125 C 1.066406 -0.00390625 0.96875 0.03125 0.84375 0.03125 C 0.738281 0.03125 0.648438 -0.00390625 0.578125 -0.078125 C 0.503906 -0.148438 0.46875 -0.242188 0.46875 -0.359375 L 0.46875 -3.953125 C 0.46875 -4.078125 0.5 -4.171875 0.5625 -4.234375 C 0.632812 -4.304688 0.726562 -4.34375 0.84375 -4.34375 C 0.96875 -4.34375 1.066406 -4.304688 1.140625 -4.234375 C 1.210938 -4.171875 1.25 -4.078125 1.25 -3.953125 L 1.25 -2.515625 L 3.453125 -2.515625 L 3.453125 -3.953125 C 3.453125 -4.078125 3.484375 -4.171875 3.546875 -4.234375 C 3.617188 -4.304688 3.71875 -4.34375 3.84375 -4.34375 Z M 3.84375 -4.34375 "/></g></g></g><g fill="#f0e7e2" fill-opacity="1"><g transform="translate(154.807691, 227.289182)"><g><path d="M 4.375 -0.46875 C 4.40625 -0.414062 4.421875 -0.363281 4.421875 -0.3125 C 4.421875 -0.21875 4.378906 -0.132812 4.296875 -0.0625 C 4.222656 0 4.140625 0.03125 4.046875 0.03125 C 3.972656 0.03125 3.90625 0.015625 3.84375 -0.015625 C 3.789062 -0.0546875 3.75 -0.113281 3.71875 -0.1875 L 3.359375 -1.015625 L 1.203125 -1.015625 L 0.828125 -0.1875 C 0.796875 -0.113281 0.75 -0.0546875 0.6875 -0.015625 C 0.632812 0.015625 0.578125 0.03125 0.515625 0.03125 C 0.421875 0.03125 0.332031 0 0.25 -0.0625 C 0.175781 -0.132812 0.140625 -0.21875 0.140625 -0.3125 C 0.140625 -0.363281 0.148438 -0.414062 0.171875 -0.46875 L 1.859375 -4.109375 C 1.898438 -4.179688 1.957031 -4.238281 2.03125 -4.28125 C 2.101562 -4.332031 2.179688 -4.359375 2.265625 -4.359375 C 2.359375 -4.359375 2.441406 -4.332031 2.515625 -4.28125 C 2.585938 -4.238281 2.644531 -4.179688 2.6875 -4.109375 Z M 1.46875 -1.625 L 3.09375 -1.625 L 2.28125 -3.4375 Z M 1.46875 -1.625 "/></g></g></g><g fill="#f0e7e2" fill-opacity="1"><g transform="translate(161.787214, 227.289182)"><g><path d="M 1.953125 0.0625 C 1.640625 0.0625 1.34375 0.0195312 1.0625 -0.0625 C 0.789062 -0.15625 0.566406 -0.269531 0.390625 -0.40625 C 0.296875 -0.476562 0.25 -0.578125 0.25 -0.703125 C 0.25 -0.785156 0.269531 -0.859375 0.3125 -0.921875 C 0.363281 -0.984375 0.425781 -1.015625 0.5 -1.015625 C 0.570312 -1.015625 0.65625 -0.988281 0.75 -0.9375 C 0.925781 -0.8125 1.109375 -0.71875 1.296875 -0.65625 C 1.492188 -0.601562 1.707031 -0.578125 1.9375 -0.578125 C 2.238281 -0.578125 2.46875 -0.628906 2.625 -0.734375 C 2.78125 -0.835938 2.859375 -0.988281 2.859375 -1.1875 C 2.859375 -1.34375 2.785156 -1.460938 2.640625 -1.546875 C 2.492188 -1.628906 2.25 -1.707031 1.90625 -1.78125 C 1.539062 -1.863281 1.242188 -1.957031 1.015625 -2.0625 C 0.796875 -2.164062 0.628906 -2.296875 0.515625 -2.453125 C 0.398438 -2.609375 0.34375 -2.8125 0.34375 -3.0625 C 0.34375 -3.3125 0.410156 -3.535156 0.546875 -3.734375 C 0.691406 -3.929688 0.890625 -4.085938 1.140625 -4.203125 C 1.398438 -4.316406 1.691406 -4.375 2.015625 -4.375 C 2.597656 -4.375 3.070312 -4.21875 3.4375 -3.90625 C 3.488281 -3.863281 3.523438 -3.820312 3.546875 -3.78125 C 3.578125 -3.738281 3.59375 -3.679688 3.59375 -3.609375 C 3.59375 -3.523438 3.566406 -3.453125 3.515625 -3.390625 C 3.460938 -3.328125 3.398438 -3.296875 3.328125 -3.296875 C 3.285156 -3.296875 3.25 -3.300781 3.21875 -3.3125 C 3.1875 -3.320312 3.140625 -3.34375 3.078125 -3.375 C 2.910156 -3.5 2.75 -3.59375 2.59375 -3.65625 C 2.4375 -3.71875 2.242188 -3.75 2.015625 -3.75 C 1.734375 -3.75 1.507812 -3.691406 1.34375 -3.578125 C 1.1875 -3.460938 1.109375 -3.304688 1.109375 -3.109375 C 1.109375 -2.941406 1.179688 -2.8125 1.328125 -2.71875 C 1.472656 -2.625 1.71875 -2.539062 2.0625 -2.46875 C 2.425781 -2.382812 2.71875 -2.289062 2.9375 -2.1875 C 3.164062 -2.09375 3.335938 -1.96875 3.453125 -1.8125 C 3.578125 -1.65625 3.640625 -1.460938 3.640625 -1.234375 C 3.640625 -0.972656 3.566406 -0.742188 3.421875 -0.546875 C 3.285156 -0.359375 3.085938 -0.207031 2.828125 -0.09375 C 2.578125 0.0078125 2.285156 0.0625 1.953125 0.0625 Z M 1.953125 0.0625 "/></g></g></g><g fill="#f0e7e2" fill-opacity="1"><g transform="translate(168.129444, 227.289182)"><g><path d="M 3.84375 -4.34375 C 3.957031 -4.34375 4.046875 -4.304688 4.109375 -4.234375 C 4.179688 -4.171875 4.21875 -4.078125 4.21875 -3.953125 L 4.21875 -0.359375 C 4.21875 -0.242188 4.179688 -0.148438 4.109375 -0.078125 C 4.046875 -0.00390625 3.957031 0.03125 3.84375 0.03125 C 3.71875 0.03125 3.617188 -0.00390625 3.546875 -0.078125 C 3.484375 -0.148438 3.453125 -0.242188 3.453125 -0.359375 L 3.453125 -1.875 L 1.25 -1.875 L 1.25 -0.359375 C 1.25 -0.242188 1.210938 -0.148438 1.140625 -0.078125 C 1.066406 -0.00390625 0.96875 0.03125 0.84375 0.03125 C 0.738281 0.03125 0.648438 -0.00390625 0.578125 -0.078125 C 0.503906 -0.148438 0.46875 -0.242188 0.46875 -0.359375 L 0.46875 -3.953125 C 0.46875 -4.078125 0.5 -4.171875 0.5625 -4.234375 C 0.632812 -4.304688 0.726562 -4.34375 0.84375 -4.34375 C 0.96875 -4.34375 1.066406 -4.304688 1.140625 -4.234375 C 1.210938 -4.171875 1.25 -4.078125 1.25 -3.953125 L 1.25 -2.515625 L 3.453125 -2.515625 L 3.453125 -3.953125 C 3.453125 -4.078125 3.484375 -4.171875 3.546875 -4.234375 C 3.617188 -4.304688 3.71875 -4.34375 3.84375 -4.34375 Z M 3.84375 -4.34375 "/></g></g></g><g fill="#f0e7e2" fill-opacity="1"><g transform="translate(175.256029, 227.289182)"><g><path d="M 0.859375 0.03125 C 0.742188 0.03125 0.648438 -0.00390625 0.578125 -0.078125 C 0.503906 -0.148438 0.46875 -0.242188 0.46875 -0.359375 L 0.46875 -3.953125 C 0.46875 -4.078125 0.503906 -4.171875 0.578125 -4.234375 C 0.648438 -4.304688 0.742188 -4.34375 0.859375 -4.34375 C 0.984375 -4.34375 1.078125 -4.304688 1.140625 -4.234375 C 1.210938 -4.171875 1.25 -4.078125 1.25 -3.953125 L 1.25 -0.359375 C 1.25 -0.242188 1.210938 -0.148438 1.140625 -0.078125 C 1.078125 -0.00390625 0.984375 0.03125 0.859375 0.03125 Z M 0.859375 0.03125 "/></g></g></g></svg>